<svg width="158" height="183" viewBox="0 0 158 183" fill="none" xmlns="http://www.w3.org/2000/svg">
<path d="M93.8794 36.8928C93.7694 33.5885 92.8794 37.208 93.3794 38.1821C93.397 38.2116 93.4206 38.2376 93.4488 38.2584C93.4769 38.2792 93.5091 38.2945 93.5435 38.3034C93.5779 38.3123 93.6138 38.3146 93.6492 38.3101C93.6845 38.3057 93.7185 38.2946 93.7494 38.2776C93.7897 38.2533 93.8239 38.2206 93.8494 38.1821C93.9342 37.7561 93.9342 37.3187 93.8494 36.8928H93.8794ZM84.4194 50.3392C83.7494 50.3392 76.5294 49.9859 76.5694 50.5111C76.1194 50.387 76.5694 53.4716 76.5694 53.8345C76.5694 54.1974 77.3394 54.1401 77.5694 54.1592C79.5694 54.3025 85.1094 54.2643 85.5694 54.2643C86.0294 54.2643 85.7594 50.6353 85.7494 50.6257C85.7394 50.2246 84.6594 50.3488 84.4194 50.3392ZM85.2894 53.8059C83.5794 53.8059 78.6994 53.6913 77.0794 53.8059C76.9594 52.7554 76.8394 51.7049 76.7294 50.6544L85.3194 50.8167C85.2494 51.8099 85.2894 52.8127 85.2894 53.8059ZM71.8594 55.0856C71.8977 55.0815 71.9334 55.0651 71.9606 55.039C71.9879 55.013 72.0051 54.9789 72.0094 54.9423V52.5071C72.0094 52.1442 71.3994 52.0773 71.4194 52.4498C71.4194 53.2902 71.5294 54.121 71.5994 54.9519C71.6001 54.9805 71.6088 55.0084 71.6244 55.0328C71.6401 55.0572 71.6623 55.0772 71.6887 55.0908C71.7151 55.1044 71.7448 55.1111 71.7748 55.1101C71.8047 55.1092 71.8339 55.1007 71.8594 55.0856ZM93.4994 49.2887C93.4605 49.2939 93.4242 49.3104 93.3955 49.3361C93.3669 49.3617 93.3472 49.3952 93.3394 49.432C93.3394 49.8331 93.0694 52.1251 93.5694 52.1728C94.1894 52.1728 93.7694 49.9477 93.7094 49.4129C93.6975 49.3705 93.6692 49.334 93.6302 49.311C93.5911 49.2879 93.5443 49.2799 93.4994 49.2887ZM93.7694 54.5985C93.6694 53.9396 93.3194 53.9873 93.2794 54.885V55.9546C93.2794 56.6422 94.1394 57.1866 93.7694 54.5985ZM93.5494 58.8865C93.0094 58.9342 93.4294 61.3122 93.4994 61.7515C93.4994 61.9138 93.8094 61.952 93.8194 61.7515C93.8194 60.892 93.8194 60.0325 93.8794 59.173C93.8812 59.1324 93.8737 59.0918 93.8574 59.0543C93.841 59.0168 93.8162 58.9832 93.7847 58.9558C93.7532 58.9285 93.7158 58.9081 93.6751 58.8961C93.6345 58.8841 93.5915 58.8808 93.5494 58.8865ZM93.8194 40.3213C93.8194 40.1207 93.4494 40.1494 93.4094 40.3213C93.3694 40.4932 93.0694 43.5683 93.7694 42.8043C93.9197 41.9796 93.9197 41.1364 93.7694 40.3117L93.8194 40.3213ZM93.2694 45.4401V47.3501C93.2694 47.7321 93.8994 47.6748 93.8794 47.3501C93.8794 46.7198 93.8794 46.0895 93.7794 45.4401C93.7194 44.4278 93.2894 44.3705 93.2694 45.4401ZM93.4094 64.1008C93.2591 64.9286 93.2591 65.775 93.4094 66.6029C93.4094 66.813 93.7794 66.7748 93.8194 66.6029C93.8594 66.431 94.1094 63.3368 93.4094 64.1008ZM120.189 37.7141C120.757 37.8027 121.28 38.0639 121.679 38.459C121.899 38.6787 122.179 38.2967 121.359 37.6664C119.999 36.6445 119.429 37.5804 120.189 37.7141ZM119.459 41.41C120.349 41.1712 119.609 39.4045 119.339 40.7701C119.309 40.8847 119.219 41.4768 119.459 41.41ZM120.139 47.4169C123.139 47.4742 122.249 43.0239 121.679 43.9789C120.359 46.1277 118.119 45.6693 117.959 45.8889C117.799 46.1086 118.729 47.3978 120.139 47.4169ZM121.829 44.4755C122.499 47.1113 119.529 47.9231 118.349 46.1277C119.029 46.1575 119.705 46.0214 120.314 45.7323C120.922 45.4432 121.444 45.0107 121.829 44.4755ZM93.6994 33.7031C93.7386 33.6857 93.7729 33.6595 93.7994 33.6267C93.9644 32.7937 93.9644 31.9385 93.7994 31.1055C93.7994 30.9527 93.5094 30.905 93.4594 31.1055C93.3031 31.9377 93.2795 32.7878 93.3894 33.6267C93.4221 33.6737 93.4719 33.7074 93.5291 33.7215C93.5863 33.7356 93.6469 33.729 93.6994 33.7031ZM115.679 43.6542C115.879 44.5137 118.239 43.5778 116.169 43.4823C116.299 42.248 116.571 41.031 116.979 39.8533C117.139 39.3376 116.269 39.5668 115.759 42.9953C115.693 43.2088 115.666 43.4318 115.679 43.6542ZM71.4494 57.4635C71.4705 58.3077 71.5473 59.1498 71.6794 59.9847C71.6794 60.0252 71.6962 60.0641 71.7262 60.0928C71.7562 60.1214 71.7969 60.1375 71.8394 60.1375C71.8818 60.1375 71.9225 60.1214 71.9525 60.0928C71.9825 60.0641 71.9994 60.0252 71.9994 59.9847C72.3394 55.735 71.4494 57.4062 71.4494 57.4635ZM114.289 39.605C113.929 40.0634 113.999 40.8943 114.399 40.56C114.799 40.2258 114.539 39.2803 114.289 39.605ZM71.5094 67.4337C71.0194 68.4651 72.1194 72.2087 72.0694 68.0927C72.0594 67.4337 71.7394 66.9658 71.5094 67.4337ZM71.5294 64.8648C71.5294 65.0653 71.9094 65.0367 71.9494 64.8648C71.9894 64.6929 72.2794 61.6178 71.5894 62.3722C71.4192 63.1968 71.3989 64.0432 71.5294 64.8743V64.8648Z" fill="black"/>
<path d="M110.65 32.7576C111.302 33.3225 112.04 33.7894 112.84 34.1424C111.58 38.1247 108.9 50.9122 115.99 51.6762C115.99 52.2874 115.93 52.8986 115.9 53.5193C113.709 54.1666 111.605 55.0543 109.63 56.1647C108.82 57.4253 108.01 58.6954 107.25 59.9847C106.248 61.7634 105.35 63.5934 104.56 65.4664C105.965 65.9574 107.277 66.6673 108.44 67.5674C109.64 68.4269 107.5 69.7352 106.64 70.7762C109.074 75.0411 112.257 78.8754 116.05 82.112C116.28 80.7941 116.55 79.6672 116.66 79.247C114.36 75.427 111.36 61.102 111.71 55.754C112.31 55.4675 112.91 55.2097 113.51 54.9709C113.51 56.0596 114.6 58.6859 115.76 58.9533C115.89 59.3353 116.41 58.5713 116.76 58.237C116.95 58.896 117.21 59.574 117.33 60.0706C118.161 59.9007 119.025 59.9637 119.82 60.2521C120.24 59.6982 120.95 58.9055 121.3 58.5331C121.47 58.7527 121.75 59.2207 122.05 59.1729C124.44 58.7432 128.05 56.5658 129.28 54.4457C130.02 54.6271 130.74 54.8277 131.46 55.0569C124.93 61.8947 118.46 73.5743 116.78 82.5036C121.1 79.524 128.21 74.558 131.58 71.4924C128.97 67.6056 126.79 67.8921 132.03 66.9084C133.03 66.727 133.98 66.5455 134.96 66.4118C134.7 62.681 134.26 58.9692 133.64 55.2765C131.407 54.3603 129.05 53.7464 126.64 53.4525C126.58 51.9722 126.64 50.4824 126.64 49.0022C126.64 49.0022 133.77 40.8751 132.93 35.4985C132.6 33.3497 130.84 33.1874 129.01 33.7508C130.42 32.4616 132.11 32.6621 132.01 31.8408C131.86 30.628 128.65 31.3538 127.61 33.1301C124.66 27.3141 117.61 25.662 121.49 30.0359C118.94 28.4315 116.09 27.0276 112.95 27.0276C108.26 26.9608 107.7 30.1982 110.65 32.7576ZM115.91 58.5426C115.311 58.0854 114.813 57.5189 114.446 56.8762C114.078 56.2335 113.848 55.5274 113.77 54.799C114.5 54.5125 115.23 54.2547 115.98 54.0159C116.841 54.7599 117.743 55.4611 118.68 56.1169C117.585 56.7386 116.641 57.5752 115.91 58.5713V58.5426ZM126.66 53.844C127.38 53.9873 128.09 54.1305 128.8 54.3024C127.048 56.347 124.745 57.8957 122.14 58.7814C121.392 57.8314 120.533 56.9663 119.58 56.2029C122.095 55.954 124.517 55.1567 126.66 53.8727V53.844ZM113.18 34.2856C115.42 35.1833 122.32 36.1383 124.81 36.0428C123.35 39.5763 125.04 43.0239 126.08 41.3908C126.37 40.9229 126.87 40.1875 127.68 40.7987C128.15 41.1616 128.33 42.0402 127.51 43.4345C126.643 44.8079 126.199 46.3867 126.23 47.9899C126.098 49.8494 126.071 51.7144 126.15 53.5766C124.006 54.725 121.667 55.501 119.24 55.8686L116.24 53.7485C116.34 52.5357 116.69 51.17 116.24 51.17C115.669 51.1376 115.112 50.9887 114.606 50.7334C114.101 50.478 113.659 50.1222 113.31 49.6898C110.52 46.4905 112.17 38.0674 113.18 34.2856Z" fill="black"/>
<path d="M113.79 38.2584C114.031 38.0785 114.307 37.9475 114.603 37.8736C114.899 37.7997 115.208 37.7844 115.51 37.8287C115.553 37.8237 115.593 37.8054 115.625 37.7765C115.656 37.7477 115.676 37.7099 115.683 37.6689C115.69 37.6278 115.683 37.5858 115.662 37.5492C115.642 37.5125 115.609 37.4833 115.57 37.4658C113.77 37.0647 113.2 38.7264 113.79 38.2584ZM117.38 60.5672C116.58 64.3363 115.783 68.1117 114.99 71.8935C115.449 73.9845 116.119 76.0281 116.99 77.996C117.778 75.7239 118.689 73.4926 119.72 71.311C119.48 68.6561 119.34 62.1716 119.45 60.9588C118.832 60.5932 118.097 60.4541 117.38 60.5672ZM44.9998 36.8832C45.8398 36.7782 44.3698 32.1082 44.6298 36.1765C44.6598 36.4248 44.6298 36.931 44.9998 36.8832ZM44.6398 76.3916C44.6398 76.6781 44.5598 77.6522 45.0398 77.5949C45.8798 77.4898 44.4798 73.1828 44.6398 76.3916ZM45.1498 47.5697C45.1403 47.5322 45.1179 47.4988 45.0862 47.4749C45.0544 47.451 45.0152 47.438 44.9748 47.438C44.9344 47.438 44.8951 47.451 44.8634 47.4749C44.8317 47.4988 44.8092 47.5322 44.7998 47.5697C44.6415 48.3987 44.6212 49.2463 44.7398 50.0813C44.7678 50.1357 44.8171 50.1772 44.8771 50.1969C44.9371 50.2166 45.0027 50.2128 45.0598 50.1864C45.0973 50.1664 45.1311 50.1405 45.1598 50.11C45.3192 49.2698 45.3158 48.4088 45.1498 47.5697ZM44.6698 81.9497C44.7298 82.3412 45.2998 82.3126 45.2798 81.6059C45.1898 79.3712 44.6598 79.333 44.6498 80.4408C44.6098 80.943 44.6098 81.4475 44.6498 81.9497H44.6698ZM44.6398 53.3856C44.598 53.8019 44.6318 54.2219 44.7398 54.6271C44.779 54.6857 44.8399 54.728 44.9103 54.7457C44.9807 54.7634 45.0555 54.7552 45.1198 54.7226L45.2198 54.6271C45.2198 54.5316 45.2198 51.5234 44.7698 52.1441C44.5398 52.4402 44.6398 53.0323 44.6398 53.3856ZM45.0798 65.9057C45.0762 65.883 45.0678 65.8612 45.0552 65.8416C45.0426 65.822 45.026 65.8051 45.0065 65.7917C44.9869 65.7784 44.9647 65.7689 44.9412 65.7639C44.9178 65.7588 44.8935 65.7584 44.8698 65.7624C44.8315 65.7666 44.7958 65.783 44.7685 65.809C44.7413 65.835 44.7241 65.8691 44.7198 65.9057C44.7198 66.3068 44.4398 68.5988 44.9398 68.6465C45.5598 68.7229 45.1398 66.45 45.0798 65.9057ZM45.0498 61.2835C45.0498 61.243 45.0329 61.2041 45.0029 61.1755C44.9729 61.1468 44.9322 61.1307 44.8898 61.1307C44.8473 61.1307 44.8067 61.1468 44.7766 61.1755C44.7466 61.2041 44.7298 61.243 44.7298 61.2835C44.3898 65.5428 45.2798 63.862 45.2798 63.8047C45.259 62.9605 45.1822 62.1184 45.0498 61.2835ZM45.1798 56.8045C45.1798 56.5944 44.8098 56.6326 44.7698 56.8045C44.7298 56.9764 44.4398 60.0515 45.1298 59.2875C45.2968 58.4624 45.3137 57.616 45.1798 56.7854V56.8045ZM44.6598 71.3588V72.3997C44.6598 73.0873 45.5198 73.6316 45.1498 71.0436C45.0498 70.4133 44.6998 70.4897 44.6598 71.3588ZM101.91 109.826C100.383 109.509 98.8954 109.042 97.4698 108.432C97.5398 109.941 97.6198 111.402 97.6998 112.853C100.34 112.787 101.62 112.443 101.91 109.845V109.826ZM139.22 115.594L139.48 111.211C137.13 111.419 134.77 111.509 132.41 111.478C133.38 115.145 135.38 115.499 139.22 115.594ZM143.56 175.244C142.85 161.816 142.48 125.498 142.92 110.819C142.02 110.953 141.04 111.068 140.02 111.163C139.33 133.128 139.02 153.279 140.47 175.501C141.507 175.55 142.547 175.463 143.56 175.244ZM71.7798 85.1967L27.2398 84.5282C25.4398 84.5282 23.6098 84.4231 21.7998 84.5282C21.5898 84.5282 21.6198 84.8433 21.7998 84.8624C24.0098 85.063 29.0698 85.0725 31.5598 85.1203L71.7298 85.7697C72.1198 85.7697 72.1798 85.1967 71.7798 85.1967Z" fill="black"/>
<path d="M132.249 175.387C134.747 175.591 137.256 175.635 139.759 175.52C138.759 155.809 138.379 136.089 139.189 116.311C137.009 116.311 133.409 115.795 132.339 113.665C131.963 112.984 131.786 112.219 131.829 111.45C125.379 111.287 119.319 110.122 117.699 107.238C117.341 107.909 116.766 108.451 116.059 108.785C116.059 109.912 115.879 115.279 116.359 116.129C116.729 116.807 117.549 116.712 118.219 116.826C118.285 116.844 118.342 116.886 118.375 116.943C118.409 117.001 118.418 117.068 118.399 117.132C118.386 117.172 118.363 117.209 118.332 117.239C118.3 117.269 118.262 117.291 118.219 117.304C116.359 117.59 115.529 116.549 115.429 114.897C115.264 112.958 115.264 111.01 115.429 109.072C112.569 110.361 107.489 110.877 102.429 109.931C102.429 112.873 100.339 113.617 97.6792 113.684C99.3792 142.84 103.459 160.794 108.609 175.473C108.779 175.941 119.349 175.836 119.329 175.387C118.549 158.942 118.129 144.512 120.019 130.12L119.019 122.48C116.319 121.372 116.819 120.57 117.269 120.847L118.909 121.802C119.279 121.964 119.589 121.945 119.569 122.394C122.279 140.109 126.629 157.022 132.249 175.387ZM35.6192 78.015C32.7512 77.9097 29.8791 77.9735 27.0192 78.206C26.3792 78.2729 26.2192 78.3397 26.2192 78.9509C26.2192 79.8104 26.2192 81.5962 26.6292 81.367C26.6892 81.5962 33.4092 81.5485 35.2692 81.453C35.7792 81.453 35.8792 81.1378 35.5892 81.0232C35.8192 80.9946 35.8992 78.1296 35.6192 78.015ZM26.6992 81.1665C26.7492 80.3108 26.7492 79.4532 26.6992 78.5975C29.4692 78.5307 32.5492 78.5976 35.2392 78.4161C35.2392 78.7695 35.0892 80.8036 35.3492 80.9946C34.2792 80.9277 26.8692 81.0901 26.6992 81.1665Z" fill="black"/>
<path d="M134.289 55.5632C134.989 58.7558 135.45 61.9919 135.669 65.2469C135.839 67.5676 136.199 66.9755 132.179 67.6631C131.399 67.7968 130.629 67.9687 129.849 68.0642C130.279 68.5608 133.229 71.8842 132.029 71.9988C130.409 74.0616 119.459 81.6729 116.609 83.1914C116.459 84.1464 116.349 85.0345 116.289 85.9704C116.152 85.9758 116.017 86.0082 115.893 86.0657C115.769 86.1233 115.659 86.2046 115.569 86.3047C115.579 85.1848 115.68 84.0673 115.869 82.9622C111.169 79.782 106.699 72.61 105.979 70.8146C105.639 69.9742 107.429 68.8186 107.979 68.3029C106.779 67.3479 103.699 66.0873 103.849 65.6194C104.925 62.5677 106.385 59.6525 108.199 56.9384C107.069 57.5979 105.962 58.2922 104.879 59.0203C104.459 43.6448 104.469 27.7918 103.499 12.4832H106.089C106.539 12.4832 106.509 11.3754 106.089 11.3754H103.389C97.1994 10.3249 91.0094 9.28393 84.8494 8.06153C75.2594 6.15154 65.4994 3.82134 55.9194 2.11189V0.975435C55.9194 0.727135 54.8594 0.698485 54.8594 0.975435V2.03549C41.2494 5.41619 27.4694 8.24298 13.7694 11.1366C12.0173 11.4162 10.2816 11.7827 8.56941 12.2349L5.23941 12.3017C4.86941 12.3017 4.87941 13.2567 5.23941 13.2567H8.69941C8.19941 38.8316 8.14941 64.3874 7.93941 89.9432C7.93941 90.4971 7.67941 94.8328 8.18941 94.8328C13.9494 94.9474 54.4494 94.8328 54.4494 94.8328C54.4494 120.083 54.4161 145.336 54.3494 170.593C46.1994 174.709 34.9994 180.449 33.1294 181.509C32.7894 181.595 3.89941 181.509 0.189414 181.595C-0.0305859 181.595 -0.0305859 181.996 0.189414 181.996C5.03941 182.158 149.319 182.225 149.319 182.225C149.719 182.225 149.799 181.585 149.399 181.585H142.779C142.556 179.749 142.172 177.935 141.629 176.161C139.352 176.38 137.057 176.38 134.779 176.161C133.189 176.705 126.909 179.026 126.659 181.556H119.529C119.359 179.786 119.004 178.036 118.469 176.333C116.017 176.874 113.475 176.929 110.999 176.495C109.929 176.858 103.829 178.968 103.379 181.575H78.5094C77.9094 181.002 56.4594 171.004 56.0994 170.889V94.8615H96.1594C95.7994 99.6365 95.6494 107.124 95.8794 107.219C106.189 111.412 116.109 109.731 117.369 106.57C114.949 103.39 115.139 94.957 115.159 93.3717C115.351 93.6646 115.576 93.9368 115.829 94.1834C115.699 97.0484 115.699 105.892 119.739 108.442C124.019 111.154 137.979 111.412 144.029 109.95C144.089 107.219 143.949 103.686 143.819 101.843C138.499 101.439 133.22 100.64 128.029 99.455C127.479 99.3404 123.689 98.6719 123.629 98.2422C123.569 97.8124 123.499 97.2299 123.459 96.7142L121.459 96.2844C121.451 93.8561 121.706 91.4334 122.219 89.0551L123.759 88.9978C123.839 88.5012 123.759 87.5939 124.369 87.5939C125.842 87.1299 127.345 86.7598 128.869 86.4861C131.423 85.9704 133.969 85.477 136.509 85.0059C135.852 82.4341 135.417 79.8149 135.209 77.1749C135.209 76.8693 135.669 76.7929 135.699 77.0985C136.027 79.7264 136.542 82.33 137.239 84.8913C140.157 84.3093 143.109 83.8979 146.079 83.6593C146.131 83.6698 146.177 83.6968 146.21 83.7359C146.244 83.775 146.262 83.8239 146.262 83.8742C146.262 83.9246 146.244 83.9734 146.21 84.0125C146.177 84.0516 146.131 84.0786 146.079 84.0891C138.939 84.6334 131.579 86.4861 124.579 88.0714C123.968 91.3318 123.79 94.6528 124.049 97.9557C128.507 99.0736 133.028 99.9504 137.589 100.582C145.029 101.451 156.039 103.18 157.589 93.3717C160.049 78.7506 147.999 61.5033 134.289 55.5632ZM54.3494 181.528H35.9994C42.0894 178.348 48.2494 175.492 54.3994 172.188L54.3494 181.528ZM100.059 11.3563L56.0594 11.786C56.0594 8.68228 55.9894 6.05604 55.9294 2.93319C70.1794 6.05604 85.5994 8.92103 100.059 11.3563ZM54.8294 3.00004C54.7694 6.09423 54.7094 8.73003 54.6694 11.8051C39.8994 11.9388 26.0094 11.977 11.2394 12.2349C26.0894 9.46538 54.8294 3.00004 54.8294 3.00004ZM75.5894 181.585H55.9994V172.283C61.8094 175.463 69.4294 178.882 75.5894 181.537V181.585ZM102.819 68.2265C98.8194 76.1721 96.9294 85.4929 96.1994 94.2885C67.1994 94.2885 37.6394 93.62 8.71941 94.2216C8.88941 92.1493 8.56941 88.7304 8.58941 86.5052C8.78941 62.0763 9.63941 37.8002 9.53941 13.3331C21.4194 13.3331 102.639 12.5118 102.639 12.5118C103.189 26.9896 104.259 58.7625 104.329 59.4501C98.6492 63.3292 93.5402 67.9192 89.1394 73.097C91.0307 73.4244 92.8979 73.8678 94.7294 74.4245C94.7906 74.4498 94.8393 74.4967 94.8654 74.5553C94.8914 74.614 94.8929 74.68 94.8694 74.7396C94.8471 74.7927 94.8055 74.8364 94.7523 74.8627C94.699 74.889 94.6377 74.8962 94.5794 74.8829C90.7894 74.0234 76.9194 71.2157 70.5794 71.8746C70.4294 71.8746 70.4594 72.1229 70.5094 72.419C69.9173 72.3033 69.3099 72.2776 68.7094 72.3426C66.9594 70.0888 65.1094 67.5676 62.0794 69.4776C60.7294 67.0519 49.1494 45.8986 48.6994 45.8604C48.1394 45.0773 47.4894 45.8604 47.8594 46.5194L60.8094 71.4449C59.8094 72.2662 59.6594 73.5363 60.5094 73.8037C59.9894 74.8351 60.7094 76.0575 61.0694 75.9143C60.6794 77.8243 63.6494 79.591 64.9794 79.3523C65.1594 79.677 65.9794 81.3482 66.3294 81.3291C66.522 81.4733 66.761 81.5494 67.0057 81.5445C67.2504 81.5396 67.4858 81.4539 67.6719 81.302C67.858 81.1502 67.9833 80.9415 68.0266 80.7115C68.0699 80.4814 68.0285 80.2441 67.9094 80.0399L68.7494 80.4696C68.5094 80.8516 68.3694 81.0522 68.4394 81.1286C72.5694 85.7317 82.8294 91.433 86.7594 92.0156C89.9394 92.4835 93.6794 92.579 95.5494 92.0729C96.4094 84.2132 98.3794 74.9784 102.349 67.9496C102.364 67.92 102.385 67.8935 102.411 67.8717C102.437 67.8498 102.467 67.8331 102.499 67.8224C102.532 67.8118 102.566 67.8074 102.601 67.8096C102.635 67.8117 102.669 67.8204 102.699 67.835C102.732 67.8492 102.761 67.8696 102.784 67.8948C102.808 67.9201 102.826 67.9498 102.837 67.982C102.849 68.0143 102.853 68.0484 102.85 68.0822C102.847 68.116 102.836 68.1489 102.819 68.1788V68.2265ZM65.2994 74.1762C65.2353 74.0604 65.1408 73.9625 65.025 73.8921C64.9093 73.8218 64.7764 73.7815 64.6394 73.7751C64.7513 73.708 64.8467 73.6186 64.9191 73.5132C64.9916 73.4077 65.0394 73.2886 65.0594 73.1639C65.4394 73.5554 65.5494 73.2976 65.4394 73.1639C64.9194 72.4476 64.4394 70.4612 64.0194 70.6427C63.6294 70.509 62.4294 70.891 61.7694 70.8337C61.5094 70.8337 61.3094 70.6713 61.5094 70.4039C62.2647 69.6178 63.3053 69.1363 64.4194 69.0574C65.8994 69.3057 67.7294 71.6741 68.5094 72.7437C69.3794 74.9593 67.9094 78.3495 67.3094 78.913L65.1994 74.9879C65.2927 74.8745 65.3514 74.7387 65.3691 74.5955C65.3867 74.4523 65.3626 74.3072 65.2994 74.1762ZM61.0594 70.7764L48.1294 46.1183C48.1294 45.5453 48.5594 46.0419 48.7494 46.3379C49.8694 48.4867 61.7494 69.7354 61.7494 69.7354C61.5549 69.8428 61.3905 69.9935 61.2703 70.1748C61.1501 70.3561 61.0778 70.5625 61.0594 70.7764ZM61.3894 71.5786C61.9794 71.2825 63.6694 70.7955 64.0894 71.5213C64.1394 71.7505 64.1894 71.9701 64.2294 72.1993C63.5674 72.0828 62.8845 72.1464 62.2586 72.3828C61.6326 72.6192 61.0889 73.019 60.6894 73.5363C60.0794 72.8678 60.6794 71.9128 61.3894 71.5786ZM60.7894 74.1475C61.1594 73.1925 63.2994 72.0656 64.2694 72.6291C65.2394 73.1925 63.9994 73.5841 63.8194 73.8228C63.23 73.861 62.6648 74.0618 62.1926 74.4008C61.7204 74.7399 61.3614 75.2026 61.1594 75.7328C60.9459 75.5298 60.7976 75.2727 60.732 74.9918C60.6664 74.7109 60.6864 74.418 60.7894 74.1475ZM62.9994 74.4054C63.4194 74.2526 65.5294 73.7655 64.8294 74.8351C63.8294 74.9211 62.9794 75.6469 63.4794 76.5828C63.8994 77.3659 64.3294 78.149 64.7694 78.9225C61.9394 78.6265 59.8494 75.5227 62.9994 74.4054ZM63.6994 75.857C63.8001 75.6771 63.9426 75.5216 64.1159 75.4025C64.2893 75.2833 64.4888 75.2036 64.6994 75.1694C65.0694 75.857 67.5794 80.3168 67.5794 80.6702C67.5794 81.0235 66.7594 81.3196 66.5794 80.9949C65.5661 79.3077 64.5994 77.5951 63.6794 75.857H63.6994ZM67.4694 79.1613C69.0194 78.0726 69.4694 74.7014 69.0194 72.6577L70.6694 72.8869C70.9064 75.3974 70.3229 77.9163 68.9994 80.0972C68.6794 79.9062 67.5994 79.4478 67.4494 79.1613H67.4694ZM121.159 95.1384C119.809 95.062 118.449 95.3294 116.989 94.5081C115.909 93.8969 114.799 92.5981 115.159 91.3853C115.559 91.901 115.759 91.4521 115.609 91.2898C115.336 91.0053 115.149 90.6545 115.07 90.2756C114.99 89.8967 115.021 89.5042 115.159 89.141C115.489 89.7809 115.809 89.4084 115.689 89.2079C115.199 88.3388 115.089 86.7822 116.259 86.3429C116.169 88.5394 118.689 88.8545 118.509 88.2529C118.509 88.2529 117.509 84.0795 118.639 84.2896C119.189 85.703 119.939 88.7877 121.639 89.2174C121.252 91.1684 121.085 93.1534 121.139 95.1384H121.159Z" fill="black"/>
<path d="M20.3395 83.3152C28.0195 72.8102 37.8295 56.8139 44.2495 45.7072C44.4919 45.8503 44.7714 45.9254 45.0563 45.9241C45.3412 45.9227 45.62 45.8449 45.8608 45.6996C46.1017 45.5542 46.2949 45.3471 46.4184 45.1019C46.542 44.8568 46.5909 44.5834 46.5595 44.3129C54.3395 46.2229 62.4495 47.3403 70.3095 49.0115C70.4595 51.0075 73.3995 50.2435 72.9495 48.6105C79.4695 42.3265 86.4896 35.6416 92.8596 29.415L93.0995 29.5104C93.4749 29.6288 93.884 29.6009 94.2379 29.4328C94.5918 29.2647 94.8619 28.97 94.9895 28.6128C95.1198 28.2774 95.1101 27.9071 94.9624 27.5784C94.8148 27.2496 94.5405 26.9877 94.1964 26.8466C93.8522 26.7056 93.4644 26.6963 93.1132 26.8206C92.7621 26.9449 92.4743 27.1933 92.3095 27.5145C92.1678 27.7695 92.1082 28.0588 92.1385 28.3461C92.1688 28.6333 92.2874 28.9056 92.4796 29.1284C86.0396 35.3646 78.8795 41.7822 72.7695 48.2284C72.608 48.0167 72.3857 47.8542 72.1295 47.7605C71.7872 47.6425 71.41 47.6574 71.0791 47.802C70.7481 47.9466 70.4898 48.2095 70.3595 48.534C66.3595 47.7605 48.3596 43.9978 46.4796 43.9309C45.7496 41.8681 42.3495 43.654 43.8195 45.373C36.2895 58.4183 28.2295 70.4895 19.9995 83.0955C19.6728 82.9452 19.3026 82.9041 18.9484 82.9785C18.5942 83.053 18.2764 83.2388 18.0459 83.5063C17.8154 83.7737 17.6856 84.1073 17.6772 84.4536C17.6688 84.7998 17.7823 85.1388 17.9995 85.4162C19.3295 87.2211 22.1395 84.8718 20.3395 83.3152ZM93.5195 20.4188C93.1495 20.4666 93.2796 20.9536 93.2996 21.1924C93.7196 25.2225 94.4195 20.3329 93.5195 20.4188Z" fill="black"/>
<path d="M71.789 38.8886C71.179 38.8313 71.589 41.1042 71.649 41.639C71.6526 41.6617 71.6609 41.6835 71.6735 41.7031C71.6861 41.7227 71.7027 41.7396 71.7223 41.753C71.7419 41.7663 71.764 41.7758 71.7875 41.7808C71.811 41.7859 71.8353 41.7863 71.859 41.7823C71.8973 41.7782 71.933 41.7617 71.9602 41.7357C71.9875 41.7097 72.0047 41.6756 72.009 41.639C71.999 41.2284 72.289 38.9746 71.789 38.8886ZM71.999 46.2994C72.339 42.0497 71.449 43.7209 71.449 43.7782C71.4705 44.6192 71.5473 45.4581 71.679 46.2899C71.6776 46.3304 71.6932 46.3697 71.7223 46.3993C71.7514 46.4289 71.7915 46.4462 71.834 46.4474C71.8764 46.4487 71.9176 46.4338 71.9486 46.4061C71.9795 46.3783 71.9976 46.3399 71.999 46.2994ZM71.689 29.8734C71.319 29.9212 71.449 30.4082 71.479 30.647C71.929 34.6771 72.589 29.7875 71.689 29.8734ZM93.329 24.2198C93.069 26.5596 93.999 26.7697 93.879 25.0411C93.879 24.6687 93.759 24.2962 93.709 23.9238C93.709 23.7614 93.389 23.6277 93.329 24.2198ZM83.569 25.3658C85.429 25.5473 89.409 25.4327 89.649 25.4231C91.149 25.4231 90.999 25.4231 90.889 24.0479C90.889 23.3221 90.789 22.5295 90.439 22.625L82.929 22.4722C82.339 22.3194 82.559 23.2553 82.589 23.8569C82.649 24.9456 82.249 25.2321 83.569 25.3658ZM83.079 22.8733L90.409 23.0834L90.469 24.917H83.069L83.079 22.8733ZM71.589 23.0452C71.6028 23.0878 71.6336 23.1236 71.6747 23.145C71.7157 23.1664 71.7639 23.1717 71.809 23.1598C71.8384 23.1515 71.8654 23.1368 71.888 23.1169C71.9105 23.0971 71.928 23.0725 71.939 23.0452C72.0918 22.2157 72.1121 21.3688 71.999 20.5335C71.9861 20.5046 71.9671 20.4784 71.9432 20.4568C71.9193 20.4351 71.891 20.4184 71.8601 20.4077C71.8291 20.3969 71.7962 20.3924 71.7633 20.3943C71.7304 20.3962 71.6983 20.4046 71.669 20.4189C71.6327 20.4367 71.6017 20.463 71.579 20.4953C71.4337 21.33 71.4337 22.1818 71.579 23.0165L71.589 23.0452ZM71.779 25.213C71.289 25.213 71.479 26.1203 71.499 26.3781C71.679 29.883 72.719 25.2321 71.779 25.213ZM31.739 42.8519C31.739 42.9951 32.009 43.0142 32.419 43.0142C34.169 43.0142 40.489 43.4917 40.599 42.8232C40.959 42.8232 40.829 40.7509 40.779 40.3498C41.229 39.3279 32.679 40.0824 32.059 40.0346C31.779 39.9582 31.649 40.2543 31.699 40.6936C31.779 41.4385 31.699 42.5081 31.739 42.8519ZM32.169 40.4453C34.869 40.4453 37.739 40.5121 40.429 40.4453V42.6513C37.609 42.7564 34.879 42.6513 32.129 42.7277C32.1827 41.968 32.1961 41.2062 32.169 40.4453ZM18.749 23.2362C18.599 30.7138 18.659 69.8115 18.679 81.8827C18.679 82.2647 19.309 82.3125 19.309 81.8827C19.309 74.1281 19.399 34.9922 19.139 23.1789C19.439 23.1789 20.489 23.1311 20.699 22.8064C20.909 22.4817 19.439 18.7668 19.219 18.2129C19.139 18.0219 18.879 18.1556 18.839 18.2893C18.359 19.8077 17.839 21.2975 17.419 22.8351C17.299 23.303 18.439 23.2457 18.749 23.2362ZM72.069 36.1096V35.0591C72.069 34.381 71.209 33.8271 71.579 36.4247C71.679 37.0646 71.999 37.0646 72.069 36.1096ZM44.659 41.2761C44.719 41.6677 45.299 41.6295 45.269 40.9228C45.179 38.6881 44.649 38.6499 44.639 39.7672C44.599 40.2695 44.599 40.7739 44.639 41.2761H44.659ZM44.999 23.389C45.549 23.3412 45.119 20.9633 44.999 20.524C44.999 20.3616 44.689 20.3234 44.679 20.524C44.679 21.3835 44.659 22.243 44.619 23.1025C44.6173 23.1475 44.6267 23.1922 44.6465 23.2331C44.6662 23.274 44.6959 23.3098 44.7329 23.3378C44.7699 23.3657 44.8133 23.3848 44.8595 23.3937C44.9057 23.4026 44.9535 23.401 44.999 23.389ZM44.649 30.6661V31.7357C44.649 32.4137 45.509 32.9485 45.139 30.37C44.999 29.7111 44.689 29.7684 44.649 30.6661ZM44.929 27.9443C45.549 28.0016 45.129 25.7287 45.069 25.1844C45.069 25.1388 45.05 25.095 45.0162 25.0628C44.9825 25.0306 44.9367 25.0125 44.889 25.0125C44.8412 25.0125 44.7954 25.0306 44.7617 25.0628C44.7279 25.095 44.709 25.1388 44.709 25.1844C44.709 25.6046 44.429 27.8966 44.929 27.9443Z" fill="black"/>
</svg>
