<svg width="184" height="180" viewBox="0 0 184 180" fill="none" xmlns="http://www.w3.org/2000/svg">
<path d="M64.9538 163.324C43.0608 164.373 6.88481 166.885 6.80781 168.462C6.73181 170.011 12.9578 167.476 55.0098 165.123C57.7748 164.968 60.5828 164.831 63.4168 164.706C63.8348 164.313 64.3348 163.865 64.9538 163.324Z" fill="black"/>
<path d="M112.885 162.517C113.165 162.838 113.455 163.174 113.768 163.549C113.833 163.627 113.887 163.697 113.951 163.774C146.74 163.808 173.576 164.813 174.202 164.536C177.718 162.983 143.229 162.486 112.885 162.518V162.517Z" fill="black"/>
<path d="M157.016 42.5136C156.835 42.4985 156.602 42.476 156.34 42.4497C156.593 45.5282 156.799 49.0889 156.984 52.6045C156.772 64.7267 158.545 118.442 154.59 118.985C143.853 120.458 105.48 121.98 100.696 122.226C79.2599 123.325 38.6569 123.424 17.0099 121.679C10.3119 121.138 11.0129 121.507 10.8559 117.577C8.11691 49.1086 11.7969 36.4694 11.8159 35.5031C11.8379 34.3685 12.1209 32.0627 12.5609 30.9798C12.7339 30.554 12.9989 30.2156 13.5709 30.1432C15.0479 29.9571 13.5379 29.5754 25.6869 28.6815C52.8219 26.6821 94.964 24.3716 127.968 26.3117C127.308 23.6525 127.241 20.871 127.762 18.1507C86.7039 16.1043 18.1539 18.098 7.19491 23.7643C5.11991 24.8369 4.66591 26.3371 4.02391 28.0009C-1.31007 41.8368 0.813928 122.929 4.12891 136.558C4.87691 139.634 5.29491 141.295 7.18491 142.591C9.46991 144.159 16.0609 144.961 17.3099 145.008C18.1849 145.041 21.2549 145.659 24.9489 146.107C27.9249 146.468 32.7979 146.697 32.9359 146.714C42.1759 147.789 53.1559 147.834 70.3959 148.055C70.9069 148.062 70.8549 148.004 70.6749 150.251C69.9929 158.748 70.5979 158.888 69.5029 159.409C62.1549 165.712 62.9859 164.906 59.5259 169.129C58.5259 170.35 57.2559 172.125 57.3399 173.536C57.3869 174.321 57.4729 176.867 57.8179 177.534C59.1489 180.107 83.2109 179.173 86.6199 178.956C93.991 178.486 111.234 178.41 117.671 177.034C118.28 176.904 118.644 176.576 118.848 176.036C119.221 175.051 119.546 172.049 119.03 171.124C118.037 169.338 116.652 167.012 113.766 163.549C106.631 154.99 108.161 161.22 107.17 154.362C106.14 147.231 106.207 147.603 106.559 147.609C106.333 147.616 142.015 146.054 156.171 142.849C158.567 142.307 160.842 141.749 162.157 139.402C167.127 130.53 167.751 67.8447 165.91 41.5209C163.638 42.099 163.208 42.1122 157.014 42.5136H157.016ZM107.883 164.049C108.172 164.811 108.368 164.83 108.683 164.805C109.533 164.737 108.826 163.119 108.05 159.539C111.503 162.374 115.261 167.645 117.541 170.707C118.375 171.828 116.153 171.684 102.275 172.499C102.083 172.51 65.6369 174.099 60.0239 173.39C57.5609 173.079 57.4559 173.499 63.4359 166.386C65.1539 164.341 69.1059 160.953 69.9209 160.455C70.3009 160.224 69.9389 160.833 69.7339 164.986C69.7059 165.562 70.2389 166.041 70.3999 165.653C71.6739 162.579 72.1869 151.345 72.0229 151.345C72.0229 148.033 71.8969 148.059 72.3259 148.058C87.2639 148.023 73.3229 148.573 98.326 147.917C104.562 147.753 102.413 147.873 104.562 147.715C104.855 147.693 104.76 147.87 104.874 148.977C105.53 155.348 107.228 162.317 107.884 164.048L107.883 164.049ZM161.242 138.187C160.116 140.897 158.236 141.267 149.868 142.904C144.673 143.92 112.488 146.03 112.464 146.032C109.235 146.3 83.9729 146.926 83.9719 146.892C38.9889 146.892 30.0369 145.021 20.7759 144C10.2959 142.845 7.27291 142.904 6.05491 138.496C5.47591 136.4 4.52491 132.852 4.47191 130.688C4.44391 129.5 4.19791 129.052 4.57791 129.196C9.04991 130.882 73.9689 131.352 103.602 130.381C118.977 129.877 115.342 129.639 128.314 129.13C155.464 128.063 159.915 126.481 163.343 126.475C163.428 129.641 162.272 135.704 161.24 138.188L161.242 138.187Z" fill="black"/>
<path d="M109.916 54.259C109.486 50.0469 107.923 42.4771 102.296 38.5601C102.642 37.8767 102.347 37.0486 101.628 36.7008C99.0825 35.4712 90.1085 31.6135 81.5445 33.5837C73.4515 35.4449 68.0755 40.019 66.1395 41.899C65.5375 42.4846 65.5865 43.4218 66.2395 43.9501C66.3305 44.0234 66.4265 44.1005 66.5245 44.1794C63.9615 48.3229 63.4855 53.57 65.0065 60.6604C65.1085 61.1351 65.1405 61.2902 65.3335 61.3852C65.5535 61.4942 65.8015 61.3711 66.1275 61.2376C66.5795 61.0534 66.5605 60.8823 66.4365 60.4151C65.2505 55.92 65.2795 49.0702 67.6665 45.0752C68.3955 45.628 69.2425 45.5011 69.7535 44.9991C71.4125 43.3691 76.0595 39.4522 83.3545 38.2706C90.6825 37.0843 97.1485 39.4766 99.5875 40.5595C100.332 40.8885 101.201 40.6074 101.569 39.9184L101.589 39.8808C105.707 43.0646 108.204 49.3973 108.257 53.8953C108.267 54.6576 108.723 54.5946 109.687 54.5147C109.824 54.5034 109.927 54.3888 109.914 54.2581L109.916 54.259ZM100.017 39.7106C97.4915 38.5892 90.7985 36.1133 83.1865 37.3456C75.5985 38.5742 70.7605 42.6538 69.0325 44.3505C68.8545 44.5253 68.5595 44.5441 68.3595 44.3918C67.9065 44.0497 67.3415 43.5994 66.8925 43.2366C66.6735 43.0599 66.6575 42.7469 66.8595 42.5513C71.7835 37.7696 79.5425 33.9701 86.6225 33.9701C93.1795 33.9701 99.1875 36.5776 101.172 37.5355C101.415 37.653 101.513 37.935 101.39 38.1634L100.679 39.4954C100.556 39.7247 100.267 39.8188 100.018 39.7088L100.017 39.7106Z" fill="black"/>
<path d="M40.3934 84.1069C40.2444 84.8025 39.6974 84.6991 39.5314 84.2075C38.7804 81.9853 39.1144 81.1675 36.9494 79.6523C36.7164 79.4896 35.6164 78.7029 35.4834 78.4274C35.3164 78.0825 35.7204 77.7384 36.0214 77.87C38.9904 79.1738 41.0384 81.0858 40.3934 84.1069Z" fill="black"/>
<path d="M103.256 59.303C103.011 64.1741 103.044 64.661 98.2783 65.6978C92.5633 66.9405 92.9243 66.2045 91.8174 63.5668C90.8354 61.2253 91.2204 60.5551 90.6474 60.3502C90.2384 60.2045 90.3134 59.836 89.1404 59.7429C86.7274 59.5521 86.0864 60.1565 84.5944 61.4631C84.4214 61.6145 84.4954 62.655 84.5104 62.7913C84.7144 64.6525 84.5584 65.4656 84.4854 66.5588C84.3664 68.3298 82.2934 68.688 80.2864 68.8901C76.6024 69.2614 75.0144 70.2211 73.4544 66.1293C72.8964 64.6666 71.3164 60.8051 72.7434 60.0221C74.7894 58.8997 80.7864 57.6533 81.0294 57.6166C85.2754 56.9859 83.7874 59.945 84.6044 59.3152C87.8114 56.8449 89.7414 58.4617 90.1264 58.269C90.3254 58.1693 89.6444 56.4802 91.5154 55.8128C92.6173 55.4198 93.2763 55.2854 97.9303 54.6462C103.172 53.9262 103.028 54.7196 103.256 59.303ZM101.57 59.2391C101.402 55.3541 101.928 55.8241 98.7103 56.1098C98.6863 56.1117 93.0803 56.8148 92.3193 57.1006C91.7934 57.298 91.9194 57.6242 92.1963 58.6572C93.0023 61.6605 93.7003 64.8819 94.8893 64.676C99.7903 63.8282 99.4143 63.784 100.44 63.4785C101.331 63.2124 101.25 62.5178 101.57 59.2391ZM82.7874 63.658C82.7524 62.3843 82.9584 62.8082 82.4324 59.3641C82.3494 58.8189 81.8734 58.6619 74.2404 60.8625C73.6524 61.0317 73.4134 61.0909 73.6784 61.9378C75.4824 67.6991 75.8174 68.0422 78.1124 67.5966C83.1204 66.6228 82.9044 67.92 82.7874 63.658Z" fill="black"/>
<path d="M94.3288 80.706C93.3638 82.4572 91.2499 82.8417 90.5109 82.4102C89.9869 82.1038 90.4189 81.7908 91.0139 81.6958C93.6197 81.2804 94.2787 78.2996 94.0687 75.8227C93.3687 76.3736 91.5018 78.5816 88.1419 78.0449C87.6239 77.9622 87.0899 77.1143 88.6509 77.1566C90.4059 77.2045 92.2888 76.3209 93.1247 74.8103C93.5827 73.9822 93.6037 73.515 94.2827 73.4229C95.9967 73.1898 95.6148 78.3711 94.3288 80.706Z" fill="black"/>
<path d="M87.6246 62.2178C88.4056 62.3597 87.4996 63.5808 87.3916 67.1453C87.3676 67.9509 87.4946 68.7574 87.7516 69.5225C88.7466 72.4864 92.4765 69.1794 93.6205 69.3552C95.7645 69.6842 87.7846 75.3618 86.2116 69.8337C85.6516 67.8663 86.6896 62.0486 87.6256 62.2187L87.6246 62.2178Z" fill="black"/>
<path d="M96.1705 50.3298C96.5355 50.9803 95.6495 51.3187 95.1145 51.1805C93.7215 50.8196 92.4415 50.5338 91.1817 50.7143C90.6347 50.7923 90.0207 50.2593 90.4597 49.7273C91.3117 48.6942 95.5215 49.1736 96.1705 50.3298Z" fill="black"/>
<path d="M78.5536 51.217C79.5576 51.1643 79.6856 51.8459 79.0876 52.2773C78.0676 53.0133 77.4256 52.9005 75.9636 54.4064C75.5956 54.7862 75.2946 55.1048 74.8156 54.836C73.4936 54.0934 76.3246 51.3335 78.5536 51.217Z" fill="black"/>
<path d="M97.0225 60.5502C97.0115 59.3884 95.7525 58.9654 95.0945 59.881C94.6695 60.4675 95.0345 61.714 95.9915 61.714C96.5845 61.714 97.1045 61.1894 97.0225 60.5502Z" fill="black"/>
<path d="M78.8739 62.5671C78.6669 63.0183 78.8339 63.8473 79.1929 64.15C79.5979 64.4922 80.2829 64.4743 80.5569 63.9818C81.4609 62.3603 79.4389 61.3244 78.8739 62.5671Z" fill="black"/>
<path d="M147.405 110.61L146.66 111.526C150.994 114.951 152.713 117.112 153.443 116.733C154.321 116.278 150.675 113.173 147.405 110.61Z" fill="black"/>
<path d="M134.241 102.004C120.313 94.9291 107.11 93.598 106.737 90.4133C106.734 90.3898 106.362 88.6095 106.29 87.4138C106.125 84.6577 106.477 84.7113 107.133 79.4266C107.154 79.2593 107.777 74.2933 107.892 74.1645C107.899 74.157 109.6 73.8007 109.958 73.7133C110.649 73.545 111.315 73.2856 112.047 73.2734C112.235 73.2696 112.427 73.1671 112.605 73.0872C116.66 71.2712 116.185 69.7954 116.022 65.0371C116.022 65.0145 115.566 60.8917 115.463 60.4677C115.068 58.8509 114.739 57.2962 113.71 56.1033C112.361 54.5382 111.485 54.2271 110.61 54.0513C109.88 53.9047 107.758 53.6151 107.038 53.7984C105.727 54.1321 107.191 50.5752 103.175 45.5528C98.8897 40.1938 92.9187 39.9786 88.7788 39.4813C88.5288 39.4512 88.2668 39.5368 88.0088 39.5471C87.5518 39.5668 87.3098 39.2773 87.2588 39.0263C86.4088 34.802 86.8458 34.7597 86.6918 32.9633C86.6278 32.216 85.8458 32.295 85.2668 32.8111C83.3848 34.489 83.6288 34.3771 82.5438 36.0409C81.9628 36.932 81.9848 36.6124 82.0488 32.248C82.0618 31.3691 81.3238 31.1896 80.8388 31.575C80.2437 32.0478 79.6058 32.4764 79.0408 32.9784C77.8478 34.0368 76.3078 35.7871 76.0598 37.6756C75.9148 38.7829 75.6228 40.3019 76.2038 41.9065C76.5048 42.7375 76.3248 42.0466 73.7348 43.8382C72.0928 44.9747 70.1838 47.2119 69.9248 47.5634C64.3748 55.0853 68.6608 59.32 67.5818 59.6678C65.8058 60.2412 65.0767 60.4865 64.0888 60.9603C61.0098 62.4352 60.7578 66.244 61.5028 69.4664C62.0798 71.9621 62.8688 75.425 64.0108 77.5165C66.3078 81.724 73.1528 78.4763 73.7668 79.6419C75.4768 82.8867 76.7318 84.7479 79.8108 86.925C80.2548 87.2389 80.6438 87.63 81.1867 87.8152C81.3378 87.8669 81.3428 87.9844 81.2858 88.1404C79.8538 92.0696 80.6688 91.8092 79.6198 91.9803C70.0648 93.5416 50.9888 99.2174 44.4118 103.085C40.2888 105.51 40.3608 105.565 40.3948 105.28C40.6038 103.562 41.9398 96.3494 43.0368 93.2672C43.0848 93.1318 44.4758 89.2919 44.9038 88.9187C49.8108 84.637 49.4038 85.671 52.3888 78.4706C53.8178 75.0236 54.2078 74.5696 54.1288 73.7509C54.0188 72.6097 52.6638 72.8287 51.8338 73.6663C49.9218 75.5952 49.6178 76.8566 48.7798 78.1144C48.5768 78.4189 48.3538 78.3982 47.6468 78.4951C47.2318 78.5524 47.4488 78.1745 47.3448 77.5541C46.5058 72.5392 48.9028 70.8369 50.3488 64.2522C50.5618 63.2849 49.1288 61.8975 47.8058 63.7239C44.4528 68.3506 43.5358 73.4162 42.8468 72.7122C42.7718 72.6351 42.6938 72.5261 42.6908 72.4292C42.6568 71.1913 43.0658 67.7997 43.0708 67.7762C43.2388 67.0496 43.5078 61.8618 42.9218 60.9312C42.2128 59.8032 40.9898 60.2431 40.5588 61.3965C38.8458 65.9846 39.4238 64.9572 38.3558 70.9478C38.3158 71.1725 38.2398 71.227 37.9398 71.2599C37.7388 71.2815 37.5748 71.2552 37.5208 71.0427C36.0848 65.461 36.9188 63.4927 35.3468 62.3938C34.6978 61.9407 33.7628 62.1005 33.5148 62.8563C32.6498 65.4902 33.2638 67.2545 33.6418 71.101C33.8088 72.8043 33.8028 72.7893 33.5968 72.8823C33.1278 73.0938 33.1378 72.7893 29.4008 67.2489C28.4978 65.9103 27.4338 66.0673 27.0788 66.8127C26.3878 68.2594 29.1818 73.6052 30.1048 74.8009C30.6278 75.4786 30.5468 75.8903 30.7658 78.1266C31.4248 84.8805 34.1518 86.6881 33.8758 87.2718C33.6588 87.7306 33.5798 88.2391 33.2558 88.6612C30.1658 92.6834 31.4018 91.8525 25.0268 97.5094C22.3118 99.9186 16.2588 104.77 13.6368 109.137C13.3048 109.689 13.7548 110.036 14.3038 109.643C14.3658 109.599 15.4578 108.579 15.9058 108.109C26.3728 97.1315 30.0298 97.0497 34.9148 87.6883C35.3408 86.8714 34.9608 86.1467 34.4078 85.3918C32.4818 82.7636 32.3618 79.8985 32.1888 78.7733C31.5368 74.5358 30.1768 73.4125 27.9678 68.0056C27.6858 67.3147 28.1288 66.9866 28.3098 67.1859C29.0478 68.0047 28.4128 67.1267 30.6758 70.6338C33.0028 74.2397 32.8348 74.2594 34.3868 73.5836C35.7788 72.9773 33.4558 66.0081 34.3458 63.1684C34.4498 62.8384 34.5438 62.8149 34.8468 62.9832C36.0898 63.6722 35.8158 69.3291 36.7228 71.7252C36.8828 72.1482 37.3538 72.261 37.8158 72.2243C38.1268 72.1999 38.4288 72.073 38.7328 71.9846C38.9568 71.9198 39.1138 71.7797 39.1818 71.5663C39.8478 69.4739 40.6648 61.1314 41.8278 61.5318C42.9938 61.9332 42.1558 65.9592 41.7148 70.8651C41.4898 73.3711 41.4048 73.4454 43.3438 73.7631C43.9928 73.8693 44.2168 72.2375 48.1248 64.9017C48.5638 64.0773 49.2128 63.7831 49.2058 64.7062C49.1928 66.4236 45.8698 72.0241 45.9508 76.0172C45.9528 76.1375 45.9398 76.02 46.3958 78.5063C46.5108 79.1305 46.1548 78.4481 43.4308 80.6025C42.1188 81.6403 42.1718 82.554 42.7238 82.2306C43.3178 81.8838 43.9268 81.5538 44.4828 81.159C47.9798 78.6765 48.9278 80.2623 49.7758 78.6614C51.0768 76.2052 51.4478 75.7653 52.8288 74.1748C52.8768 74.1194 53.0008 74.1212 53.0888 74.0968C53.2578 74.6448 52.1488 76.6301 51.4088 78.5355C48.0868 87.0857 44.4218 86.5358 43.2978 89.5955C42.1108 92.8272 41.3898 94.4281 39.5608 103.25C39.5548 103.276 36.0828 120.851 36.0718 121.219C36.0508 121.889 36.5908 122.077 36.9008 121.39C37.3508 120.391 38.3318 116.217 38.5198 115.416C39.5998 110.811 39.7428 107.144 40.3498 106.677C46.3378 102.067 64.1298 97.0187 71.6208 94.852C72.3098 94.6527 71.8908 95.0278 73.1078 96.7151C79.7208 105.884 85.7708 108.5 92.2597 111.434C92.8297 111.691 93.7887 112.073 94.7537 111.506C96.6477 110.393 100.875 106.746 104.134 104.254C112.386 97.9455 112.24 94.9479 113.065 95.2054C120.546 97.5366 126.865 99.7146 133.177 102.938L134.24 102.003L134.241 102.004ZM111.001 55.3776C115.352 57.3479 114.479 67.4331 114.866 67.4707C114.593 69.7643 114.771 71.0418 112.734 71.6735C112.391 71.7797 113.092 71.5174 112.195 64.0886C111.797 60.7911 111.92 59.2683 111.188 56.8751C110.87 55.8364 110.087 54.964 111.001 55.3776ZM107.88 55.0985C109.807 55.1727 110.371 56.86 111.307 68.673C111.353 69.2586 111.279 69.8602 111.338 69.8602C111.338 72.0805 111.349 71.9583 108.179 72.6943C108.003 72.7347 107.958 72.6652 107.964 72.5317C108.84 53.7439 104.135 54.9546 107.88 55.0985ZM64.7248 75.9138C63.2948 72.3634 60.7648 63.5058 64.3028 62.2472C64.3108 62.438 64.3348 62.2528 64.2018 62.955C63.6368 65.9395 67.8188 78.4283 67.8198 78.4509C66.0418 78.3945 65.4448 77.7026 64.7248 75.9138ZM70.7888 78.2572C68.6318 78.5496 68.4908 76.5267 67.2568 71.7261C64.7468 61.9576 64.6288 61.6822 68.4188 60.8287C69.0448 60.6877 68.8418 60.6698 69.0568 62.0338C70.7408 72.7084 71.8928 74.2528 72.9148 77.7609C73.0288 78.1529 72.8788 77.9734 70.7888 78.2572ZM111.219 94.9573C105.207 102.013 101.546 105.14 93.8187 110.522C93.6127 110.666 93.4437 110.688 93.2157 110.587C82.9288 106.041 79.5868 102.894 74.4238 96.3917C72.8138 94.3641 72.8828 94.5286 73.4148 94.4036C78.0968 93.3001 80.4438 93.2502 80.7848 92.7567C81.3328 91.9662 82.0677 90.3851 82.3388 89.7196C82.5497 89.2007 82.6508 88.6414 82.7808 88.0962C82.8618 87.755 82.7398 87.4862 82.4268 87.2653C75.1798 82.162 73.5358 76.5812 70.5978 64.4045C69.0568 58.0153 70.4208 54.1002 73.2098 50.8788C74.8138 49.027 75.9648 47.9911 78.0258 46.7691C79.3918 45.9588 79.5018 45.7285 79.8748 45.8263C82.4227 46.4937 85.6898 45.4343 87.9878 44.2029C88.8708 43.7301 92.0647 44.1813 93.0437 44.437C101.003 46.5144 104.34 51.674 105.893 58.4007C107.702 66.2346 106.708 71.0587 106.188 75.3658C105.376 82.083 104.342 83.0418 104.737 87.9571C105.114 92.6496 106.145 92.8498 108.451 93.6836C111.281 94.7072 111.583 94.5296 111.218 94.9563L111.219 94.9573Z" fill="black"/>
<path d="M52.1068 103.917C44.3178 105.922 42.3468 115.215 48.7338 119.648C53.9558 123.273 61.7648 121.032 63.8268 115.389C66.4538 108.2 59.4978 102.014 52.1068 103.917ZM55.6888 120.224C44.3228 121.073 42.4398 107.011 52.8518 104.739C56.5068 103.941 61.0118 105.515 62.8748 109.716C64.9938 114.494 60.9938 119.827 55.6888 120.224Z" fill="black"/>
<path d="M113.224 102.112C108.57 102.74 104.76 106.785 105.125 111.686C105.77 120.352 118.311 122.827 123.157 115.43C127.197 109.265 122.24 100.895 113.224 102.112ZM116.851 118.466C110.774 119.856 105.477 115.038 106.164 110.014C106.815 105.248 111.804 102.128 116.746 103.154C125.843 105.043 125.796 116.419 116.851 118.466Z" fill="black"/>
<path d="M146.603 105.157C141.161 96.8693 126.784 101.784 128.706 111.653C130.671 121.742 147.51 121.304 148 109.615C147.851 108.312 147.811 106.998 146.603 105.157ZM139.583 117.621C134.364 118.462 129.428 114.328 129.526 110.217C129.732 101.547 141.571 99.0792 145.839 105.909C149.04 111.032 145.442 116.677 139.583 117.621Z" fill="black"/>
<path d="M47.2165 112.928C47.2935 114.242 47.3635 115.155 48.6885 115.597C50.0825 116.062 52.1115 115.629 52.5285 114.349C52.8655 113.316 52.2225 113.065 52.7715 112.844C53.2075 112.669 53.7505 112.387 55.1505 112.357C56.8735 112.541 57.0835 112.452 57.0865 113.065C57.0915 114.045 56.9065 114.546 57.6795 114.999C58.3865 115.413 59.6785 115.544 61.0195 114.977C62.3705 114.407 63.0925 111.713 60.9355 110.203C56.1925 106.883 47.0055 109.334 47.2175 112.927L47.2165 112.928ZM61.2935 113.003C61.1255 114.114 59.8585 114.138 58.7435 114.082C57.4135 114.017 60.0445 111.344 55.1255 111.269C54.1015 111.253 52.1905 111.558 51.6005 112.447C51.3755 112.785 51.4365 113.438 51.4545 113.821C51.4955 114.721 49.9165 114.756 49.0095 114.469C48.2675 114.234 47.7435 113.075 48.7355 111.512C48.8125 111.391 50.0915 110.447 50.8905 110.241C52.6965 109.774 54.2985 109.494 57.1645 109.719C59.2365 109.882 61.5835 111.082 61.2935 113.003Z" fill="black"/>
<path d="M118.868 109.478C118.431 109.325 118.088 109.901 118.106 110.211C118.215 112.086 118.265 111.496 118.033 112.596C117.675 114.295 114.977 113.756 114.298 113.909C113.611 114.063 113.002 113.868 112.382 113.662C110.92 113.177 111.443 109.925 110.87 109.725C110.475 109.588 110.065 109.88 110.078 110.307C110.085 110.548 110.14 110.789 110.17 111.029C110.445 113.285 110.279 114.873 113.723 115.074C114.122 115.098 114.125 115.056 114.14 115.396C114.158 115.812 114.246 116.03 113.921 116.029C113.051 116.027 112.505 115.969 111.8 116.235C111.49 116.352 111.424 116.86 111.832 116.964C112.315 117.086 112.201 117.06 114.82 117.06C114.82 116.949 117.434 117.268 118.017 116.852C118.525 116.489 118.001 116.001 117.49 116.009C116.594 116.023 115.74 116.043 115.732 115.932C115.667 115 115.73 115.031 115.921 114.99C118.476 114.44 119.498 114.096 119.218 109.897C119.204 109.68 119.056 109.541 118.87 109.477L118.868 109.478Z" fill="black"/>
<path d="M113.642 113.041C118.47 114.478 116.821 109.081 117.182 109.08C117.182 106.909 117.24 106.769 116.925 105.783C116.544 104.593 114.64 104.254 113.651 104.745C112.347 105.392 112.401 106.212 112.374 109.642C112.361 111.326 112.314 112.646 113.643 113.042L113.642 113.041ZM114.359 105.529C116.027 105.282 115.986 106.177 116.221 108.547C116.019 111.944 116.223 112.137 114.873 112.173C112.955 112.223 113.75 111.305 113.434 108.158C113.335 107.175 113.321 105.682 114.359 105.529Z" fill="black"/>
<path d="M144.734 107.396C144.176 106.895 143.709 107.412 142.227 108.471C141.742 108.817 142.147 107.581 141.016 107.205C140.843 107.146 140.949 107.056 140.984 106.987C141.252 106.454 141.413 105.929 141.261 105.313C140.51 102.266 135.892 104.013 137.255 106.827C137.368 107.061 137.359 107.064 137.116 107.093C136.499 107.164 136.491 107.161 136.679 106.616C137.039 105.57 136.49 104.379 135.158 104.041C133.895 103.722 132.566 104.785 132.54 106.109C132.518 107.262 133.386 107.378 132.831 107.581C132.396 107.741 132.056 107.941 131.968 108.368C131.689 109.713 131.901 112.6 132.11 113.12C132.29 113.566 132.597 113.93 133.124 113.977C134.074 114.063 135.025 114.203 135.987 114.017C136.418 113.933 141.599 114.459 141.846 113.32C142.146 111.936 142.065 112.02 142.379 112.175C145.437 113.686 145.085 113.733 145.085 110.527C145.109 110.527 145.21 107.824 144.734 107.396ZM139.179 104.482C139.789 104.477 140.386 105.059 140.39 105.665C140.394 106.252 139.818 106.845 139.233 106.811C137.256 106.692 137.917 104.495 139.179 104.482ZM135.768 105.981C135.788 107.182 133.511 107.454 133.51 105.956C133.51 104.517 135.741 104.391 135.768 105.981ZM140.887 111.718C140.867 112.751 140.974 112.754 140.149 112.909C139.88 112.96 134.711 113.048 133.626 112.963C132.978 112.912 132.984 111.992 132.934 110.81C132.846 108.725 132.822 108.539 133.493 108.328C134.444 108.028 137.719 108.077 137.719 108.099C140.917 108.099 140.655 107.989 140.833 108.589C141.124 109.573 140.926 109.718 140.887 111.717V111.718ZM144.126 110.822C144.126 112.219 144.38 112.151 142.548 111.215C142.09 110.981 142.023 110.774 142.038 110.267C142.051 109.845 142.205 109.573 142.586 109.355C143.478 108.845 143.953 108.148 144 108.806C144.144 110.82 144.165 110.819 144.126 110.822Z" fill="black"/>
<path d="M174.759 5.94964C167.746 1.00806 154.828 -0.295724 146.295 1.41414C123.497 5.98442 120.938 31.3353 138.267 39.5922C140.113 40.4721 140.2 40.3499 140.079 40.6526C139.48 42.1575 136.581 48.3286 135.383 49.7508C133.244 52.2907 144.199 50.5536 150.858 43.1248C151.508 42.3991 155.282 42.9189 156.581 43.0242C163.358 42.5852 163.227 42.6134 166.169 41.8539C183.834 37.2949 189.556 16.3752 174.758 5.9487L174.759 5.94964ZM166.195 39.9212C161.88 40.9938 163.548 40.8377 158.444 41.3472C151.676 42.0231 151.628 40.8659 150.303 42.0419C147.201 44.7933 146.152 45.5528 141.955 47.6603C140.567 48.3577 138.061 49.2451 137.273 49.2526C137.531 48.6482 138.109 48.4593 140.398 43.3344C142.285 39.11 141.731 39.9335 138.898 38.1888C135.312 35.9798 132.35 33.9767 130.211 29.4468C126.067 20.6738 129.072 4.49734 151.575 2.7903C152.791 2.69818 154.01 2.654 155.228 2.5882C155.237 2.82508 158.098 2.46412 161.544 3.15408C163.425 3.53008 162.496 3.12964 164.59 3.6692C167.194 4.34036 170.778 5.12338 174.402 7.98098C187.256 18.1189 181.685 36.0719 166.196 39.9222L166.195 39.9212Z" fill="black"/>
<path d="M154.547 20.6792C152.838 20.6726 151.787 22.2171 151.801 23.3629C151.84 26.7366 157.226 26.9142 157.323 23.1918C157.362 21.6897 156.119 20.6849 154.548 20.6792H154.547Z" fill="black"/>
<path d="M143.903 20.533C142.381 20.4569 141.091 21.9872 141.072 23.2148C141.051 24.5581 142.325 25.8271 143.757 25.7669C147.084 25.9794 147.935 20.7351 143.904 20.533H143.903Z" fill="black"/>
<path d="M164.857 20.4088C163.384 20.2828 162.137 21.8451 162.138 23.0915C162.14 24.4498 163.439 25.6333 164.86 25.637C168.356 25.6446 168.849 20.3467 164.856 20.4097L164.857 20.4088Z" fill="black"/>
</svg>
