<svg width="200" height="200" viewBox="0 0 200 200" fill="none" xmlns="http://www.w3.org/2000/svg">
<path d="M48.4998 141C48.8798 141.06 50.9598 141.16 50.9598 140.8C50.9598 140.59 50.5798 140.6 50.5798 140.6C50.6298 139 52.6598 138.6 54.1098 139.44C54.5095 139.67 54.879 139.949 55.2098 140.27C53.1598 140.38 50.4398 141.78 50.6198 143.81C50.7232 144.339 50.9452 144.838 51.269 145.27C51.5929 145.701 52.0103 146.053 52.4898 146.3C53.0893 146.749 53.772 147.073 54.4983 147.255C55.2245 147.437 55.9797 147.473 56.7198 147.36C58.038 147.024 59.1979 146.239 59.9998 145.14C61.8124 145.198 63.5858 144.605 64.9998 143.47C65.0595 143.423 65.1089 143.364 65.145 143.297C65.1811 143.23 65.2032 143.156 65.2098 143.08C65.2098 142.73 65.2098 142.75 63.2098 140.53C63.1532 140.467 63.0823 140.418 63.0029 140.388C62.9236 140.358 62.8382 140.347 62.7539 140.357C62.6697 140.367 62.589 140.397 62.5187 140.444C62.4484 140.492 62.3905 140.555 62.3498 140.63C62.3153 140.674 62.2852 140.72 62.2598 140.77C62.101 141.068 61.8442 141.303 61.5328 141.434C61.2213 141.565 60.8742 141.585 60.5498 141.49C59.5498 141.2 58.2598 138.55 55.9098 136.97C53.8598 135.59 51.1098 135.18 49.1698 136.82C48.3349 137.537 47.7412 138.494 47.4698 139.56C47.3619 139.889 47.3833 140.246 47.5298 140.56C47.7925 140.814 48.1353 140.97 48.4998 141ZM52.2598 144.71C51.9857 144.514 51.7954 144.222 51.7268 143.892C51.6582 143.562 51.7164 143.219 51.8898 142.93C52.3333 142.317 52.9496 141.85 53.6598 141.59C53.0869 142.561 52.6176 143.59 52.2598 144.66V144.71ZM61.6798 143.13C61.9198 142.41 61.6798 142.66 62.0798 142.48C62.3829 142.329 62.6571 142.126 62.8898 141.88L63.7998 142.96C63.0462 143.438 62.2131 143.776 61.3398 143.96C61.4398 143.7 61.5998 143.3 61.6798 143.08V143.13ZM58.0598 140.58C59.0098 141.77 59.7998 142.83 61.2498 142.71C61.043 143.141 60.8756 143.589 60.7498 144.05C60.0198 144.1 59.9198 143.93 59.6298 144.05C59.0598 144.27 58.1198 146.32 55.8398 146.31C55.9818 145.993 56.0729 145.655 56.1098 145.31C56.755 145.18 57.3589 144.895 57.8698 144.48C58.0888 144.29 58.231 144.027 58.2698 143.74C58.2698 143.39 58.1498 142.94 57.4098 142.35C57.6855 141.766 57.9032 141.156 58.0598 140.53V140.58ZM54.6998 144.36C53.8198 143.89 55.3198 143.06 56.2898 143.09C56.5127 143.092 56.7305 143.156 56.9181 143.277C57.1057 143.397 57.2554 143.568 57.3498 143.77C57.2162 143.985 57.0401 144.171 56.8323 144.315C56.6245 144.46 56.3893 144.561 56.1412 144.611C55.8931 144.662 55.6373 144.661 55.3895 144.609C55.1416 144.557 54.9069 144.456 54.6998 144.31V144.36ZM55.8798 138.24C56.5589 138.817 57.1756 139.464 57.7198 140.17C57.4034 140.747 57.1615 141.362 56.9998 142C56.5796 141.879 56.1391 141.846 55.7056 141.903C55.2721 141.96 54.8548 142.105 54.4798 142.33C52.6498 143.33 53.0798 145.52 55.6198 145.27C55.4706 145.558 55.3596 145.864 55.2898 146.18C54.2758 145.978 53.3275 145.528 52.5298 144.87C53.2387 143.769 53.7907 142.574 54.1698 141.32C54.5586 141.141 54.9792 141.042 55.4068 141.029C55.8344 141.015 56.2604 141.087 56.6598 141.24L56.8698 140.45L56.6498 140.35C56.1798 140.03 55.9698 139.78 55.4298 139.35C55.6303 138.985 55.7816 138.595 55.8798 138.19V138.24ZM51.9998 136.64C53.2513 136.663 54.463 137.083 55.4598 137.84C55.2808 138.248 55.1467 138.673 55.0598 139.11C54.5805 138.734 54.015 138.483 53.4145 138.38C52.8139 138.277 52.1971 138.325 51.6198 138.52C51.8308 137.913 51.9587 137.281 51.9998 136.64ZM49.7098 137.42C50.2642 136.989 50.9304 136.725 51.6298 136.66C51.3196 137.332 51.1268 138.053 51.0598 138.79C50.7619 138.969 50.518 139.225 50.3543 139.531C50.1905 139.838 50.1129 140.183 50.1298 140.53C49.4292 140.569 48.7281 140.463 48.0698 140.22C48.2186 139.109 48.801 138.103 49.6898 137.42H49.7098ZM34.7698 135.75C32.9698 134.97 28.9698 137.28 28.2398 138.52C28.1342 138.793 28.1342 139.096 28.2398 139.37C28.8698 141.76 34.7498 150.2 35.8398 151.51C36.0298 151.75 36.2898 151.42 36.1198 151.14C35.5998 150.28 35.6598 152.01 38.3198 143.4C38.5662 143.303 38.7958 143.168 38.9998 143C39.0926 142.897 39.1439 142.763 39.1439 142.625C39.1439 142.486 39.0926 142.353 38.9998 142.25C38.9091 142.138 38.805 142.037 38.6898 141.95L39.3198 139.62L41.8198 141C41.3143 142.264 40.9455 143.578 40.7198 144.92C39.7116 145.283 38.7667 145.803 37.9198 146.46C37.3298 147.11 38.2598 148.31 38.8398 149.03C39.4198 149.75 39.9098 150.24 40.0198 150.35C40.1298 150.46 40.4798 150.35 40.4498 150.17C40.3863 150.025 40.3021 149.89 40.1998 149.77C39.658 148.927 39.1928 148.036 38.8098 147.11C39.5871 146.645 40.4076 146.256 41.2598 145.95C41.5698 145.84 42.5298 145.54 42.7898 145.7C44.0728 146.376 45.4109 146.941 46.7898 147.39C46.8455 147.416 46.9095 147.42 46.9676 147.399C47.0258 147.379 47.0733 147.336 47.0998 147.28C47.1264 147.224 47.1297 147.16 47.109 147.102C47.0884 147.044 47.0455 146.996 46.9898 146.97L45.2598 145.92C45.6281 145.085 45.8643 144.198 45.9598 143.29L50.2298 145.6C50.4898 145.75 50.6898 145.34 50.4998 145.23C50.3098 145.12 37.3498 136.88 34.7698 135.75ZM33.2498 136.81C33.5988 136.705 33.9709 136.705 34.3198 136.81C34.5498 136.91 35.1098 137.21 35.8698 137.63C35.6135 138.338 35.439 139.073 35.3498 139.82C34.6798 139.44 34.2798 139.15 33.7498 139.24C33.461 139.305 33.1907 139.435 32.9598 139.62C33.0598 138.84 33.1498 138.24 33.2498 136.81ZM29.2498 139.01C30.287 138.021 31.5452 137.294 32.9198 136.89C32.3861 139.249 32.012 141.641 31.7998 144.05C30.7915 142.453 29.9408 140.762 29.2598 139L29.2498 139.01ZM33.7898 147.42C33.2398 146.51 32.6398 145.5 32.0698 144.51C32.4098 143.08 32.5198 142.42 32.7298 141.07C33.277 142.019 33.9096 142.916 34.6198 143.75C34.2167 144.941 33.9418 146.171 33.7998 147.42H33.7898ZM35.5398 150.3C35.1798 149.73 34.7198 148.96 34.1198 147.97C34.4995 146.715 34.7508 145.425 34.8698 144.12C35.0898 144.65 37.0498 143.89 37.5798 143.69C37.1898 144.92 35.8298 149.2 35.5498 150.3H35.5398ZM35.2398 143.81C34.6201 142.737 34.0722 141.625 33.5998 140.48L33.9098 140.31C34.0498 140.39 37.4698 142.41 37.7198 142.57C36.9405 143.066 36.1129 143.481 35.2498 143.81H35.2398ZM38.2398 141.61C37.4898 141.11 36.4698 140.5 35.6898 140.05C35.9567 139.342 36.1315 138.603 36.2098 137.85L39.0498 139.45C38.9998 139.83 38.6598 140.61 38.2998 141.61H38.2398ZM44.8598 145.61L43.3198 144.68C42.6355 144.41 41.8741 144.41 41.1898 144.68C41.5774 143.511 41.8586 142.309 42.0298 141.09L45.6498 143.09C45.28 143.906 45.034 144.772 44.9198 145.66L44.8598 145.61Z" fill="black"/>
<path d="M194.35 149.17C192.73 134.09 178.77 110.9 170.43 98.2299C175.086 98.6024 179.76 98.7193 184.43 98.5799C185.76 98.5799 189.24 98.3399 189.91 98.2099C190.3 98.1299 190.36 97.7599 189.77 97.7399C189.18 97.7199 184.98 97.5199 184.41 97.5099H174.24C172.68 97.5699 170.24 97.7099 170.1 97.7099C167.1 93.1399 165.01 90.2799 164.99 90.2699C164.967 90.2466 164.939 90.2285 164.908 90.2168C164.878 90.205 164.845 90.2 164.812 90.2019C164.78 90.2038 164.748 90.2127 164.719 90.228C164.69 90.2432 164.665 90.2645 164.645 90.2903C164.624 90.3161 164.61 90.346 164.602 90.3778C164.595 90.4096 164.594 90.4427 164.6 90.4749C164.606 90.507 164.619 90.5375 164.638 90.5642C164.657 90.591 164.681 90.6134 164.71 90.6299C165.17 90.9999 185.38 120.53 191.56 140.87C194.01 148.94 195.46 159.07 187.56 161.87C168.8 168.57 21.8697 170.75 7.97973 162.87C6.04973 161.78 5.59973 159.51 5.97973 156.45C6.56973 152.2 8.85973 146.45 11.6197 140.01C14.7297 143.01 40.5297 166.7 44.7097 165.81C48.8897 164.92 72.3997 154 73.3697 151.91C73.9332 150.458 74.2313 148.917 74.2497 147.36C74.3681 147.197 74.4233 146.997 74.4049 146.796C74.3865 146.596 74.2958 146.409 74.1497 146.27C72.5997 144.73 41.8497 120.35 39.8697 120.42C38.4897 120.48 35.9897 121.9 34.7997 122.6C34.4139 121.969 33.8395 121.475 33.1576 121.187C32.4757 120.9 31.7209 120.835 30.9997 121C30.3198 121.275 29.7109 121.7 29.219 122.244C28.7271 122.788 28.3649 123.436 28.1597 124.14C28.1709 124.194 28.2004 124.242 28.2432 124.277C28.286 124.312 28.3395 124.331 28.3947 124.331C28.4499 124.331 28.5034 124.312 28.5462 124.277C28.589 124.242 28.6185 124.194 28.6297 124.14C29.2312 123.123 30.1847 122.361 31.3097 122C31.7775 121.928 32.2561 121.99 32.6898 122.18C33.1235 122.369 33.4945 122.678 33.7597 123.07L22.6397 127.82C22.0493 127.213 21.3122 126.769 20.4997 126.53C18.5997 126.03 17.3197 127.28 16.5597 129.11C16.543 129.163 16.5449 129.219 16.5652 129.271C16.5855 129.322 16.6229 129.365 16.671 129.392C16.7192 129.419 16.7752 129.429 16.8296 129.419C16.8841 129.41 16.9335 129.382 16.9697 129.34C18.2497 127.49 19.7297 126.86 21.4997 128.34C19.3597 129.29 16.3697 130.64 14.2697 131.68C14.4197 131.44 35.9997 92.3599 35.9997 92.2599C36.9497 90.4999 38.8597 87.3499 40.8297 86.9399C41.7201 86.7458 42.6284 86.6452 43.5397 86.6399C42.1497 88.9399 30.8697 107.64 30.8497 110.28C30.8497 113.28 31.3697 112.81 32.9697 113.28C34.5697 113.75 124.1 113.2 124.26 113.2C125.81 113.2 131.87 113 132.43 112.59C134.17 111.31 133.78 109.4 133.02 107.39C132.84 106.91 131.93 104.92 130.71 102.26C135.96 100.68 139.91 102.69 140.27 111.26C140.63 118.67 137.71 120.93 132.12 120.61C127.63 120.35 124.53 119.03 123.55 120.78C122.45 122.73 125.49 127.11 126.81 128.93C126.62 128.93 118.25 128.76 116.14 128.67C113.166 128.555 110.189 128.591 107.22 128.78C105.175 128.825 103.142 129.103 101.16 129.61C100.41 129.98 99.4397 131.91 99.0297 132.72C98.2197 134.31 94.5297 144.29 93.5097 147.17C92.9097 148.83 90.8797 154.33 92.2397 155.3C92.1897 156.37 92.3597 157.8 93.2997 158.3C94.2397 158.8 107.16 159.16 108.15 159.18C109.9 159.23 127.59 159.46 138.88 158.96C150.17 158.46 155.1 157.38 154.81 157.41C155.096 157.326 155.354 157.163 155.554 156.94C155.753 156.718 155.887 156.444 155.94 156.15C156.094 155.411 156.046 154.644 155.8 153.93C157.06 151.48 147.53 131.14 144.89 129.71C144.734 129.622 144.559 129.574 144.38 129.57C143.85 129.57 131.99 129.07 127.38 128.92C126.38 127.51 123.13 122.2 124.38 121.07C126.28 119.41 142.15 127.73 141.3 111.17C140.86 103.68 137.41 99.2899 130.41 101.83C129.8 100.51 124.68 89.5699 123.31 86.6599C128.617 86.9775 133.941 86.8604 139.23 86.3099C139.306 87.2432 139.574 88.1507 140.018 88.9751C140.462 89.7995 141.072 90.5229 141.81 91.0999C145.81 94.0999 161.73 93.6499 164.62 89.9799C165.43 88.8724 165.989 87.6023 166.26 86.2574C166.531 84.9124 166.507 83.5246 166.19 82.1899C166.456 82.0206 166.662 81.7724 166.78 81.4799C166.94 81.1699 166.78 80.7799 166.09 80.6399C165.2 80.5066 164.299 80.453 163.4 80.4799C163.4 79.6599 163.45 78.1299 163.4 76.3899C163.49 76.3299 164.14 75.5499 164.21 75.4599C165.007 74.5287 165.636 73.4662 166.07 72.3199C166.4 71.3899 166.53 70.3199 165.66 69.7999C164.32 69.0699 163.38 70.4099 162.93 71.9099C162.51 69.5999 161.54 66.2099 159.22 66.5499C155.28 67.1499 158 76.6999 159.28 80.4799C158.155 80.3216 157.014 80.3216 155.89 80.4799C157.14 77.3399 157.78 73.2799 154.57 72.6699C154.083 72.5623 153.576 72.5997 153.11 72.7774C152.644 72.9551 152.241 73.2654 151.95 73.6699C151.885 73.4436 151.765 73.2373 151.599 73.0703C151.433 72.9033 151.228 72.7811 151.002 72.7151C150.776 72.6492 150.537 72.6416 150.308 72.6932C150.078 72.7447 149.866 72.8537 149.69 73.0099C148.22 74.0699 149.06 76.4999 150.77 77.2999C150.68 78.3279 150.68 79.3619 150.77 80.3899C149.705 80.2613 148.628 80.2849 147.57 80.4599C147.51 78.0182 147.243 75.5861 146.77 73.1899C147.377 72.7576 147.889 72.2036 148.271 71.5632C148.653 70.9228 148.898 70.21 148.99 69.4699C149.13 68.1399 148.66 67.0299 147.55 66.7399C146.16 66.3799 145.34 67.3499 145.1 68.7399C143.87 67.0399 141.46 66.4299 140.29 68.3799C136.54 64.4799 134.73 66.6599 135.68 68.3799C136.39 69.6999 138.24 70.4399 139.68 70.8499C139.68 73.0899 140.68 74.9799 141.92 76.9099C142.75 78.2099 143.68 79.4599 144.4 80.3799C142.844 80.3299 141.286 80.4304 139.75 80.6799C138.81 80.9299 138.66 81.6099 139.53 82.0999C139.255 83.2721 139.154 84.4783 139.23 85.6799C133.858 85.3941 128.472 85.5211 123.12 86.0599C122.78 85.3299 121.77 83.1999 121.65 82.9499C121.53 82.6999 122.49 79.7999 123.84 52.8399C130.04 52.3199 157.92 52.9399 160.48 51.9499C160.626 51.8972 160.757 51.8065 160.857 51.687C160.957 51.5675 161.023 51.4236 161.05 51.2699C161.9 48.4799 162.48 24.4999 161.05 22.2699C160.7 21.7199 159.45 21.5499 158.76 21.4499C149.85 20.1499 112.67 20.7099 110.76 21.7199C108.85 22.7299 109.66 32.5899 110.02 34.5499C90.7097 33.9299 46.1197 35.1399 41.9197 36.7099C40.9197 37.0699 40.5497 38.4399 40.3497 39.4699C38.6897 48.0399 43.3497 75.6199 44.9097 84.1399C44.8097 84.1399 44.9097 84.1399 43.6897 86.0399C42.6571 85.9634 41.6189 86.0172 40.5997 86.1999C38.3197 86.5499 36.2197 89.6999 35.0597 91.6599C35.0097 91.7599 32.0597 96.6599 31.6197 97.4599C29.1097 97.0699 17.4397 97.2199 15.9597 97.2999C14.4797 97.3799 12.9597 97.4899 11.6197 97.5899C11.3797 97.5899 11.3597 98.0499 11.6197 98.0599C14.4197 98.2299 15.4497 98.2899 17.6197 98.3199C22.9297 98.3999 30.7597 98.6199 31.0097 98.5899C30.4897 99.4999 22.7897 113.2 21.7597 115.14C17.2797 123.54 13.7597 131.23 13.5497 131.88C12.3873 132.409 11.2955 133.08 10.2997 133.88C9.97855 134.761 9.78656 135.684 9.72973 136.62C9.67973 138.23 10.2597 138.62 11.1497 139.52C8.76163 144.637 6.79835 149.941 5.27973 155.38C4.78396 157.58 4.7635 159.861 5.21973 162.07C5.62803 164.278 6.39125 166.406 7.47973 168.37C7.96867 168.867 8.60227 169.196 9.28973 169.31C11.9197 170.05 20.0697 171 22.7997 171.31C22.5939 172.532 22.5368 173.774 22.6297 175.01C22.6324 176.283 22.8176 177.549 23.1797 178.77C23.183 178.8 23.1922 178.829 23.2068 178.856C23.2214 178.883 23.2411 178.906 23.2648 178.925C23.2885 178.944 23.3156 178.958 23.3448 178.967C23.374 178.975 23.4045 178.978 23.4347 178.975C23.4649 178.972 23.4942 178.962 23.5208 178.948C23.5475 178.933 23.571 178.914 23.59 178.89C23.6091 178.866 23.6233 178.839 23.6318 178.81C23.6403 178.781 23.643 178.75 23.6397 178.72C23.7997 177.473 23.8432 176.215 23.7697 174.96C23.7631 173.752 23.6257 172.548 23.3597 171.37C24.7397 171.49 26.0697 171.59 27.2297 171.63C27.0453 172.797 26.9949 173.981 27.0797 175.16C27.0831 176.433 27.2683 177.699 27.6297 178.92C27.6297 178.981 27.654 179.039 27.6971 179.083C27.7402 179.126 27.7987 179.15 27.8597 179.15C27.9207 179.15 27.9792 179.126 28.0224 179.083C28.0655 179.039 28.0897 178.981 28.0897 178.92C28.2551 177.674 28.302 176.415 28.2297 175.16C28.2229 173.992 28.0887 172.829 27.8297 171.69C30.0597 171.74 62.8797 174.69 119.56 173.57C134.75 173.27 153.01 172.57 168.05 170.92C167.851 172.126 167.794 173.351 167.88 174.57C167.885 175.84 168.073 177.103 168.44 178.32C168.433 178.353 168.433 178.388 168.441 178.421C168.449 178.455 168.464 178.486 168.486 178.512C168.508 178.539 168.535 178.56 168.566 178.575C168.597 178.59 168.63 178.598 168.665 178.598C168.699 178.598 168.733 178.59 168.764 178.575C168.795 178.56 168.822 178.539 168.843 178.512C168.865 178.486 168.88 178.455 168.888 178.421C168.896 178.388 168.897 178.353 168.89 178.32C169.064 177.075 169.111 175.815 169.03 174.56C169.019 173.325 168.875 172.094 168.6 170.89C169.71 170.77 172.28 170.45 172.5 170.42C172.303 171.619 172.249 172.838 172.34 174.05C172.34 175.323 172.526 176.59 172.89 177.81C172.896 177.871 172.927 177.927 172.975 177.965C173.023 178.004 173.084 178.022 173.145 178.015C173.206 178.008 173.262 177.978 173.3 177.93C173.338 177.882 173.356 177.821 173.35 177.76C173.514 176.517 173.558 175.261 173.48 174.01C173.473 172.778 173.329 171.55 173.05 170.35C177.56 169.74 191.35 167.88 193.23 164.03C195.45 159.64 195.27 153.93 194.35 149.17ZM103.35 133.07C103.46 132.8 106.81 132.07 110.47 133.07C110.503 133.063 110.538 133.063 110.571 133.071C110.605 133.079 110.636 133.095 110.662 133.116C110.689 133.138 110.71 133.165 110.725 133.196C110.74 133.227 110.747 133.261 110.747 133.295C110.747 133.329 110.74 133.363 110.725 133.394C110.71 133.425 110.689 133.452 110.662 133.474C110.636 133.495 110.605 133.511 110.571 133.519C110.538 133.527 110.503 133.527 110.47 133.52C108.647 133.844 106.786 133.891 104.95 133.66C104.09 133.52 103 133.51 103.32 133.07H103.35ZM154.76 156.85C145.51 158.61 94.4097 158.21 93.6397 157.85C92.8697 157.49 92.7997 156.33 92.7797 155.57C98.3197 157.37 152.45 155.98 155.46 154.39C155.62 155.27 155.66 156.68 154.73 156.85H154.76ZM135.35 133.18C135.35 132.84 137.55 132.65 137.65 132.64C138.958 132.539 140.272 132.539 141.58 132.64C142.31 132.72 143.32 132.82 143.24 133.13C143.16 133.44 141.65 133.57 141.39 133.61C140.412 133.7 139.431 133.74 138.45 133.73C137.79 133.71 135.28 133.59 135.32 133.18H135.35ZM148.2 136.51C150.702 141.277 152.802 146.244 154.48 151.36C154.693 152.006 154.811 152.68 154.83 153.36C150.32 154.76 98.3397 156.2 93.0797 154.69C92.8297 154.62 92.7597 154.69 92.6997 154.27C92.3197 151.55 96.7697 140.74 97.7997 138.22C116.72 137.59 148 136.62 148.17 136.51H148.2ZM139.78 70.3999C138.686 69.7992 137.694 69.0297 136.84 68.1199C136.45 67.5299 136.54 67.1199 137.69 67.6799C138.41 68.0099 139.42 68.5999 140.1 69.0099C139.925 69.4549 139.817 69.9233 139.78 70.3999ZM163.78 72.1899C164.58 70.7499 165.37 70.3399 165.29 71.1899C164.86 72.7109 164.249 74.1748 163.47 75.5499C163.41 74.5499 163.34 73.8799 163.26 73.2199C163.3 73.0799 163.5 72.6599 163.75 72.1899H163.78ZM159.53 80.8899C159.73 81.4599 159.86 81.7999 159.87 81.8199C159.881 81.8482 159.897 81.8741 159.918 81.896C159.939 81.9179 159.965 81.9354 159.993 81.9475C160.02 81.9596 160.051 81.966 160.081 81.9664C160.111 81.9669 160.142 81.9612 160.17 81.9499C160.61 81.7799 159.96 81.3699 158.92 75.3399C158.61 73.5399 157.69 67.9899 159.51 67.7299C160.99 67.5099 161.79 71.1799 162.07 72.6299C162.589 75.4249 162.923 78.251 163.07 81.0899C163.069 81.1453 163.088 81.1991 163.124 81.2414C163.16 81.2837 163.21 81.3116 163.264 81.3202C163.319 81.3287 163.375 81.3172 163.422 81.2877C163.469 81.2583 163.504 81.2129 163.52 81.1599C163.523 81.1033 163.523 81.0465 163.52 80.9899C164.424 81.0165 165.322 81.1406 166.2 81.3599C166.088 81.4903 165.948 81.593 165.79 81.6599C163.69 82.7399 157.34 82.5299 155.15 82.4899C155.45 81.8899 155.66 81.4299 155.89 80.8799C157.085 81.0763 158.304 81.0797 159.5 80.8899H159.53ZM151.73 78.6999C151.96 76.6999 152.47 73.5099 154.49 73.8899C156.51 74.2699 156 77.1999 155.56 79.1599C155.288 80.2843 154.955 81.3927 154.56 82.4799H151.56C151.536 81.2183 151.582 79.9563 151.7 78.6999H151.73ZM150.46 73.9999C150.506 73.9556 150.561 73.9215 150.622 73.8999C150.682 73.8782 150.747 73.8694 150.811 73.8741C150.875 73.8789 150.937 73.8969 150.994 73.9272C151.051 73.9575 151.1 73.9993 151.14 74.0499C151.299 74.2094 151.443 74.3835 151.57 74.5699C151.286 75.2076 151.087 75.8801 150.98 76.5699C150.46 75.8499 149.79 74.5399 150.46 73.9999ZM147.31 67.9199C148.61 68.3299 147.59 71.7499 146.72 72.7899C146.479 71.7136 146.12 70.6672 145.65 69.6699C145.94 68.7899 146.43 67.6399 147.31 67.9099V67.9199ZM144.85 80.9999C145.34 81.6199 145.66 81.9999 145.66 81.9999C145.699 82.0391 145.752 82.0625 145.808 82.0658C145.863 82.0691 145.918 82.052 145.963 82.0178C146.007 81.9835 146.037 81.9344 146.047 81.8796C146.058 81.8248 146.048 81.7681 146.02 81.7199C146.02 81.7199 144.25 79.1999 142.79 76.5899C141.69 74.5899 140.64 72.5899 140.93 70.3799C141.16 68.6399 142.08 67.8999 143.63 68.9099C145.87 70.3499 146.89 79.2299 147.21 81.9099C147.213 81.98 147.238 82.0475 147.281 82.103C147.324 82.1585 147.383 82.1993 147.45 82.2199C147.72 82.2199 147.68 81.9299 147.67 81.7899C147.66 81.6499 147.67 80.9499 147.67 80.8799C148.732 81.0143 149.807 81.0143 150.87 80.8799C150.93 81.6099 151 82.1799 151.05 82.4799C147.5 82.4799 143.21 82.7199 140.27 81.5699C141.781 81.2709 143.311 81.0805 144.85 80.9999ZM140.06 82.4699C141.522 83.0368 143.064 83.3741 144.63 83.4699C146.4 83.6299 158.45 83.6499 159.82 83.5799C161.886 83.546 163.931 83.1639 165.87 82.4499C166.056 83.6778 165.986 84.931 165.664 86.1305C165.342 87.3301 164.775 88.45 164 89.4199C161.57 92.2699 146.2 92.9199 142.51 90.3199C140.08 88.6499 139.64 85.3099 140.06 82.4599V82.4699ZM132 111.83C132.21 112.5 36.8597 112.53 36.7597 112.52C32.7597 112.52 33.7597 112.52 32.4197 112.19C32.0597 112.11 31.9897 112.11 31.9197 111.76C31.8349 111.211 31.8114 110.654 31.8497 110.1C31.8707 110.141 31.9046 110.174 31.9461 110.194C31.9877 110.214 32.0346 110.219 32.0797 110.21C32.0797 110.21 131.97 108.85 132.62 108.83C132.89 110 132.93 111.09 132 111.83ZM160.13 51.1399C160.13 51.1399 160.19 51.0399 160.21 51.0699C160.23 51.0999 160.13 51.1299 160.08 51.1399H160.13ZM110.4 25.9199C110.4 25.2699 110.66 22.8099 111.24 22.5099C112.56 21.8499 154.51 21.2899 160.24 23.0799C161.24 25.1799 160.92 48.7699 160.08 51.1399C155.16 51.9099 130.4 51.8499 123.96 52.5099C124.35 44.6399 124.52 38.0099 124.2 36.7199C124.138 36.5517 124.038 36.4 123.908 36.2768C123.778 36.1537 123.621 36.0623 123.45 36.0099C121.26 35.0599 113.02 34.7899 110.62 34.7099C110.308 31.7907 110.235 28.851 110.4 25.9199ZM41.2497 51.0999C41.0997 48.9999 40.3597 38.3999 42.3597 37.6599C43.3597 37.3099 46.8797 36.9599 51.9897 36.6599C61.7797 36.0499 77.2097 35.5599 91.2497 35.4599C94.3697 35.4599 120.73 35.2299 123.31 36.9999C124.07 40.4599 121.64 78.8999 121.1 82.6099C97.4697 83.3799 69.4697 84.5399 45.6397 83.9599C45.2397 81.6699 42.1797 63.9999 41.2497 51.0999ZM45.3297 84.6299C45.3316 84.6066 45.3316 84.5832 45.3297 84.5599C62.1797 85.0799 114.91 83.3499 121.33 83.3099C122.04 84.9599 132.01 107.08 132.43 108.31C132.32 108.31 31.9997 109.67 31.8697 109.77C33.1297 105.55 43.5497 87.7099 45.3297 84.6299ZM72.8197 151.63C72.0797 153.07 49.6597 163.09 45.0497 164.48C45.1391 164.019 45.1727 163.549 45.1497 163.08C51.9597 160.72 66.7397 154.49 73.3697 150.08C73.2434 150.618 73.059 151.141 72.8197 151.64V151.63ZM73.5097 149.42C71.5097 150.6 69.5997 151.42 45.1397 162.54C45.1407 162.087 45.0801 161.636 44.9597 161.2C48.1597 159.7 69.8597 151.29 73.7297 147.94C73.6797 148.37 73.6097 148.89 73.5097 149.43V149.42ZM21.9997 128.9C22.4806 129.466 22.7782 130.165 22.8532 130.905C22.9282 131.644 22.777 132.388 22.4197 133.04C22.2597 133.29 22.6397 133.55 22.7997 133.29C23.4034 132.632 23.7603 131.785 23.8095 130.893C23.8588 130.002 23.5973 129.12 23.0697 128.4C27.9297 126.17 32.7097 124.07 34.0197 123.5C34.3475 124.166 34.5229 124.896 34.5333 125.638C34.5436 126.38 34.3887 127.115 34.0797 127.79C33.9597 128.11 34.3197 128.23 34.4897 128.02C35.0397 127.321 35.382 126.482 35.4775 125.597C35.573 124.713 35.4178 123.82 35.0297 123.02C36.1097 122.41 38.6297 121.02 39.8597 121.02C41.3997 121.02 72.6497 146.44 73.2297 147.02C70.6197 149.71 46.3897 159.3 44.3497 160.28C40.0497 159.28 13.8097 136.71 11.3497 134.39C12.8797 133.12 20.2797 129.7 21.9997 128.9ZM10.5897 134.85C13.7097 137.9 39.7397 160.62 44.0997 161.34C44.0122 161.717 43.9719 162.103 43.9797 162.49C36.9797 159.07 16.9797 141.75 10.3597 136.18C10.3897 136.18 10.5397 135.2 10.6197 134.85H10.5897ZM10.7397 138.28C10.4577 137.85 10.3177 137.343 10.3397 136.83C16.8797 143.43 35.3397 159.66 43.9697 163.04C43.9519 163.575 44.0057 164.109 44.1297 164.63C38.9997 163.48 11.4197 139.1 10.7697 138.28H10.7397ZM192.74 163.7C186.28 176.52 10.9797 173.17 8.13973 168.17C6.93592 166.077 6.12268 163.783 5.73973 161.4C6.12549 162.245 6.76985 162.945 7.57973 163.4C22.2997 171.97 168.75 169.73 187.87 162.86C191.92 161.4 193.96 158.25 194.42 153.86C194.691 157.231 194.106 160.616 192.72 163.7H192.74Z" fill="black"/>
<path d="M42.9999 95.6899C113.71 96.6899 120.46 96.0799 122.44 95.7699C122.91 95.6999 123.21 95.5399 123.19 94.9899C123.19 93.5399 119.79 86.8899 118.89 86.4299C118.49 86.2199 46.8899 87.2299 46.6399 87.3099C46.5933 87.3211 46.5496 87.3421 46.5117 87.3714C46.4738 87.4007 46.4425 87.4377 46.4199 87.4799C45.7399 88.5899 42.4199 94.0699 42.5699 95.3099C42.5861 95.4134 42.6379 95.508 42.7164 95.5773C42.7949 95.6467 42.8952 95.6865 42.9999 95.6899ZM46.9299 87.9999C47.6499 87.9099 118.09 87.2099 118.52 87.2499C119.266 88.3239 119.935 89.4501 120.52 90.6199C118.88 90.6199 45.5799 91.0099 45.1999 91.0199C45.6399 90.1399 46.2199 89.1399 46.9299 87.9999ZM44.9299 91.4999C45.3199 91.4999 119.49 91.1199 120.76 91.0899C121.418 92.3152 121.938 93.6098 122.31 94.9499C118.75 95.5199 86.3099 95.2399 43.3599 94.9499C43.7612 93.7387 44.2803 92.5698 44.9099 91.4599L44.9299 91.4999ZM98.1899 99.0899C97.9904 98.6484 97.6644 98.2759 97.2533 98.0196C96.8421 97.7633 96.3641 97.6346 95.8799 97.6499C93.3399 97.6499 72.0099 97.0599 70.0899 97.8399C68.8641 99.3251 67.9157 101.019 67.2899 102.84C67.2299 103.28 67.4499 103.48 67.7199 103.51C73.7199 104.16 93.6099 104.78 98.7699 103.83C99.4099 103.71 99.4899 103.03 99.3599 102.38C99.0503 101.256 98.6592 100.157 98.1899 99.0899ZM67.9999 102.84C68.5743 101.217 69.3539 99.6747 70.3199 98.2499C71.8399 97.7499 91.6099 98.7899 95.9099 98.7799C96.1659 98.7707 96.4191 98.8357 96.639 98.967C96.859 99.0982 97.0364 99.2902 97.1499 99.5199C97.6359 100.559 98.0146 101.644 98.2799 102.76C93.2099 103.55 71.6799 103.1 67.9999 102.84ZM167.64 100.37C166.23 98.4299 159.16 98.5199 156.79 98.5899C154.79 98.5899 147.52 98.9199 147.52 100.88C147.528 101.039 147.574 101.193 147.654 101.331C147.734 101.468 147.846 101.584 147.98 101.67C148.17 101.82 146.86 115 148.66 122.07C149.25 124.41 150.01 125.57 152.24 126.54C156.52 128.4 163.62 127.99 166.47 124.02C167.04 122.86 166.92 119.48 166.97 118.45C171.4 119.33 175.03 117.53 175.97 112.76C176.56 109.69 175.8 107.68 174.49 106.46C173.615 105.747 172.58 105.257 171.474 105.031C170.369 104.804 169.225 104.849 168.14 105.16C168.102 105.173 168.062 105.176 168.022 105.17C167.983 105.164 167.945 105.149 167.913 105.125C167.88 105.102 167.854 105.071 167.836 105.035C167.818 104.999 167.809 104.96 167.81 104.92C167.81 104.39 168 100.8 167.64 100.37ZM148.64 100.58C151.34 98.9999 162.34 98.8799 165.89 100.49C166.01 100.55 166.46 100.78 166.46 100.88C166.46 100.98 166 101.22 165.89 101.27C163.21 102.48 153.64 103.03 148.61 101.19C148.26 101 148.61 100.62 148.61 100.58H148.64ZM168.42 106.18C169.329 105.918 170.287 105.88 171.214 106.07C172.141 106.26 173.007 106.672 173.74 107.27C174.82 108.27 175.36 109.99 174.86 112.54C174.76 113.426 174.453 114.277 173.963 115.022C173.473 115.768 172.814 116.387 172.04 116.83C170.4 117.568 168.553 117.709 166.82 117.23C166.735 117.199 166.644 117.186 166.554 117.192C166.463 117.197 166.375 117.221 166.294 117.263C166.213 117.304 166.142 117.361 166.085 117.432C166.027 117.502 165.985 117.583 165.96 117.67C165.69 118.43 166.07 121.5 165.52 123.44C162.99 126.87 156.52 127.18 152.69 125.57C150.75 124.74 150.21 123.88 149.69 121.81C148.35 116.9 148.27 106.9 148.57 101.98C151.72 103.47 162.63 103.9 166.92 101.7C166.92 104.8 166.54 105.32 167.32 105.95C167.471 106.064 167.645 106.143 167.829 106.183C168.014 106.223 168.206 106.222 168.39 106.18H168.42ZM71.2799 127.37C68.6536 125.142 65.8284 123.161 62.8399 121.45C61.6886 120.771 60.4641 120.224 59.1899 119.82C58.1199 119.54 57.6699 120.09 57.8899 120.82C58.3407 121.868 58.9365 122.848 59.6599 123.73C61.9608 126.643 64.6068 129.265 67.5399 131.54C71.9999 135.27 77.7799 139.79 81.9999 143C82.2149 143.157 82.4591 143.27 82.7182 143.331C82.9773 143.393 83.246 143.402 83.5087 143.358C83.7714 143.314 84.0226 143.218 84.2478 143.076C84.4729 142.934 84.6674 142.748 84.8199 142.53C85.5599 141.72 86.0199 140.3 85.1899 139.53C84.2299 138.67 78.3599 133.14 71.2799 127.37ZM61.6999 125.15L60.3299 122.94C60.8176 122.737 61.2301 122.388 61.5099 121.94L63.6799 122.82C63.1354 122.928 62.6434 123.217 62.2839 123.64C61.9244 124.063 61.7186 124.595 61.6999 125.15ZM64.7699 127.7C64.0472 127.092 63.3781 126.423 62.7699 125.7C62.8399 124.49 63.2199 123.95 64.4299 123.91C65.236 124.295 65.9973 124.768 66.6999 125.32C66.1621 125.451 65.6822 125.755 65.3336 126.184C64.985 126.614 64.787 127.147 64.7699 127.7ZM81.8699 142.25C80.7599 141.32 65.9999 128.8 65.0899 128C65.1662 127.44 65.4107 126.917 65.7911 126.499C66.1714 126.081 66.6696 125.788 67.2199 125.66C70.6699 128.22 75.6299 132.46 84.2799 139.66C83.9432 139.643 83.6068 139.7 83.2943 139.826C82.9819 139.953 82.701 140.147 82.4713 140.393C82.2417 140.64 82.0688 140.934 81.9649 141.255C81.861 141.576 81.8286 141.915 81.8699 142.25ZM161.11 153.33C162.36 154.18 163.23 153.79 164.04 152.61C166.04 149.77 173.04 137.2 173.04 137.1C173.04 137 173.12 137.19 172.79 133.15C172.776 132.998 172.721 132.853 172.631 132.729C172.541 132.606 172.42 132.509 172.28 132.449C172.14 132.388 171.986 132.367 171.835 132.386C171.683 132.406 171.54 132.466 171.42 132.56L168 135.05C168 135.05 160.41 150.74 160.33 150.88C160.193 151.319 160.194 151.79 160.333 152.228C160.473 152.666 160.744 153.051 161.11 153.33ZM171.7 133.78C171.76 134.51 171.84 135.48 171.9 136.15C171.157 135.794 170.38 135.516 169.58 135.32L171.7 133.78ZM168.84 136C169.707 136.614 170.708 137.012 171.76 137.16C171.61 137.42 163.97 151.36 163.89 151.5C163.658 151.027 163.276 150.645 162.804 150.412C162.332 150.178 161.796 150.107 161.28 150.21C162.06 148.76 168.56 136.5 168.84 136Z" fill="black"/>
<path d="M164.24 116.17C164.132 116.019 163.995 115.89 163.837 115.792C163.679 115.695 163.504 115.629 163.32 115.6C162.728 115.442 162.127 115.322 161.52 115.24C161.86 117.62 162.06 120.24 162.05 120.47C162.035 120.622 161.96 120.762 161.842 120.86C161.724 120.957 161.572 121.004 161.42 120.99C161.267 120.972 161.127 120.895 161.03 120.776C160.932 120.656 160.886 120.503 160.9 120.35C160.9 120.18 160.84 119.49 160.79 115.14C158.79 114.89 149.16 114.14 149.54 116.06C149.54 116.16 148.75 121.06 151.81 123.41C154.87 125.76 160.99 125.3 163.13 122.91C163.737 122.182 164.138 121.305 164.29 120.37C164.526 118.978 164.509 117.555 164.24 116.17ZM166.64 107.12C166.64 107.57 166.04 111.01 165.64 115.63L166.12 115.73C167.879 116.103 169.712 115.904 171.35 115.16C171.921 114.843 172.394 114.375 172.717 113.807C173.039 113.239 173.2 112.593 173.18 111.94C173.248 111.128 173.107 110.313 172.77 109.571C172.433 108.829 171.912 108.186 171.257 107.703C170.601 107.22 169.832 106.912 169.024 106.81C168.216 106.708 167.395 106.815 166.64 107.12ZM167.09 107.46C167.728 107.359 168.381 107.396 169.003 107.568C169.626 107.741 170.205 108.045 170.7 108.46C171.175 108.896 171.544 109.436 171.776 110.038C172.009 110.64 172.099 111.287 172.04 111.93C171.95 114.5 169.31 114.99 166.78 114.73C166.9 112.91 167 110.82 167.09 107.46ZM156.38 48.7599C156.377 48.938 156.41 49.1149 156.476 49.2803C156.542 49.4458 156.64 49.5965 156.765 49.7239C156.889 49.8512 157.038 49.9527 157.202 50.0224C157.366 50.092 157.542 50.1286 157.72 50.1299C157.992 50.1358 158.26 50.0606 158.489 49.9137C158.718 49.7669 158.899 49.555 159.007 49.3053C159.115 49.0555 159.147 48.7792 159.097 48.5115C159.048 48.2438 158.92 47.9969 158.729 47.8023C158.539 47.6077 158.295 47.4742 158.029 47.4188C157.762 47.3635 157.485 47.3888 157.233 47.4916C156.981 47.5943 156.765 47.7698 156.613 47.9957C156.461 48.2216 156.38 48.4877 156.38 48.7599ZM46.93 81.7499C47.16 82.1999 47.46 82.2499 47.65 82.1099C47.84 81.9699 111.17 81.4199 115.88 81.1699C116.893 81.1855 117.903 81.0575 118.88 80.7899C121.13 78.7899 122.01 41.3999 121.13 39.6699C118.88 35.1799 48.46 38.0699 44.13 39.3799C40.68 40.4199 45.34 78.5599 46.93 81.7499ZM43.94 40.9999C43.94 40.8199 44.16 40.1199 44.33 40.0699C49.12 38.6299 118.67 36.2599 120.56 40.0199C120.721 40.7722 120.795 41.5406 120.78 42.3099C120.95 46.6699 120.78 56.0099 120.33 64.3799C120.24 65.9799 119.53 79.0899 118.49 80.2799C114.34 81.1599 50.39 81.3599 47.55 81.4699C45.93 77.7099 42.43 47.5999 43.94 40.9999ZM157.85 26.7099C158.122 26.7158 158.389 26.6408 158.618 26.4944C158.847 26.3479 159.027 26.1367 159.136 25.8876C159.244 25.6384 159.276 25.3626 159.228 25.0951C159.179 24.8277 159.052 24.5808 158.863 24.3858C158.674 24.1908 158.43 24.0566 158.165 24.0001C157.899 23.9436 157.622 23.9675 157.37 24.0687C157.118 24.17 156.901 24.3439 156.748 24.5685C156.595 24.7931 156.512 25.0581 156.51 25.3299C156.506 25.5088 156.538 25.6868 156.603 25.8534C156.669 26.02 156.766 26.172 156.891 26.3004C157.016 26.4288 157.165 26.5311 157.329 26.6014C157.494 26.6717 157.671 26.7086 157.85 26.7099Z" fill="black"/>
<path d="M63.5096 66.1999H75.3896C76.7643 66.1946 78.0808 65.6441 79.0501 64.6692C80.0193 63.6943 80.5622 62.3746 80.5596 60.9999V51.3599C80.5597 49.9822 80.0172 48.6599 79.0496 47.6792C78.082 46.6985 76.7671 46.1383 75.3896 46.1199H63.5096C62.8207 46.1172 62.1381 46.251 61.5012 46.5134C60.8642 46.7758 60.2855 47.1616 59.7984 47.6487C59.3113 48.1358 58.9255 48.7145 58.6631 49.3515C58.4007 49.9884 58.2669 50.671 58.2696 51.3599V60.9999C58.2722 61.6854 58.4098 62.3636 58.6746 62.996C58.9393 63.6283 59.326 64.2023 59.8126 64.6851C60.2992 65.168 60.8761 65.5503 61.5104 65.8102C62.1448 66.0701 62.8241 66.2025 63.5096 66.1999ZM59.1196 51.3599C59.1378 50.204 59.6071 49.1011 60.4273 48.2865C61.2475 47.4719 62.3536 47.0102 63.5096 46.9999H75.3896C75.9734 46.9933 76.5527 47.1024 77.0941 47.3209C77.6355 47.5395 78.1282 47.8631 78.5438 48.2731C78.9594 48.6832 79.2897 49.1715 79.5155 49.7099C79.7414 50.2482 79.8583 50.826 79.8596 51.4099V60.9999C79.8569 61.5843 79.7392 62.1624 79.5132 62.7013C79.2871 63.2402 78.9571 63.7293 78.5421 64.1406C78.127 64.552 77.6349 64.8776 77.094 65.0988C76.5531 65.32 75.974 65.4325 75.3896 65.4299H63.5096C62.9304 65.4272 62.3575 65.3106 61.8235 65.0865C61.2894 64.8625 60.8047 64.5354 60.3971 64.1241C59.9894 63.7127 59.6668 63.2251 59.4476 62.689C59.2284 62.153 59.1169 61.579 59.1196 60.9999V51.3599ZM95.6296 73.3399C95.8296 73.9299 96.3296 73.7999 96.4696 73.4299C96.6596 72.8999 97.7696 69.0899 97.9096 68.4299C98.6796 68.1899 96.5096 68.9399 103.22 66.4999C103.289 66.4729 103.349 66.4255 103.391 66.364C103.433 66.3024 103.456 66.2295 103.456 66.1549C103.456 66.0802 103.433 66.0074 103.391 65.9458C103.349 65.8842 103.289 65.8368 103.22 65.8099L92.9396 61.6999C92.8764 61.67 92.8066 61.6572 92.7369 61.6627C92.6673 61.6682 92.6003 61.6919 92.5427 61.7313C92.485 61.7708 92.4387 61.8246 92.4084 61.8875C92.378 61.9504 92.3646 62.0202 92.3696 62.0899C92.3696 62.0899 95.0796 71.7499 95.6296 73.3399ZM93.3996 62.7699L102.06 66.1799C100.9 66.6099 98.9396 67.3499 97.9996 67.7299C97.5796 67.8899 97.4096 67.9599 97.3096 68.0899C97.2096 68.2199 97.5596 67.4399 96.0896 71.9699L93.3996 62.7699ZM117 33.4499C117.011 33.5099 117.044 33.5638 117.091 33.6022C117.139 33.6406 117.198 33.661 117.26 33.6599C117.47 33.6599 123.94 34.2799 125.26 33.9299C126.11 33.6999 126.26 32.1999 126.34 31.3199C126.44 29.9899 126.34 26.7299 125.78 25.6199C125.02 24.1199 119.41 24.6199 117.78 24.9099C117.347 24.9707 116.933 25.1279 116.57 25.3699C116.358 25.6158 116.234 25.9256 116.22 26.2499C116.21 28.6715 116.471 31.0866 117 33.4499ZM117.29 26.1399C118.87 25.6499 123.37 25.4599 124.8 26.1399C125.29 27.4399 125.55 31.9099 124.96 32.9499C124.03 33.1899 118.35 33.1899 117.4 33.1999C117.37 32.4199 116.91 28.2099 117.29 26.1399ZM130.42 33.4099C130.433 33.469 130.466 33.5218 130.513 33.5599C130.56 33.598 130.619 33.6191 130.68 33.6199C130.89 33.6199 137.36 34.2399 138.68 33.8899C139.53 33.6599 139.68 32.1599 139.77 31.2799C139.86 29.9499 139.77 26.6899 139.2 25.5799C138.44 24.0699 132.83 24.5799 131.2 24.8699C130.768 24.9349 130.355 25.0917 129.99 25.3299C129.782 25.5784 129.66 25.8867 129.64 26.2099C129.63 28.6314 129.892 31.0465 130.42 33.4099ZM130.71 26.0999C132.29 25.5999 136.79 25.4199 138.22 26.0999C138.71 27.3999 138.97 31.8699 138.38 32.8999C137.45 33.1499 131.77 33.1499 130.82 33.1599C130.79 32.3799 130.33 28.1699 130.71 26.0999ZM144.46 33.8499C144.471 33.9098 144.504 33.9638 144.551 34.0022C144.599 34.0406 144.658 34.061 144.72 34.0599C144.93 34.0599 151.4 34.6799 152.72 34.3299C153.57 34.0999 153.72 32.5999 153.8 31.7199C153.9 30.3899 153.8 27.1299 153.24 26.0199C152.48 24.5199 146.87 25.0199 145.24 25.3099C144.808 25.3733 144.395 25.5303 144.03 25.7699C143.818 26.0158 143.694 26.3256 143.68 26.6499C143.67 29.0715 143.931 31.4866 144.46 33.8499ZM144.75 26.5399C146.33 26.0499 150.83 25.8599 152.26 26.5399C152.75 27.8399 153.01 32.3099 152.42 33.3499C151.49 33.5899 145.81 33.5899 144.86 33.5999C144.83 32.8199 144.37 28.6099 144.75 26.5399ZM130.51 48.7899C130.58 48.9899 130.74 49.0099 130.77 48.9999C130.99 48.9999 137.45 49.6199 138.77 49.2699C139.62 49.0399 139.77 47.5399 139.86 46.6599C139.95 45.3299 139.86 42.0699 139.3 40.9699C138.53 39.4599 132.92 39.9699 131.3 40.2499C130.864 40.3119 130.448 40.469 130.08 40.7099C129.87 40.9612 129.747 41.2733 129.73 41.5999C129.72 44.0181 129.982 46.4299 130.51 48.7899ZM130.81 41.4799C132.39 40.9899 136.88 40.7999 138.31 41.4799C138.8 42.7799 139.06 47.2499 138.47 48.2899C137.54 48.5299 131.87 48.5299 130.92 48.5399C130.88 47.7599 130.42 43.5499 130.81 41.4799ZM153.89 40.5599C155.49 38.1999 156.89 36.0699 156.94 35.9699C156.99 35.8699 156.26 34.9699 155.83 35.6099C152.77 40.3199 153.19 39.8699 152.97 39.7899C151.21 39.1499 145.53 39.3699 144.64 40.1999C144.04 40.7599 144.27 42.7899 144.34 43.6599C143.7 43.2999 143.21 43.0399 143.03 42.9699C142.57 42.7899 142.6 43.2399 142.85 43.3999L144.41 44.3999C144.536 45.7141 144.74 47.0197 145.02 48.3099C145.029 48.3708 145.061 48.4259 145.109 48.4647C145.157 48.5035 145.218 48.5231 145.28 48.5199C145.49 48.5199 151.96 49.1399 153.28 48.7899C155 48.3099 154.47 41.9999 153.89 40.5599ZM145.31 40.9699C147.662 40.4346 150.099 40.3903 152.47 40.8399L149 46.3099C148.65 46.1099 146.78 45.0099 145.22 44.1299C145.154 43.086 145.184 42.0383 145.31 40.9999V40.9699ZM152.98 47.7699C152.04 48.0199 146.37 48.0199 145.42 48.0299C145.42 47.6299 145.27 46.3199 145.2 44.8699L149 47.2299C149.096 47.2404 149.193 47.2234 149.279 47.1809C149.366 47.1384 149.439 47.0722 149.49 46.9899C149.81 46.5799 151.42 44.2399 153.06 41.8299C153.37 43.6299 153.47 46.9099 153 47.7699H152.98ZM113.22 26.3799C113.491 26.3838 113.757 26.3071 113.985 26.1594C114.213 26.0118 114.391 25.7998 114.498 25.5504C114.605 25.3011 114.636 25.0255 114.586 24.7587C114.537 24.492 114.409 24.246 114.219 24.052C114.029 23.858 113.786 23.7247 113.52 23.6691C113.255 23.6135 112.979 23.638 112.727 23.7395C112.475 23.8411 112.259 24.0151 112.107 24.2395C111.954 24.4638 111.872 24.7285 111.87 24.9999C111.869 25.3607 112.011 25.7073 112.263 25.9652C112.515 26.2232 112.859 26.372 113.22 26.3799Z" fill="black"/>
</svg>
