<svg width="200" height="200" viewBox="0 0 200 200" fill="none" xmlns="http://www.w3.org/2000/svg">
<path d="M140 60.7098C139.716 61.06 139.412 61.3938 139.09 61.7098C139.056 61.751 139.034 61.8013 139.027 61.8546C139.02 61.908 139.029 61.9621 139.052 62.0107C139.075 62.0592 139.112 62.1 139.158 62.1282C139.203 62.1564 139.256 62.1709 139.31 62.1698C140.47 61.4586 141.387 60.4126 141.94 59.1698C142.08 58.7498 141.43 58.3698 141.22 58.8298C140.67 60.0398 138.59 60.1098 138.04 59.9198C137.965 59.8919 137.881 59.8953 137.808 59.929C137.735 59.9628 137.678 60.0242 137.65 60.0998C137.622 60.1754 137.626 60.2589 137.659 60.3321C137.693 60.4052 137.755 60.4619 137.83 60.4898C138.527 60.7308 139.27 60.8061 140 60.7098ZM136.37 55.6098C135.899 56.0287 135.402 56.4162 134.88 56.7698C134.782 56.8333 134.702 56.9209 134.648 57.0242C134.594 57.1275 134.567 57.2431 134.57 57.3598C134.57 57.7198 135.83 58.6598 135.84 58.6698C135.893 58.7091 135.958 58.7285 136.024 58.7245C136.09 58.7205 136.152 58.6934 136.2 58.648C136.248 58.6026 136.278 58.5418 136.285 58.4762C136.293 58.4107 136.277 58.3447 136.24 58.2898C136.17 58.1598 135.77 57.6698 135.52 57.3398C136.65 56.2098 137.16 55.8398 136.78 55.5598C136.716 55.5202 136.641 55.5036 136.566 55.5127C136.492 55.5218 136.423 55.5561 136.37 55.6098ZM135.5 54.9998C135.9 54.8198 135.8 54.3598 136.28 53.1598C136.299 53.1165 136.31 53.0698 136.311 53.0225C136.312 52.9751 136.303 52.9281 136.286 52.884C136.269 52.8399 136.243 52.7996 136.21 52.7654C136.178 52.7312 136.138 52.7038 136.095 52.6848C136.052 52.6658 136.005 52.6554 135.958 52.6544C135.91 52.6534 135.863 52.6617 135.819 52.6789C135.775 52.6961 135.735 52.7218 135.701 52.7545C135.667 52.7873 135.639 52.8265 135.62 52.8698C135.06 54.0398 134.62 54.2798 134.8 54.6898C134.822 54.7589 134.858 54.8225 134.906 54.8765C134.955 54.9305 135.014 54.9736 135.08 55.003C135.146 55.0323 135.218 55.0472 135.29 55.0466C135.363 55.0461 135.434 55.0301 135.5 54.9998ZM139.62 56.2698C140.02 56.0898 139.93 55.6198 140.4 54.4298C140.439 54.3423 140.441 54.2431 140.406 54.154C140.371 54.0649 140.303 53.9933 140.215 53.9548C140.128 53.9163 140.028 53.9142 139.939 53.9489C139.85 53.9836 139.779 54.0523 139.74 54.1398C139.28 55.1398 138.74 55.5598 138.91 55.9598C138.933 56.0292 138.97 56.093 139.02 56.1471C139.069 56.2011 139.129 56.2442 139.196 56.2734C139.263 56.3027 139.335 56.3175 139.408 56.3168C139.482 56.3162 139.554 56.3002 139.62 56.2698ZM58.0901 39.4098C57.6101 35.8398 57.7001 35.7598 57.3901 35.7598C39.9101 35.7598 40.8401 35.6398 40.8401 36.0098V39.3198C40.8401 39.4598 40.9501 39.6298 41.0901 39.6298C58.7801 39.6898 58.1501 39.7898 58.0901 39.4098ZM63.6801 35.7598C58.9001 35.7598 59.1801 35.7598 59.0701 35.8398C58.9601 35.9198 58.9801 35.7698 59.4401 39.4698C59.4401 39.7798 59.4901 39.6898 63.6801 39.6898C63.7464 39.6898 63.81 39.6635 63.8569 39.6166C63.9038 39.5697 63.9301 39.5061 63.9301 39.4398V35.9998C63.9276 35.9352 63.9001 35.8742 63.8535 35.8294C63.8069 35.7847 63.7448 35.7597 63.6801 35.7598ZM150.28 35.8198L143.94 36.2598C143.909 36.2598 143.878 36.266 143.85 36.2782C143.821 36.2904 143.795 36.3082 143.774 36.3307C143.752 36.3531 143.736 36.3796 143.725 36.4087C143.714 36.4378 143.709 36.4688 143.71 36.4998V40.2798C143.71 40.3461 143.736 40.4097 143.783 40.4566C143.83 40.5035 143.894 40.5298 143.96 40.5298H150.29C150.356 40.5298 150.42 40.5035 150.467 40.4566C150.514 40.4097 150.54 40.3461 150.54 40.2798C150.54 35.9998 150.65 35.8098 150.28 35.8198ZM44.1301 53.6198V50.6698C44.1301 50.6035 44.1038 50.5399 44.0569 50.493C44.01 50.4461 43.9464 50.4198 43.8801 50.4198H41.4301C41.3638 50.4198 41.3003 50.4461 41.2534 50.493C41.2065 50.5399 41.1801 50.6035 41.1801 50.6698C41.1801 53.9798 41.1801 53.8198 41.2601 53.9198C41.3401 54.0198 41.2601 53.9998 43.8901 53.8698C43.9539 53.8649 44.0136 53.8367 44.0579 53.7906C44.1021 53.7445 44.1279 53.6837 44.1301 53.6198ZM58.4101 49.7498C44.7301 50.4598 45.2401 50.3098 45.2401 50.6698C45.2401 53.7298 45.2401 53.5798 45.3101 53.6698C45.3801 53.7598 44.6101 53.7498 58.4201 53.5498C58.4864 53.5498 58.55 53.5235 58.5969 53.4766C58.6438 53.4297 58.6701 53.3661 58.6701 53.2998V49.9998C58.6717 49.9657 58.6659 49.9316 58.6533 49.8999C58.6406 49.8682 58.6213 49.8396 58.5967 49.8159C58.5721 49.7923 58.5428 49.7741 58.5106 49.7627C58.4784 49.7513 58.4442 49.7469 58.4101 49.7498ZM78.6901 49.7398V52.6398C78.6901 52.7061 78.7165 52.7697 78.7634 52.8166C78.8102 52.8635 78.8738 52.8898 78.9401 52.8898C82.3801 52.8898 82.2101 52.8898 82.3201 52.7998C82.4301 52.7098 82.4101 52.7998 81.9601 49.6998C81.9601 49.3998 81.8101 49.4898 78.9601 49.4898C78.9257 49.487 78.891 49.4914 78.8583 49.5028C78.8256 49.5141 78.7957 49.5321 78.7703 49.5556C78.7449 49.5791 78.7247 49.6076 78.7109 49.6393C78.6971 49.671 78.69 49.7052 78.6901 49.7398ZM93.4201 52.8398C93.5301 52.7098 93.5001 52.8398 93.1501 49.8998C93.1501 49.5898 93.6501 49.6998 83.8401 49.5198C83.8046 49.5195 83.7695 49.5269 83.737 49.5412C83.7045 49.5556 83.6755 49.5768 83.6519 49.6033C83.6282 49.6298 83.6105 49.661 83.5998 49.6949C83.5892 49.7288 83.5859 49.7645 83.5901 49.7998C83.9701 52.9198 83.9001 52.9198 84.2001 52.9198C94.0001 52.9198 93.3101 52.9998 93.4201 52.8398ZM95.2401 52.8898C99.5001 53.0098 99.2401 53.0298 99.3501 52.8898C99.4601 52.7498 99.4301 52.9598 99.4301 49.7098C99.4276 49.6426 99.399 49.579 99.3505 49.5324C99.3021 49.4858 99.2374 49.4597 99.1701 49.4598C94.5301 49.6398 94.8001 49.5898 94.7001 49.7098C94.6001 49.8298 94.6301 49.7098 95.0001 52.6398C95.0045 52.703 95.0309 52.7627 95.0747 52.8084C95.1186 52.8541 95.1772 52.8829 95.2401 52.8898ZM45.1901 65.6698C45.7801 61.9698 45.7801 62.1698 45.6701 62.0498C45.5601 61.9298 45.7301 61.9498 42.2301 62.1398C42.1674 62.1448 42.1088 62.1734 42.0662 62.2197C42.0235 62.2661 41.9999 62.3268 42.0001 62.3898V65.8498C42.0001 65.9161 42.0265 65.9797 42.0734 66.0266C42.1203 66.0735 42.1838 66.0998 42.2501 66.0998L45.0001 65.8798C45.05 65.8695 45.0953 65.8436 45.1294 65.8058C45.1636 65.7681 45.1848 65.7204 45.1901 65.6698ZM49.8701 65.4498C49.8701 61.8198 49.8701 62.0198 49.7901 61.9098C49.7101 61.7998 49.8501 61.8398 47.0801 61.9598C46.7901 61.9598 46.8501 61.9598 46.4601 65.4198C46.4559 65.4551 46.4592 65.4908 46.4698 65.5247C46.4805 65.5586 46.4982 65.5898 46.5219 65.6163C46.5455 65.6428 46.5745 65.6639 46.607 65.6783C46.6395 65.6927 46.6746 65.7 46.7101 65.6998H49.6201C49.6864 65.6998 49.75 65.6735 49.7969 65.6266C49.8438 65.5797 49.8701 65.5161 49.8701 65.4498ZM54.8701 61.7798C54.8701 65.3998 54.8701 65.1998 54.9401 65.3098C55.0101 65.4198 53.5301 65.4698 79.4901 64.0398C79.5249 64.0375 79.5588 64.0279 79.5897 64.0117C79.6205 63.9955 79.6477 63.973 79.6693 63.9457C79.691 63.9184 79.7067 63.8869 79.7154 63.8531C79.7242 63.8194 79.7258 63.7842 79.7201 63.7498L79.0801 59.6698C79.0703 59.607 79.0368 59.5504 78.9867 59.5114C78.9365 59.4724 78.8734 59.4539 78.8101 59.4598C53.6801 61.6798 54.8701 61.4198 54.8701 61.7798ZM88.0701 63.3998C88.0701 58.6498 88.0701 58.9298 87.9901 58.8198C87.9101 58.7098 88.3401 58.6898 80.7401 59.4398C80.6721 59.4497 80.6104 59.4853 80.5676 59.5392C80.5249 59.5931 80.5043 59.6613 80.5101 59.7298C81.1501 63.9198 81.0701 63.9398 81.3701 63.9398L87.8301 63.6498C87.8947 63.6472 87.9557 63.6197 88.0005 63.5731C88.0452 63.5265 88.0702 63.4644 88.0701 63.3998ZM93.5801 58.9998V63.2798C93.5801 63.3461 93.6065 63.4097 93.6534 63.4566C93.7002 63.5035 93.7638 63.5298 93.8301 63.5298H100.2C100.266 63.5298 100.33 63.5035 100.377 63.4566C100.424 63.4097 100.45 63.3461 100.45 63.2798C100.45 58.3798 100.45 58.7098 100.37 58.5998C100.29 58.4898 100.76 58.4998 93.8201 58.7498C93.7556 58.7524 93.6945 58.7799 93.6498 58.8265C93.6051 58.8731 93.5801 58.9352 93.5801 58.9998ZM125.56 46.5898C118.56 47.0198 118.79 46.8798 118.79 47.2198V51.0898C118.79 51.1561 118.816 51.2197 118.863 51.2666C118.91 51.3135 118.974 51.3398 119.04 51.3398H125.58C125.646 51.3398 125.71 51.3135 125.757 51.2666C125.804 51.2197 125.83 51.1561 125.83 51.0898C125.83 46.8398 125.94 46.5698 125.56 46.5898ZM47.9001 79.1198C48.2101 74.1798 48.2201 74.5798 48.1201 74.4698C48.0201 74.3598 48.4201 74.3898 42.7001 74.3898C42.6338 74.3898 42.5703 74.4161 42.5234 74.463C42.4765 74.5099 42.4501 74.5735 42.4501 74.6398V79.1098C42.4501 79.1761 42.4765 79.2397 42.5234 79.2866C42.5703 79.3335 42.6338 79.3598 42.7001 79.3598H47.6501C47.714 79.3575 47.7748 79.3318 47.821 79.2875C47.8671 79.2432 47.8953 79.1835 47.9001 79.1198ZM61.0501 74.1098C60.9856 74.1124 60.9245 74.1399 60.8798 74.1865C60.8351 74.2331 60.8101 74.2952 60.8101 74.3598V78.1498C60.8101 78.2161 60.8365 78.2797 60.8834 78.3266C60.9303 78.3735 60.9938 78.3998 61.0601 78.3998H65.0001C65.0664 78.3998 65.13 78.3735 65.1769 78.3266C65.2238 78.2797 65.2501 78.2161 65.2501 78.1498V74.2098C65.2476 74.1426 65.219 74.079 65.1705 74.0324C65.1221 73.9858 65.0574 73.9597 64.9901 73.9598L61.0501 74.1098ZM84.1601 73.3398C65.7901 73.8198 66.7301 73.7698 66.7301 74.1298C66.7301 78.3798 66.7301 78.1298 66.8001 78.2398C66.8701 78.3498 65.8001 78.3598 84.1801 77.9198C84.2439 77.9149 84.3036 77.8867 84.3479 77.8406C84.3921 77.7945 84.4179 77.7337 84.4201 77.6698V73.5898C84.4217 73.5557 84.4159 73.5216 84.4033 73.4899C84.3906 73.4582 84.3713 73.4296 84.3467 73.4059C84.3221 73.3823 84.2928 73.3641 84.2606 73.3527C84.2284 73.3413 84.1942 73.3369 84.1601 73.3398ZM100.12 73.2498C99.7001 77.3698 99.6901 77.1198 99.8001 77.2498C99.9101 77.3798 99.2701 77.3298 107.74 77.3298C107.782 77.3337 107.824 77.3272 107.862 77.3107C107.901 77.2943 107.934 77.2684 107.96 77.2356C107.986 77.2028 108.003 77.164 108.01 77.1228C108.017 77.0816 108.014 77.0393 108 76.9998C107.12 72.8498 107.21 72.8298 106.91 72.8398C99.9101 72.9998 100.15 72.9398 100.12 73.2498ZM109.89 77.2798H112.77C112.833 77.28 112.894 77.2564 112.94 77.2138C112.987 77.1711 113.015 77.1126 113.02 77.0498C113.44 72.4598 113.45 72.7498 113.33 72.6298C113.21 72.5098 113.51 72.5398 108.84 72.8198C108.804 72.823 108.769 72.834 108.738 72.8521C108.707 72.8701 108.68 72.8946 108.659 72.9241C108.638 72.9536 108.624 72.9872 108.617 73.0227C108.61 73.0582 108.611 73.0948 108.62 73.1298C109.72 77.3998 109.62 77.2798 109.89 77.2798ZM71.3601 34.0598C67.6301 36.8498 67.1101 37.1198 67.0901 37.4698C67.0901 37.9998 69.0901 39.7898 69.1601 39.8098C69.2157 39.8402 69.2797 39.8516 69.3423 39.8422C69.4049 39.8328 69.4628 39.8032 69.507 39.7578C69.5512 39.7125 69.5793 39.6539 69.5871 39.5911C69.5949 39.5282 69.5819 39.4646 69.5501 39.4098C69.2401 38.9998 68.4801 37.9698 68.2401 37.6298C68.7301 37.1498 70.8101 35.3898 71.7901 34.6298C72.1501 34.3498 71.7201 33.7898 71.3601 34.0598ZM85.4801 33.7998C85.4186 33.7516 85.342 33.7267 85.2638 33.7297C85.1857 33.7327 85.1112 33.7634 85.0535 33.8162C84.9959 33.8691 84.9589 33.9406 84.9491 34.0182C84.9393 34.0958 84.9574 34.1743 85.0001 34.2398C85.8957 35.4357 86.7077 36.692 87.4301 37.9998C87.4301 38.0998 85.9701 39.8798 85.3801 40.7898C85.3397 40.8488 85.3234 40.9211 85.3345 40.9917C85.3457 41.0624 85.3835 41.1261 85.4401 41.1698C85.4967 41.2112 85.565 41.2336 85.6351 41.2336C85.7053 41.2336 85.7736 41.2112 85.8301 41.1698C86.3901 40.5798 87.9801 38.7698 88.2001 38.4298C88.8001 37.4598 86.8801 35.3198 85.4801 33.7998ZM75.5701 34.4898C75.3941 34.4326 75.2079 34.4137 75.024 34.4342C74.84 34.4548 74.6626 34.5144 74.5035 34.6091C74.3445 34.7038 74.2075 34.8313 74.1017 34.9832C73.9959 35.1351 73.9238 35.3078 73.8901 35.4898C73.8093 36.2637 73.7759 37.0418 73.7901 37.8198H72.7901C72.6911 37.8352 72.6009 37.8855 72.5357 37.9616C72.4706 38.0377 72.4348 38.1346 72.4348 38.2348C72.4348 38.335 72.4706 38.4319 72.5357 38.508C72.6009 38.5841 72.6911 38.6344 72.7901 38.6498L73.8401 38.8098C73.8333 39.3452 73.8701 39.8803 73.9501 40.4098C74.0401 40.9498 74.8001 40.8398 74.8601 40.3398C74.9002 39.8606 74.9002 39.379 74.8601 38.8998C75.3301 38.8998 75.7901 38.8998 75.8601 38.4398C75.9301 37.9798 75.3301 37.9098 74.8601 37.8698C74.7701 35.7898 74.9801 35.4798 75.0201 35.4298C75.2901 35.2198 75.7201 35.4298 75.3201 36.0598C75.2734 36.1291 75.2556 36.2139 75.2705 36.2961C75.2855 36.3783 75.332 36.4514 75.4001 36.4998C75.8801 36.8598 76.6501 34.9998 75.5701 34.4898ZM78.8401 37.6998C78.4073 37.7297 77.973 37.7297 77.5401 37.6998C77.4553 37.6998 77.3739 37.7335 77.3139 37.7935C77.2539 37.8535 77.2201 37.9349 77.2201 38.0198C77.2201 38.1047 77.2539 38.1861 77.3139 38.2461C77.3739 38.3061 77.4553 38.3398 77.5401 38.3398L78.5401 38.4698C79.0901 38.5498 78.7901 38.3298 78.9401 39.6598C78.9401 39.8004 78.996 39.9352 79.0954 40.0346C79.1948 40.134 79.3296 40.1898 79.4701 40.1898C79.6107 40.1898 79.7455 40.134 79.8449 40.0346C79.9443 39.9352 80.0001 39.8004 80.0001 39.6598C79.9944 39.3255 79.971 38.9917 79.9301 38.6598H80.5001C80.6328 38.6598 80.7599 38.6071 80.8537 38.5133C80.9475 38.4196 81.0001 38.2924 81.0001 38.1598C81.0001 38.0272 80.9475 37.9 80.8537 37.8062C80.7599 37.7125 80.6328 37.6598 80.5001 37.6598C79.6701 37.6598 79.7901 37.7198 79.7701 37.5598C79.6901 37.0998 79.6101 36.6298 79.5701 36.1698C79.5701 36.0849 79.5364 36.0035 79.4764 35.9435C79.4164 35.8835 79.335 35.8498 79.2501 35.8498C79.1653 35.8498 79.0839 35.8835 79.0239 35.9435C78.9639 36.0035 78.9301 36.0849 78.9301 36.1698C78.8801 36.8098 78.8401 37.4598 78.8401 37.6998Z" fill="black"/>
<path d="M83.9997 37.4998C83.9488 37.0849 83.9187 36.6677 83.9097 36.2498C83.8963 36.1734 83.8563 36.1042 83.7969 36.0543C83.7375 36.0044 83.6623 35.9771 83.5847 35.9771C83.5071 35.9771 83.432 36.0044 83.3726 36.0543C83.3132 36.1042 83.2732 36.1734 83.2597 36.2498C83.2597 36.6998 83.1997 37.1198 83.1597 37.5698C82.7768 37.5936 82.3927 37.5936 82.0097 37.5698C81.9208 37.5844 81.8399 37.6301 81.7816 37.6988C81.7232 37.7675 81.6912 37.8547 81.6912 37.9448C81.6912 38.035 81.7232 38.1222 81.7816 38.1908C81.8399 38.2595 81.9208 38.3053 82.0097 38.3198C82.3797 38.3198 82.7197 38.3798 83.0997 38.4098C83.0197 39.2898 82.9397 40.1798 83.6097 40.1798C84.2797 40.1798 84.1997 39.2798 84.1197 38.4498C84.6697 38.4498 85.3897 38.4498 85.3697 37.9298C85.3497 37.4098 84.5797 37.4498 83.9997 37.4998ZM63.6797 43.3698C62.4197 43.6998 61.6797 44.9498 61.5597 46.6998C61.5097 48.1498 61.9197 49.9898 60.6497 50.8398C60.5617 50.8988 60.4929 50.9824 60.452 51.0802C60.4111 51.178 60.3999 51.2857 60.4197 51.3898C60.5997 52.2698 62.1797 51.0098 61.8597 54.7498C61.7389 55.2255 61.7417 55.7241 61.8677 56.1984C61.9937 56.6727 62.2388 57.1069 62.5797 57.4598C62.8949 57.6832 63.2569 57.8317 63.6381 57.8941C64.0194 57.9565 64.4098 57.9311 64.7797 57.8198C64.8486 57.8022 64.9096 57.7622 64.9532 57.706C64.9967 57.6499 65.0204 57.5809 65.0204 57.5098C65.0204 57.4388 64.9967 57.3697 64.9532 57.3136C64.9096 57.2575 64.8486 57.2174 64.7797 57.1998C64.0897 57.0998 63.2897 57.1998 62.9297 56.6098C62.6244 55.8005 62.579 54.9162 62.7997 54.0798C62.8999 53.5418 62.8676 52.9876 62.7056 52.4649C62.5436 51.9422 62.2567 51.4668 61.8697 51.0798C63.5797 48.9898 61.3997 44.8398 63.8697 43.9998C63.934 43.9606 63.9834 43.9012 64.0103 43.831C64.0371 43.7607 64.0399 43.6835 64.0182 43.6114C63.9965 43.5394 63.9514 43.4766 63.8902 43.4328C63.8289 43.3891 63.7549 43.367 63.6797 43.3698ZM76.2297 44.0798C75.4797 43.2498 74.4297 43.6498 73.6297 43.5098C73.5831 43.5 73.535 43.4994 73.4882 43.5081C73.4413 43.5169 73.3967 43.5348 73.3568 43.5608C73.3168 43.5868 73.2824 43.6204 73.2555 43.6597C73.2285 43.699 73.2096 43.7432 73.1997 43.7898C73.1899 43.8364 73.1893 43.8845 73.1981 43.9314C73.2068 43.9782 73.2247 44.0229 73.2507 44.0628C73.2767 44.1027 73.3103 44.1372 73.3496 44.1641C73.3889 44.191 73.4331 44.21 73.4797 44.2198C74.3197 44.3798 75.2597 44.1398 75.6097 44.8998C76.2697 46.3598 74.7597 50.1298 76.0597 51.7298C74.8997 53.1398 76.2797 55.3698 75.2397 56.3798C74.8496 56.7251 74.3401 56.9045 73.8197 56.8798C73.7423 56.8661 73.6624 56.8814 73.5955 56.9229C73.5286 56.9643 73.4793 57.0289 73.4571 57.1044C73.4348 57.1798 73.4411 57.2609 73.4748 57.332C73.5085 57.4031 73.5672 57.4593 73.6397 57.4898C73.928 57.5832 74.2318 57.6186 74.5338 57.5942C74.8357 57.5697 75.1299 57.4859 75.3994 57.3474C75.6688 57.209 75.9083 57.0187 76.104 56.7874C76.2997 56.5561 76.4478 56.2885 76.5397 55.9998C76.6734 55.414 76.6734 54.8056 76.5397 54.2198C76.2097 51.8298 77.2297 52.4798 77.2497 51.7698C77.2697 51.0598 76.3197 51.6098 76.4897 49.5398C76.7597 46.8298 77.1097 45.0498 76.2297 44.0798Z" fill="black"/>
<path d="M66.1697 48.0799C65.8502 48.0592 65.5311 48.1266 65.2472 48.2747C64.9633 48.4229 64.7255 48.646 64.5597 48.9199C64.3244 49.1393 64.1494 49.4154 64.0513 49.7218C63.9533 50.0282 63.9355 50.3547 63.9997 50.6699C64.2195 51.1615 64.6022 51.5623 65.0831 51.8046C65.564 52.0469 66.1138 52.1159 66.6397 51.9999C66.4097 52.9999 66.1397 53.4599 64.8497 53.1999C64.76 53.1943 64.6712 53.2206 64.5991 53.2743C64.527 53.328 64.4762 53.4054 64.4558 53.493C64.4354 53.5805 64.4467 53.6725 64.4877 53.7525C64.5287 53.8325 64.5967 53.8953 64.6797 53.9299C65.8597 54.2099 66.9797 53.9299 67.3397 52.8099C68.4597 49.9999 67.3397 48.3099 66.1697 48.0799ZM65.7997 51.0799C65.1497 50.8499 64.9897 50.5799 64.9397 50.3799C64.8897 50.1799 65.0297 49.8199 65.3097 49.4899C65.5897 49.1599 65.7697 48.9299 66.0497 49.0399C67.1097 49.4899 66.9997 51.5299 65.7997 51.1099V51.0799ZM70.9097 50.5199C69.2197 50.2199 68.1797 52.2199 68.9097 53.1599C69.2606 53.5008 69.7305 53.6915 70.2197 53.6915C70.7089 53.6915 71.1788 53.5008 71.5297 53.1599C71.5297 53.4099 71.5297 53.6899 71.5897 53.8399C71.592 53.9091 71.6199 53.975 71.6679 54.0248C71.7159 54.0747 71.7807 54.105 71.8497 54.1099C71.9196 54.11 71.9868 54.0829 72.0372 54.0344C72.0875 53.9859 72.1171 53.9198 72.1197 53.8499C72.1197 53.4699 72.2997 51.7499 72.2597 51.6299C72.1612 51.3371 71.9824 51.0777 71.7437 50.8815C71.5051 50.6853 71.2161 50.56 70.9097 50.5199ZM71.3097 51.7299C71.3097 52.0299 70.9397 52.5099 70.7597 52.6099C70.2597 52.8799 69.7597 52.8599 69.6397 52.6799C69.5197 52.4999 69.9097 51.3899 70.5197 51.3899C70.7497 51.3899 71.2597 51.4899 71.3097 51.7299ZM130.1 35.8299C128.65 35.5699 127.29 37.4199 127.86 38.9799C127.993 39.4302 128.28 39.8192 128.672 40.0788C129.063 40.3384 129.533 40.4521 130 40.3999C132.76 40.1099 132.19 36.2199 130.1 35.8299ZM130 39.3899C128.73 39.6899 128.28 38.0799 129 37.1499C129.097 37.0097 129.225 36.8935 129.374 36.8103C129.523 36.7271 129.689 36.6791 129.86 36.6699C130.099 36.713 130.325 36.8114 130.519 36.9572C130.714 37.1031 130.871 37.2923 130.98 37.5099C131.099 37.8892 131.062 38.3002 130.879 38.6527C130.695 39.0052 130.379 39.2704 130 39.3899ZM135.78 36.1499C135.69 36.8699 135.11 39.5499 135.1 40.2499C135.113 40.3649 135.165 40.472 135.246 40.5544C135.328 40.6367 135.434 40.6895 135.549 40.7045C135.664 40.7194 135.78 40.6956 135.88 40.6368C135.98 40.578 136.057 40.4876 136.1 40.3799C136.26 39.6799 136.36 36.9099 136.44 36.2199C136.52 35.7699 135.84 35.7199 135.78 36.1499ZM132.74 40.0499C132.678 40.032 132.614 40.0277 132.551 40.0373C132.488 40.0468 132.427 40.07 132.374 40.1052C132.321 40.1404 132.276 40.1868 132.242 40.2412C132.209 40.2955 132.187 40.3565 132.18 40.4199C132.09 41.2399 131.11 41.4899 131.42 41.9199C131.463 41.9827 131.527 42.0276 131.601 42.0461C131.674 42.0645 131.752 42.0552 131.82 42.0199C132.114 41.8865 132.377 41.6931 132.593 41.452C132.808 41.2109 132.97 40.9275 133.07 40.6199C133.086 40.5608 133.091 40.499 133.083 40.4381C133.075 40.3772 133.056 40.3185 133.025 40.2654C132.994 40.2122 132.953 40.1658 132.904 40.1288C132.855 40.0918 132.799 40.065 132.74 40.0499ZM125.74 39.3199C125.74 39.0971 125.651 38.8835 125.494 38.726C125.336 38.5684 125.122 38.4799 124.9 38.4799C124.677 38.4799 124.463 38.5684 124.306 38.726C124.148 38.8835 124.06 39.0971 124.06 39.3199C124.06 39.5427 124.148 39.7564 124.306 39.9139C124.463 40.0714 124.677 40.1599 124.9 40.1599C125.122 40.1599 125.336 40.0714 125.494 39.9139C125.651 39.7564 125.74 39.5427 125.74 39.3199ZM101.49 52.1899C101.49 52.4127 101.578 52.6264 101.736 52.7839C101.893 52.9414 102.107 53.0299 102.33 53.0299C102.552 53.0299 102.766 52.9414 102.924 52.7839C103.081 52.6264 103.17 52.4127 103.17 52.1899C103.17 51.9671 103.081 51.7535 102.924 51.596C102.766 51.4384 102.552 51.3499 102.33 51.3499C102.107 51.3499 101.893 51.4384 101.736 51.596C101.578 51.7535 101.49 51.9671 101.49 52.1899ZM50.9997 77.9999C51.0126 77.8826 51.0006 77.7639 50.9645 77.6515C50.9284 77.5391 50.869 77.4356 50.7902 77.3477C50.7114 77.2598 50.615 77.1895 50.5072 77.1414C50.3994 77.0933 50.2827 77.0684 50.1647 77.0684C50.0467 77.0684 49.93 77.0933 49.8222 77.1414C49.7144 77.1895 49.618 77.2598 49.5392 77.3477C49.4604 77.4356 49.4011 77.5391 49.365 77.6515C49.3289 77.7639 49.3168 77.8826 49.3297 77.9999C49.3168 78.1173 49.3289 78.236 49.365 78.3484C49.4011 78.4607 49.4604 78.5642 49.5392 78.6521C49.618 78.74 49.7144 78.8103 49.8222 78.8584C49.93 78.9066 50.0467 78.9314 50.1647 78.9314C50.2827 78.9314 50.3994 78.9066 50.5072 78.8584C50.615 78.8103 50.7114 78.74 50.7902 78.6521C50.869 78.5642 50.9284 78.4607 50.9645 78.3484C51.0006 78.236 51.0126 78.1173 50.9997 77.9999ZM56.8997 77.2899C56.8997 77.5127 56.9882 77.7264 57.1457 77.8839C57.3033 78.0414 57.5169 78.1299 57.7397 78.1299C57.9625 78.1299 58.1761 78.0414 58.3337 77.8839C58.4912 77.7264 58.5797 77.5127 58.5797 77.2899C58.5797 77.0671 58.4912 76.8535 58.3337 76.696C58.1761 76.5384 57.9625 76.4499 57.7397 76.4499C57.5169 76.4499 57.3033 76.5384 57.1457 76.696C56.9882 76.8535 56.8997 77.0671 56.8997 77.2899ZM95.8497 75.3299C95.6414 75.3526 95.4489 75.4514 95.309 75.6074C95.1691 75.7633 95.0918 75.9654 95.0918 76.1749C95.0918 76.3844 95.1691 76.5865 95.309 76.7425C95.4489 76.8984 95.6414 76.9972 95.8497 77.0199C96.058 76.9972 96.2505 76.8984 96.3904 76.7425C96.5303 76.5865 96.6076 76.3844 96.6076 76.1749C96.6076 75.9654 96.5303 75.7633 96.3904 75.6074C96.2505 75.4514 96.058 75.3526 95.8497 75.3299ZM105.62 52.6699C105.731 52.6727 105.841 52.6528 105.944 52.6116C106.048 52.5703 106.141 52.5086 106.22 52.43C106.298 52.3514 106.36 52.2577 106.401 52.1546C106.443 52.0514 106.462 51.941 106.46 51.8299C106.437 51.6217 106.338 51.4291 106.182 51.2892C106.026 51.1493 105.824 51.072 105.615 51.072C105.405 51.072 105.203 51.1493 105.047 51.2892C104.891 51.4291 104.792 51.6217 104.77 51.8299C104.767 51.9419 104.787 52.0532 104.829 52.157C104.871 52.2609 104.933 52.355 105.013 52.4337C105.093 52.5124 105.188 52.574 105.292 52.6146C105.396 52.6552 105.508 52.6741 105.62 52.6699ZM51.7197 30.1499C51.8999 30.1289 52.066 30.0424 52.1866 29.9069C52.3072 29.7714 52.3738 29.5963 52.3738 29.4149C52.3738 29.2335 52.3072 29.0585 52.1866 28.923C52.066 28.7875 51.8999 28.701 51.7197 28.6799C51.5395 28.701 51.3734 28.7875 51.2528 28.923C51.1322 29.0585 51.0656 29.2335 51.0656 29.4149C51.0656 29.5963 51.1322 29.7714 51.2528 29.9069C51.3734 30.0424 51.5395 30.1289 51.7197 30.1499ZM55.4097 30.1499C55.5899 30.1289 55.756 30.0424 55.8766 29.9069C55.9972 29.7714 56.0638 29.5963 56.0638 29.4149C56.0638 29.2335 55.9972 29.0585 55.8766 28.923C55.756 28.7875 55.5899 28.701 55.4097 28.6799C55.2295 28.701 55.0634 28.7875 54.9428 28.923C54.8222 29.0585 54.7556 29.2335 54.7556 29.4149C54.7556 29.5963 54.8222 29.7714 54.9428 29.9069C55.0634 30.0424 55.2295 30.1289 55.4097 30.1499ZM59.3997 30.1399C59.5799 30.1189 59.746 30.0324 59.8666 29.8969C59.9872 29.7614 60.0538 29.5863 60.0538 29.4049C60.0538 29.2235 59.9872 29.0485 59.8666 28.913C59.746 28.7775 59.5799 28.691 59.3997 28.6699C59.2195 28.691 59.0534 28.7775 58.9328 28.913C58.8122 29.0485 58.7456 29.2235 58.7456 29.4049C58.7456 29.5863 58.8122 29.7614 58.9328 29.8969C59.0534 30.0324 59.2195 30.1189 59.3997 30.1399ZM55.7297 71.2499C55.7558 71.1969 55.7677 71.1381 55.7641 71.0791C55.7606 71.0202 55.7417 70.9631 55.7094 70.9137C55.6771 70.8642 55.6325 70.824 55.5799 70.7971C55.5274 70.7701 55.4687 70.7573 55.4097 70.7599C55.1497 70.7599 55.0997 71.0299 54.8997 71.4199C53.5097 74.1799 51.6397 77.9199 51.4997 78.4199C51.4625 78.5258 51.4671 78.6418 51.5126 78.7444C51.5581 78.8469 51.641 78.9282 51.7445 78.9717C51.8479 79.0151 51.9641 79.0174 52.0691 78.978C52.1742 78.9386 52.2602 78.8606 52.3097 78.7599C52.6597 78.2099 55.3797 71.9199 55.7297 71.2499ZM58.5597 70.3299C58.5299 70.278 58.487 70.2348 58.4352 70.2048C58.3834 70.1748 58.3246 70.159 58.2647 70.159C58.2048 70.159 58.146 70.1748 58.0942 70.2048C58.0424 70.2348 57.9995 70.278 57.9697 70.3299C56.3197 73.7599 53.7997 78.6499 53.6997 79.0299C53.685 79.1004 53.686 79.1733 53.7027 79.2434C53.7193 79.3135 53.7512 79.379 53.7961 79.4353C53.841 79.4917 53.8977 79.5374 53.9623 79.5693C54.0269 79.6012 54.0977 79.6185 54.1697 79.6199C54.5597 79.6199 54.6897 79.4899 58.0897 71.7599C58.5697 70.7099 58.7097 70.5599 58.5597 70.3299ZM88.8097 78.7099C87.834 77.2942 87.2779 75.6318 87.2054 73.914C87.1328 72.1962 87.5468 70.4928 88.3997 68.9999C88.4474 68.9283 88.4648 68.8407 88.4479 68.7563C88.431 68.6719 88.3813 68.5977 88.3097 68.5499C88.2381 68.5022 88.1505 68.4848 88.0661 68.5017C87.9817 68.5186 87.9074 68.5683 87.8597 68.6399C86.7015 70.1546 86.1155 72.0297 86.2052 73.9343C86.2948 75.839 87.0544 77.6507 88.3497 79.0499C88.4013 79.0874 88.4635 79.1074 88.5272 79.1071C88.591 79.1068 88.6529 79.0862 88.7042 79.0484C88.7555 79.0105 88.7933 78.9572 88.8123 78.8964C88.8313 78.8355 88.8304 78.7702 88.8097 78.7099Z" fill="black"/>
<path d="M97.1197 67.9398C96.4197 68.2098 97.8997 69.0398 97.6697 73.8098C97.4697 77.8098 95.9797 79.0798 96.2197 79.4798C96.2455 79.517 96.2799 79.5473 96.3199 79.5683C96.36 79.5892 96.4045 79.6001 96.4497 79.6001C96.4949 79.6001 96.5394 79.5892 96.5795 79.5683C96.6195 79.5473 96.6539 79.517 96.6797 79.4798C97.7464 77.8015 98.3837 75.8864 98.5354 73.9035C98.6871 71.9207 98.3486 69.931 97.5497 68.1098C97.5146 68.0308 97.4499 67.9687 97.3694 67.9369C97.289 67.9051 97.1994 67.9062 97.1197 67.9398ZM89.0797 73.6198C87.4597 74.7798 88.8297 76.6198 90.4797 76.1598V78.8698C90.4797 79.2798 90.0597 79.4898 89.8097 79.1398C89.7616 79.0751 89.6909 79.0309 89.6117 79.016C89.5324 79.0012 89.4505 79.0168 89.3823 79.0598C89.314 79.1027 89.2645 79.1699 89.2437 79.2477C89.2228 79.3256 89.2321 79.4085 89.2697 79.4798C89.389 79.6758 89.5677 79.8286 89.7797 79.9162C89.9918 80.0038 90.2262 80.0216 90.4491 79.967C90.6719 79.9124 90.8716 79.7883 91.0191 79.6126C91.1667 79.4369 91.2544 79.2188 91.2697 78.9898C91.2697 78.6698 91.5797 74.2898 91.1697 73.7598C91.0425 73.6121 90.8872 73.4912 90.7128 73.4041C90.5385 73.3169 90.3485 73.2653 90.154 73.2523C89.9595 73.2393 89.7644 73.2651 89.5799 73.3282C89.3955 73.3913 89.2255 73.4904 89.0797 73.6198ZM90.2497 74.2498C90.358 74.3608 90.4258 74.505 90.4422 74.6592C90.4585 74.8134 90.4224 74.9687 90.3397 75.0998C90.1197 75.3398 89.3397 75.2598 89.2297 74.8598C89.1197 74.4598 89.8897 73.9998 90.2497 74.2498ZM93.2897 73.4498C92.9456 73.5186 92.6334 73.6978 92.4006 73.9603C92.1678 74.2228 92.0271 74.5542 91.9999 74.904C91.9727 75.2538 92.0606 75.6029 92.2501 75.8982C92.4396 76.1935 92.7204 76.4188 93.0497 76.5398C93.3221 76.6418 93.6201 76.6531 93.8993 76.572C94.1786 76.4909 94.4243 76.3218 94.5997 76.0898C94.6354 76.027 94.6496 75.9542 94.6399 75.8826C94.6302 75.8109 94.5973 75.7445 94.5462 75.6933C94.4951 75.6422 94.4286 75.6093 94.357 75.5996C94.2854 75.59 94.2125 75.6041 94.1497 75.6398C93.8797 75.7998 92.9297 75.7998 92.8597 75.0198C92.8434 74.8651 92.8749 74.7092 92.9501 74.573C93.0252 74.4368 93.1403 74.3269 93.2799 74.2583C93.4195 74.1896 93.5767 74.1653 93.7305 74.1889C93.8842 74.2124 94.0271 74.2826 94.1397 74.3898C94.21 74.4561 94.3037 74.4918 94.4003 74.489C94.4969 74.4862 94.5884 74.4451 94.6547 74.3748C94.721 74.3046 94.7567 74.2108 94.7539 74.1142C94.751 74.0177 94.71 73.9261 94.6397 73.8598C94.4641 73.6882 94.2498 73.5613 94.0148 73.4899C93.7798 73.4186 93.5311 73.4048 93.2897 73.4498ZM45.6497 30.3998C45.7486 30.4321 45.8552 30.4321 45.9541 30.3997C46.053 30.3673 46.139 30.3043 46.1997 30.2198C46.4297 29.9098 47.0897 27.0698 47.2897 26.3898C47.3162 26.3036 47.3074 26.2104 47.2652 26.1307C47.223 26.051 47.1509 25.9914 47.0647 25.9648C46.9785 25.9383 46.8853 25.9471 46.8056 25.9893C46.7259 26.0315 46.6662 26.1036 46.6397 26.1898C45.6797 28.9998 44.8897 30.1598 45.6497 30.3998ZM75.1097 122.54C74.2897 123.468 73.4148 124.346 72.4897 125.17C72.4386 125.22 72.398 125.28 72.3703 125.346C72.3426 125.412 72.3284 125.483 72.3284 125.555C72.3284 125.627 72.3426 125.697 72.3703 125.764C72.398 125.83 72.4386 125.89 72.4897 125.94C73.2597 126.63 74.0697 127.26 74.8097 127.94C74.8641 127.982 74.9309 128.005 74.9997 128.005C75.0685 128.005 75.1353 127.982 75.1897 127.94C75.2328 127.888 75.2564 127.822 75.2564 127.755C75.2564 127.687 75.2328 127.622 75.1897 127.57C74.6597 126.88 74.1297 126.2 73.5697 125.57C74.341 124.769 75.0498 123.909 75.6897 123C75.9997 122.61 75.3897 122.18 75.1097 122.54ZM109 126.23C109.12 126.23 109 126.23 110.29 125.38C112.68 123.7 112.92 123.59 112.85 123.11C112.76 122.41 111.85 122.3 109.4 121.11C109.307 121.058 109.197 121.045 109.095 121.074C108.993 121.104 108.906 121.172 108.855 121.265C108.803 121.358 108.79 121.467 108.819 121.569C108.848 121.672 108.917 121.758 109.01 121.81C109.47 122.07 110.92 122.98 111.48 123.32C110.03 124.68 108.8 125.81 108.8 125.81C108.773 125.849 108.758 125.894 108.754 125.941C108.751 125.988 108.76 126.035 108.78 126.077C108.8 126.119 108.831 126.156 108.869 126.183C108.908 126.209 108.953 126.226 109 126.23ZM101.78 124.52C103.12 124.52 104.39 124.3 105.68 124.24C105.773 124.24 105.862 124.203 105.927 124.137C105.993 124.072 106.03 123.983 106.03 123.89C106.03 123.797 105.993 123.708 105.927 123.642C105.862 123.577 105.773 123.54 105.68 123.54C104.37 123.54 103.12 123.33 101.78 123.42C101.634 123.42 101.494 123.478 101.391 123.581C101.288 123.684 101.23 123.824 101.23 123.97C101.23 124.116 101.288 124.256 101.391 124.359C101.494 124.462 101.634 124.52 101.78 124.52ZM94.3497 124.8C94.9897 124.8 97.7497 124.51 98.0497 124.49C98.1399 124.49 98.2263 124.454 98.2901 124.39C98.3539 124.326 98.3897 124.24 98.3897 124.15C98.3897 124.06 98.3539 123.973 98.2901 123.909C98.2263 123.846 98.1399 123.81 98.0497 123.81C97.7497 123.81 94.9897 123.63 94.3497 123.71C94.2179 123.728 94.097 123.793 94.0094 123.893C93.9219 123.993 93.8737 124.122 93.8737 124.255C93.8737 124.388 93.9219 124.516 94.0094 124.617C94.097 124.717 94.2179 124.782 94.3497 124.8ZM85.2897 124.16C85.2201 124.161 85.1514 124.176 85.0876 124.204C85.0238 124.232 84.9661 124.272 84.9178 124.322C84.8695 124.372 84.8316 124.431 84.8062 124.496C84.7808 124.561 84.7684 124.63 84.7697 124.7C84.7697 125.29 85.3797 125.26 85.7697 125.26C86.9178 125.207 88.0626 125.097 89.1997 124.93C89.2886 124.915 89.3695 124.87 89.4279 124.801C89.4862 124.732 89.5183 124.645 89.5183 124.555C89.5183 124.465 89.4862 124.378 89.4279 124.309C89.3695 124.24 89.2886 124.194 89.1997 124.18C88.5297 124.23 85.9297 124.14 85.2897 124.16ZM81.2597 124.71C80.5197 124.71 77.6997 124.58 76.9797 124.71C76.8471 124.71 76.7199 124.763 76.6262 124.856C76.5324 124.95 76.4797 125.077 76.4797 125.21C76.4797 125.342 76.5324 125.47 76.6262 125.563C76.7199 125.657 76.8471 125.71 76.9797 125.71C77.7297 125.81 80.5297 125.53 81.2597 125.5C81.3645 125.5 81.4649 125.458 81.539 125.384C81.6131 125.31 81.6547 125.21 81.6547 125.105C81.6547 125 81.6131 124.9 81.539 124.826C81.4649 124.751 81.3645 124.71 81.2597 124.71ZM42.5797 15.2998C42.3478 15.0107 42.0463 14.7851 41.7035 14.6442C41.3607 14.5033 40.9877 14.4518 40.6195 14.4944C40.2513 14.537 39.8999 14.6723 39.5983 14.8878C39.2966 15.1032 39.0546 15.3917 38.8949 15.7262C38.7352 16.0606 38.663 16.4302 38.685 16.8002C38.7071 17.1702 38.8227 17.5285 39.021 17.8417C39.2194 18.1548 39.4939 18.4125 39.819 18.5906C40.1441 18.7686 40.509 18.8613 40.8797 18.8598C41.2951 18.8663 41.7036 18.7534 42.0567 18.5346C42.4098 18.3157 42.6927 18.0001 42.8717 17.6252C43.0508 17.2503 43.1184 16.8319 43.0666 16.4197C43.0149 16.0075 42.8459 15.6188 42.5797 15.2998ZM42.0297 17.2998C41.9037 17.535 41.7073 17.7248 41.4681 17.8429C41.2289 17.961 40.9587 18.0014 40.6954 17.9584C40.4321 17.9154 40.1888 17.7913 39.9996 17.6033C39.8103 17.4153 39.6845 17.1728 39.6397 16.9098C39.5917 16.7212 39.5867 16.5242 39.625 16.3333C39.6633 16.1425 39.744 15.9627 39.8611 15.8072C39.9782 15.6517 40.1287 15.5245 40.3016 15.4349C40.4744 15.3454 40.6651 15.2958 40.8597 15.2898C41.0865 15.309 41.3052 15.3831 41.4969 15.5059C41.6886 15.6286 41.8475 15.7962 41.9598 15.9942C42.0721 16.1922 42.1344 16.4146 42.1413 16.6421C42.1483 16.8696 42.0997 17.0954 41.9997 17.2998H42.0297ZM51.9997 15.5498C51.7115 15.1731 51.3077 14.9012 50.8503 14.7757C50.3928 14.6502 49.9068 14.6781 49.4667 14.855C49.0266 15.032 48.6566 15.3483 48.4133 15.7555C48.1701 16.1627 48.0669 16.6384 48.1197 17.1098C48.1643 17.5822 48.3585 18.0279 48.6738 18.3823C48.9892 18.7368 49.4094 18.9814 49.8733 19.0806C50.3372 19.1799 50.8207 19.1286 51.2534 18.9342C51.6862 18.7399 52.0457 18.4125 52.2797 17.9998C52.4548 17.6034 52.5212 17.1675 52.472 16.7369C52.4228 16.3063 52.2598 15.8966 51.9997 15.5498ZM49.5997 15.7598C49.8495 15.5955 50.1497 15.5254 50.4465 15.5621C50.7433 15.5987 51.0173 15.7397 51.2197 15.9598C51.406 16.1793 51.5258 16.4475 51.5647 16.7327C51.6037 17.018 51.5603 17.3084 51.4397 17.5698C51.312 17.7944 51.1198 17.9755 50.8881 18.0896C50.6563 18.2037 50.3956 18.2456 50.1397 18.2098C49.8744 18.1649 49.6285 18.0423 49.4329 17.8576C49.2373 17.6728 49.1009 17.4342 49.041 17.172C48.981 16.9097 49.0002 16.6355 49.0961 16.3842C49.192 16.1328 49.3603 15.9155 49.5797 15.7598H49.5997ZM61.3897 15.8098C61.1581 15.521 60.857 15.2956 60.5147 15.1547C60.1723 15.0138 59.7998 14.9619 59.4319 15.0041C59.0641 15.0462 58.713 15.1809 58.4113 15.3956C58.1097 15.6102 57.8674 15.8979 57.7071 16.2316C57.5468 16.5654 57.4737 16.9343 57.4947 17.3039C57.5156 17.6736 57.63 18.0319 57.827 18.3453C58.024 18.6588 58.2973 18.9172 58.6213 19.0963C58.9453 19.2755 59.3095 19.3696 59.6797 19.3698C60.0959 19.3783 60.5058 19.2668 60.8605 19.0487C61.2151 18.8306 61.4995 18.5151 61.6797 18.1399C61.86 17.7646 61.9285 17.3454 61.8771 16.9322C61.8257 16.5191 61.6565 16.1295 61.3897 15.8098ZM60.8297 17.8098C60.711 18.0002 60.5455 18.1569 60.3489 18.265C60.1523 18.373 59.9312 18.4287 59.7069 18.4268C59.4825 18.4249 59.2625 18.3654 59.0677 18.2541C58.873 18.1427 58.7101 17.9832 58.5947 17.7909C58.4793 17.5985 58.4152 17.3797 58.4086 17.1555C58.402 16.9312 58.453 16.7091 58.5569 16.5102C58.6608 16.3114 58.814 16.1426 59.0019 16.0199C59.1897 15.8973 59.4059 15.825 59.6297 15.8098C59.8614 15.8179 60.0873 15.8839 60.287 16.0016C60.4867 16.1193 60.6538 16.2851 60.773 16.4838C60.8923 16.6826 60.9599 16.9081 60.9698 17.1396C60.9797 17.3712 60.9316 17.6016 60.8297 17.8098Z" fill="black"/>
<path d="M146.67 32.4698C146.955 31.8873 147.087 31.2415 147.052 30.5938C147.017 29.9462 146.816 29.3182 146.47 28.7698C145.66 27.5698 144.03 27.6098 142.72 27.6398C138.67 27.7398 43.6 24.8298 43.5 24.8198C42.9202 24.6799 42.3089 24.7657 41.79 25.0598C40.2 26.2198 40.25 30.3498 42.04 31.3898C42.5692 31.6284 43.1563 31.7083 43.73 31.6198L143.57 34.2898C144.202 34.2878 144.821 34.1182 145.366 33.7985C145.91 33.4788 146.36 33.0203 146.67 32.4698ZM49.15 26.0898C48.6058 27.3587 48.1546 28.6655 47.8 29.9998C47.7973 30.0593 47.8067 30.1187 47.8276 30.1744C47.8485 30.2301 47.8805 30.281 47.9216 30.324C47.9627 30.367 48.0122 30.4012 48.0669 30.4245C48.1216 30.4479 48.1805 30.4599 48.24 30.4598C48.69 30.4598 48.77 30.0498 49.45 27.5898C49.82 26.2098 49.92 26.1698 49.74 25.9798C64.07 26.4298 143.52 28.6398 143.68 28.6498C144.91 28.6498 145.58 29.0298 145.85 29.7398C146.054 30.2188 146.11 30.7475 146.012 31.2586C145.914 31.7698 145.666 32.2402 145.3 32.6098C144.858 32.9196 144.36 33.1392 143.833 33.2558C143.306 33.3725 142.761 33.3841 142.23 33.2898C136.4 33.0898 42.8 30.6998 42.7 30.6798C41.39 30.3598 41.28 27.2698 42.08 26.0598C42.37 25.6298 42.81 25.6498 43.5 25.7398C50 26.0598 49.24 25.8298 49.15 26.0898ZM82.07 85.5398C82.07 84.5398 82.91 84.9798 46.07 85.9698C45.8586 85.9548 45.6466 85.9905 45.4518 86.074C45.257 86.1575 45.0849 86.2864 44.95 86.4498C44.57 87.0198 45.23 117.66 45.25 117.95C45.2552 118.076 45.3091 118.196 45.4004 118.283C45.4918 118.371 45.6135 118.42 45.74 118.42C45.74 118.42 49.67 118.28 53.11 118.18C83.3 117.31 82.91 116.88 82.88 116.47C82.8 115.7 82.08 86.0698 82.07 85.5398ZM45.78 87.1398C45.78 87.0698 45.97 87.0098 46.07 86.9998C47.4 86.9998 79.89 85.9998 81.07 85.9998C81.16 88.9998 82 114.52 82.07 116.07C76.93 116.4 49.98 117.35 46.24 117.43C45.65 109.26 45.72 87.7398 45.78 87.1398Z" fill="black"/>
<path d="M47.4897 114.84C48.2697 114.27 62.9197 101.95 63.4097 101.55C67.2797 104.64 78.1597 113.33 80.4797 115.21C80.8397 115.5 81.2997 114.98 80.9497 114.68C76.8097 111.24 66.2897 102.68 64.1597 100.92C65.1597 100.14 77.7297 89.6198 79.3297 88.3298C79.6697 88.0398 79.2297 87.5398 78.8797 87.8098C74.7497 91.1298 64.9997 98.9998 63.3797 100.31C60.2797 97.8598 50.2697 90.1498 47.8597 88.4098C47.7928 88.3709 47.7141 88.3576 47.6381 88.3723C47.5622 88.3869 47.4941 88.4286 47.4465 88.4896C47.3989 88.5506 47.3751 88.6268 47.3793 88.7041C47.3836 88.7813 47.4157 88.8544 47.4697 88.9098C50.8997 91.7098 62.3697 100.73 62.6297 100.91C59.3497 103.64 48.0497 113.15 46.9897 114.22C46.9075 114.286 46.855 114.382 46.8437 114.487C46.8325 114.592 46.8634 114.698 46.9297 114.78C46.996 114.862 47.0922 114.915 47.1973 114.926C47.3023 114.937 47.4075 114.906 47.4897 114.84ZM119.15 111.33C115.84 108.61 108.96 102.63 107.65 101.49C110.58 98.9098 119.65 90.4898 121.47 88.8298C121.537 88.7662 121.577 88.6783 121.58 88.5854C121.583 88.4926 121.548 88.4024 121.485 88.3348C121.421 88.2672 121.333 88.2276 121.24 88.2248C121.147 88.222 121.057 88.2562 120.99 88.3198C119.64 89.5698 107.33 100.49 106.93 100.85C105.31 99.4398 92.5597 88.1698 92.0597 87.7498C91.9971 87.7013 91.9189 87.6778 91.84 87.6836C91.761 87.6895 91.6871 87.7244 91.6324 87.7815C91.5777 87.8387 91.5461 87.9141 91.5438 87.9932C91.5414 88.0723 91.5685 88.1495 91.6197 88.2098C92.4497 89.0598 103.94 99.6298 106.13 101.56C104.96 102.56 93.3697 112.81 92.1297 113.91C92.0834 113.946 92.0504 113.997 92.0356 114.054C92.0208 114.111 92.025 114.171 92.0477 114.226C92.0703 114.28 92.1101 114.326 92.1611 114.355C92.212 114.385 92.2712 114.397 92.3297 114.39C92.7997 114.39 105.9 102.99 106.82 102.19C109.01 104.04 116.71 110.31 118.65 111.86C119.05 112.14 119.51 111.63 119.15 111.33ZM20.5397 160.2C20.5397 160.2 47.7697 158.64 48.2597 158.6C48.3378 158.594 48.4134 158.57 48.4806 158.53C48.5477 158.49 48.6045 158.434 48.6463 158.368C48.6881 158.302 48.7139 158.227 48.7214 158.149C48.7289 158.071 48.7181 157.993 48.6897 157.92C48.7397 151.32 49.4297 138.92 49.0097 138.28C48.8736 138.113 48.6945 137.987 48.4918 137.915C48.2891 137.842 48.0705 137.827 47.8597 137.87L20.6897 139.21C20.5623 139.215 20.4416 139.268 20.3524 139.36C20.2632 139.451 20.2121 139.572 20.2097 139.7C20.0397 143.63 19.6897 159.42 19.7797 159.7C19.826 159.86 19.9281 159.998 20.0674 160.09C20.2067 160.182 20.3742 160.221 20.5397 160.2ZM48.1697 139.08C48.1697 139.9 48.1197 143.41 47.7897 157.62C45.0397 157.73 21.3497 159.14 20.7897 159.17C20.7897 157.06 21.1297 142.55 21.2197 140.17L47.9197 138.83C47.9852 138.832 48.0474 138.859 48.0937 138.906C48.1401 138.952 48.1672 139.014 48.1697 139.08ZM57.4097 157.44C57.5397 157.91 57.9897 157.93 58.4597 157.89C87.5797 155.63 86.0797 156.42 86.2797 156.05C86.3597 155.89 86.2097 156.71 86.5597 146.25C86.5597 144.96 86.9497 136.48 86.6297 135.99C86.4951 135.821 86.3161 135.694 86.113 135.621C85.9099 135.549 85.6905 135.534 85.4797 135.58C85.3397 135.58 59.6997 136.84 58.3197 136.92C58.1905 136.922 58.0674 136.975 57.976 137.066C57.8847 137.158 57.8323 137.281 57.8297 137.41C57.6697 141.1 57.3097 157.1 57.4097 157.44ZM58.4097 156.88C58.4097 154.71 58.7597 140.17 58.8397 137.88L85.6797 136.54C85.9097 136.54 85.9097 135.07 85.4397 155.31C82.6597 155.43 58.9997 156.84 58.3797 156.88H58.4097ZM92.1397 155C92.2797 155.46 92.7197 155.48 93.1997 155.44C122.32 153.17 120.82 153.97 121.02 153.6C121.1 153.45 120.95 154.21 121.3 143.81C121.3 142.49 121.69 134.05 121.37 133.54C121.235 133.371 121.056 133.244 120.853 133.171C120.65 133.099 120.431 133.084 120.22 133.13L93.0597 134.47C92.9305 134.472 92.8074 134.525 92.716 134.616C92.6247 134.708 92.5722 134.831 92.5697 134.96C92.3997 138.84 92.0497 154.63 92.1397 155ZM93.5497 135.45L120.39 134.11C120.62 134.11 120.61 132.66 120.15 152.88C117.4 152.98 93.6997 154.39 93.1497 154.43C93.1197 154.29 93.4597 137.86 93.5497 135.41V135.45Z" fill="black"/>
<path d="M46.74 139.56C43.74 141.89 35.91 147.46 34.8 148.27C33.89 147.72 23.64 141.58 22.53 140.89C22.4584 140.843 22.3712 140.827 22.2878 140.845C22.2043 140.863 22.1314 140.913 22.085 140.985C22.0385 141.056 22.0225 141.144 22.0403 141.227C22.0581 141.31 22.1083 141.383 22.18 141.43C23.67 142.43 32.02 147.73 33.91 148.91C33.31 149.34 23.04 156.73 22.43 157.23C22.3774 157.272 22.3394 157.329 22.3213 157.394C22.3032 157.459 22.306 157.527 22.3292 157.591C22.3525 157.654 22.395 157.708 22.4508 157.745C22.5066 157.783 22.5728 157.802 22.64 157.8C22.98 157.8 34.64 149.71 34.91 149.51C37.26 150.88 45.69 155.57 46.62 156.06C46.6797 156.098 46.7513 156.113 46.8213 156.102C46.8914 156.091 46.9549 156.054 47 156C47.0294 155.931 47.0356 155.855 47.0175 155.783C46.9994 155.711 46.9581 155.646 46.9 155.6C43.18 153.4 39.42 151.12 35.78 148.91C37.95 147.3 47.14 140.13 47.14 140.13C47.2155 140.077 47.267 139.996 47.2829 139.905C47.2988 139.814 47.278 139.72 47.225 139.645C47.1719 139.569 47.091 139.518 47.0001 139.502C46.9091 139.486 46.8155 139.507 46.74 139.56ZM84.87 137C84.09 137.55 72.08 145.89 71.17 146.54C69 145.05 61.94 140.13 60.35 138.9C60.01 138.64 59.6 139.17 59.93 139.43C62.62 141.55 68.78 146.12 70.27 147.19C68.04 148.85 60.54 154.03 59.11 155.45C59.0743 155.484 59.0496 155.528 59.0391 155.577C59.0286 155.625 59.0327 155.676 59.0509 155.722C59.0692 155.768 59.1006 155.807 59.1414 155.836C59.1822 155.864 59.2304 155.879 59.28 155.88C59.42 155.88 60.15 155.47 71.11 147.77C73.56 149.39 81.48 154.11 83.26 155.06C83.3149 155.083 83.3762 155.086 83.433 155.068C83.4898 155.049 83.5382 155.012 83.5696 154.961C83.601 154.91 83.6132 154.85 83.6041 154.791C83.595 154.732 83.5652 154.679 83.52 154.64C82.04 153.64 72.75 147.64 72.02 147.12C73.82 145.85 84.5 138.01 85.22 137.49C85.2849 137.443 85.3288 137.373 85.3419 137.294C85.3551 137.216 85.3364 137.135 85.29 137.07C85.2435 137.005 85.1732 136.961 85.0945 136.948C85.0157 136.935 84.9349 136.953 84.87 137ZM107.33 143.66C109.81 145.32 117.33 150.57 118.95 151.81C118.983 151.838 119.022 151.859 119.064 151.873C119.106 151.886 119.15 151.891 119.193 151.887C119.237 151.883 119.279 151.871 119.318 151.851C119.357 151.831 119.392 151.803 119.42 151.77C119.448 151.736 119.47 151.698 119.483 151.656C119.496 151.614 119.501 151.57 119.497 151.527C119.494 151.483 119.481 151.44 119.461 151.401C119.441 151.363 119.413 151.328 119.38 151.3C118.09 150.3 110.14 144.36 108.27 143.04C109.27 142.39 118.48 136.04 119.58 135.31C119.618 135.286 119.651 135.255 119.677 135.219C119.703 135.182 119.722 135.141 119.732 135.098C119.743 135.054 119.744 135.009 119.737 134.964C119.729 134.92 119.714 134.878 119.69 134.84C119.666 134.802 119.635 134.769 119.599 134.743C119.563 134.716 119.521 134.698 119.478 134.687C119.434 134.677 119.389 134.676 119.345 134.683C119.3 134.69 119.258 134.706 119.22 134.73C118.32 135.32 107.82 141.97 107.22 142.36C105.15 141.06 98.22 137 96.36 136.14C96.2883 136.105 96.206 136.101 96.131 136.127C96.056 136.153 95.9945 136.208 95.96 136.28C95.74 136.7 95.79 136.4 106.28 142.98C103.35 144.98 94.28 151.41 93.36 152.13C93.3098 152.182 93.2771 152.249 93.2663 152.32C93.2556 152.392 93.2673 152.465 93.3 152.53C93.3428 152.593 93.4079 152.637 93.4822 152.654C93.5564 152.67 93.6343 152.658 93.7 152.62C94.78 152 107.33 143.66 107.33 143.66Z" fill="black"/>
<path d="M195 172.65C193.9 172.4 188 171.6 157.13 167.05C156.478 166.133 155.972 165.121 155.63 164.05C155.5 161.05 154.73 151.53 154.48 149.67C153.98 145.97 152.97 142.27 153.05 138.46C154.12 138.23 155.18 137.98 156.2 137.7C156.287 137.672 156.363 137.618 156.417 137.544C156.471 137.47 156.5 137.381 156.5 137.29C156.513 133.551 156.239 129.817 155.68 126.12C157.36 124.26 157.3 120.76 157.24 117.91C157.24 115.31 157.33 113.49 157.32 95.9099C160.39 93.4999 159.69 88.1499 159.32 85.4299C160.21 84.8099 160.25 84.8099 160.26 84.6599C160.183 83.6848 159.981 82.7236 159.66 81.7999C159.448 81.3151 159.138 80.8793 158.75 80.5199C159.09 80.0199 159.15 79.9799 159.08 79.8199C158.51 78.6499 158.08 77.8199 157.52 76.9299V68.1599C159.315 68.3575 161.123 67.9301 162.64 66.9499C162.695 66.9207 162.737 66.8722 162.758 66.8137C162.779 66.7553 162.777 66.691 162.754 66.6336C162.73 66.5761 162.686 66.5296 162.63 66.503C162.573 66.4765 162.509 66.4718 162.45 66.4899C161.09 66.8199 160.11 66.6599 159.53 65.9999C158.1 64.3999 159.26 60.1799 159.83 58.6799C161.17 54.9399 162.83 54.8099 163.23 52.1199C163.457 50.1813 163.027 48.2225 162.008 46.5579C160.988 44.8932 159.44 43.619 157.61 42.9399C157.61 42.8599 157.88 27.6899 157.89 27.2199C157.99 22.9099 158.12 17.0099 153.3 15.0599C152.212 14.6959 151.064 14.5498 149.92 14.6299C149.71 14.6299 44.0498 11.2499 43.3098 11.1999C41.3135 10.9705 39.2954 11.0108 37.3098 11.3199C32.3098 12.3999 32.2398 17.3199 32.2098 20.5199C32.2098 20.7899 32.2698 48.7099 32.3098 75.2799C28.9398 75.1999 15.5098 75.1799 12.6998 75.2799C10.3298 75.2799 8.25984 75.4499 6.93984 76.4599C6.29535 76.9694 5.77247 77.6161 5.40922 78.353C5.04596 79.0898 4.85146 79.8984 4.83984 80.7199C4.83984 90.5099 5.83984 149.25 5.29984 168.81C5.22984 171.35 6.36984 173.35 8.29984 173.94C7.10984 175.55 8.29984 177.38 9.99984 178.14C23.1698 180.98 61.3798 189.14 64.3998 189.14C65.9498 189.14 143.76 181.57 190.29 177.08C192.97 177.08 195.62 175.71 195.29 173.23C195.17 172.63 195.17 172.69 195 172.65ZM153.39 149C154.01 153.91 154.21 158.9 154.58 163.84C153.549 164.233 152.41 164.233 151.38 163.84C148.38 158.15 143.63 150.43 144.38 143.72C144.61 141.56 144.7 140.61 143.47 138.81C144.54 138.74 145.63 138.64 146.77 138.46C146.98 138.46 147.06 138.46 147.77 134.56C149.2 138.96 149.2 139.26 149.55 139.18L152.13 138.63C152 142.14 152.91 145.57 153.39 149ZM124 172.88C125.42 174.42 129.34 172.18 131.11 171.03C131.149 171.007 131.18 170.972 131.2 170.932C131.219 170.891 131.226 170.845 131.22 170.8C131.189 170.592 131.201 170.379 131.256 170.176C131.311 169.973 131.408 169.784 131.54 169.62C131.566 169.581 131.6 169.547 131.64 169.521C131.679 169.496 131.723 169.478 131.77 169.47C131.93 169.47 132.24 169.76 132.39 170.31C132.54 170.86 133.98 170.53 134.39 170.31C134.56 170.21 134.57 170.23 134.39 167.31C138.95 168.16 147.94 169.71 151.19 170.31C151.29 170.74 151.39 171.16 151.5 171.56C140.5 172.56 63.6798 179.42 61.7498 179.56C60.6198 179.3 37.4698 175.17 36.6598 175.03C57.7198 173.3 112.73 168.8 127.31 167.55C125.37 170.47 123.72 170.85 123.65 171.19C123.564 171.479 123.551 171.784 123.612 172.079C123.673 172.374 123.806 172.649 124 172.88ZM122.3 131.49C116.6 131.68 42.6898 134.3 38.2498 133.2C34.6698 132.75 32.9898 129.66 33.2498 124.02C33.3098 121.02 33.0598 33.3799 33.0098 21.7599C49.2698 22.4999 146.4 25.2099 156.92 25.2999C156.92 27.1499 156.75 36.2999 156.64 42.6099C153.3 41.7499 149.17 42.4999 149.77 45.7799C149.78 45.8341 149.808 45.8833 149.85 45.9199C150.228 46.2152 150.543 46.583 150.778 47.0017C151.012 47.4203 151.16 47.8815 151.214 48.3582C151.268 48.8349 151.227 49.3175 151.092 49.778C150.957 50.2384 150.732 50.6674 150.43 51.0399C150.19 51.3199 150.86 52.5399 150.54 56.8199C150.11 62.5699 153.06 66.8199 156.43 67.8699C156.43 69.1699 156.38 74.0099 156.38 75.1499C152.87 69.6799 151.02 68.7299 145.18 64.9399C144.88 64.7399 144.87 65.2699 145.95 61.1599C146.641 60.9381 147.274 60.5643 147.802 60.0659C148.329 59.5675 148.739 58.9572 149 58.2799C149.22 55.9518 149.22 53.608 149 51.2799C149.267 50.3895 149.329 49.4503 149.181 48.5326C149.034 47.6149 148.682 46.7422 148.15 45.9799C147.237 44.4369 145.862 43.2197 144.22 42.4999C141.03 41.1599 138.07 42.4999 135.45 43.6499C132.45 45.0599 132.63 45.9099 133 49.1699C133.004 49.4298 133.069 49.6853 133.188 49.9161C133.308 50.1469 133.48 50.3467 133.69 50.4999C132.99 52.8499 131.98 57.1799 132.74 59.4999C133.031 60.3321 133.486 61.0973 134.079 61.7501C134.672 62.4029 135.39 62.9299 136.19 63.2999C136.12 63.5999 135.97 64.1599 135.86 64.5799C135.37 64.4499 134.47 64.2299 133.94 64.1099C130.57 62.5399 127.51 60.7499 124.05 61.1099C123.782 61.1478 123.528 61.2508 123.31 61.4099C122.803 60.9231 122.21 60.5364 121.56 60.2699C121.02 59.2699 112.04 44.8699 111.93 44.6999C111.48 43.9899 111.1 43.3699 111.43 42.6499C111.76 41.9299 112.64 40.6499 112.54 39.5899L120.74 39.5399C121.005 39.5399 121.259 39.4345 121.447 39.247C121.634 39.0595 121.74 38.8051 121.74 38.5399V35.7799C121.74 35.5147 121.634 35.2603 121.447 35.0728C121.259 34.8852 121.005 34.7799 120.74 34.7799H90.9998C90.7346 34.7799 90.4803 34.8852 90.2927 35.0728C90.1052 35.2603 89.9998 35.5147 89.9998 35.7799V38.9999C89.9998 39.2651 90.1052 39.5194 90.2927 39.707C90.4803 39.8945 90.7346 39.9999 90.9998 39.9999L102.29 39.8899C103.389 41.7909 105.029 43.3224 107 44.2899C107.42 44.5099 107.38 44.5399 108.19 48.8299C109.51 55.7399 110.87 62.8899 115.19 68.5999C115.11 68.7999 115.05 68.9999 114.98 69.1999C114.959 69.2665 114.955 69.3371 114.967 69.4058C114.979 69.4744 115.007 69.5393 115.049 69.595C115.091 69.6506 115.146 69.6955 115.208 69.7259C115.271 69.7564 115.34 69.7714 115.41 69.7699C115.741 69.7605 116.069 69.8217 116.375 69.9493C116.68 70.0769 116.954 70.268 117.18 70.5099C117.01 72.4599 117.39 73.5099 119.7 75.2399C120.28 75.6699 124.19 77.7999 125.22 78.3399C124.76 80.1599 124.37 82.0199 124 83.8899C113.51 84.2399 90.5598 84.4499 89.9998 84.8899C89.8329 85.0218 89.699 85.1908 89.6088 85.3835C89.5185 85.5761 89.4744 85.7872 89.4798 85.9999C89.3198 89.9999 88.9798 112.84 89.0098 113.89C89.0098 115.89 89.3399 117.11 91.4698 116.89C93.0199 116.89 112.18 116.4 120.04 116.2C119.92 117.52 119.88 117.54 120.04 117.65C120.939 118.333 121.956 118.844 123.04 119.16C122.328 123.229 122.077 127.365 122.29 131.49H122.3ZM140 70.7999C137.61 71.0799 133.82 70.6999 133.14 68.4999C132.88 67.4999 133.83 65.7099 134.34 65.0899L136.08 65.4999C136.186 65.5243 136.297 65.5067 136.39 65.4508C136.484 65.3948 136.552 65.3049 136.58 65.1999C136.71 64.6399 136.87 64.0399 136.98 63.5999C137.37 63.7299 137.79 63.8899 137.88 63.5199C137.89 63.4805 137.893 63.4394 137.888 63.3989C137.882 63.3585 137.869 63.3195 137.849 63.2842C137.828 63.2489 137.801 63.218 137.769 63.1932C137.736 63.1685 137.699 63.1503 137.66 63.1399C134.66 62.3099 133.03 59.3599 133.66 55.9299C133.974 53.6688 134.422 51.4282 135 49.2199C135.87 50.1964 137.036 50.8617 138.32 51.1145C139.603 51.3672 140.934 51.1935 142.11 50.6199C141.861 52.4509 142.005 54.3139 142.532 56.0848C143.06 57.8558 143.959 59.4939 145.17 60.8899C144 64.8899 143.96 64.8899 144.26 65.3299C144.56 65.7699 145.57 66.1899 146.72 67.0699C145.001 69.0808 142.615 70.405 140 70.7999ZM140 72.5999C139.48 72.5999 140 71.6499 140.43 71.6499C140.86 71.6499 140.34 72.5699 140 72.5999ZM136.93 72.3499C136.93 72.8699 135.93 73.2599 135.57 72.9999C135.21 72.7399 135.76 72.1299 136.3 71.9999C136.428 71.9659 136.565 71.9834 136.681 72.0488C136.797 72.1142 136.883 72.2222 136.92 72.3499H136.93ZM133.57 71.4399C133.529 71.4757 133.48 71.5013 133.427 71.5143C133.374 71.5273 133.319 71.5275 133.266 71.5147C133.213 71.502 133.164 71.4767 133.123 71.4411C133.082 71.4054 133.05 71.3604 133.03 71.3099C132.92 70.7799 133.71 70.4899 133.87 70.6999C134.03 70.9099 133.91 71.1499 133.56 71.4399H133.57ZM148.4 86.7399C148.465 86.7666 148.519 86.8126 148.557 86.8717C148.595 86.9307 148.613 86.9999 148.61 87.0699C148.592 87.1373 148.553 87.1975 148.499 87.2422C148.446 87.287 148.379 87.3141 148.31 87.3199C145.31 87.0499 143.06 85.0999 142.44 81.3899C142.424 81.3063 142.442 81.2199 142.49 81.1496C142.538 81.0792 142.611 81.0308 142.695 81.0149C142.778 80.999 142.865 81.0169 142.935 81.0647C143.005 81.1125 143.054 81.1863 143.07 81.2699C143.394 82.5706 144.057 83.7622 144.991 84.7231C145.926 85.684 147.099 86.3799 148.39 86.7399H148.4ZM109.2 39.8299C109.26 40.0799 108.55 40.1699 107.93 41.8799C107.914 41.9585 107.927 42.0402 107.967 42.1098C108.007 42.1793 108.072 42.2318 108.147 42.2575C108.223 42.2833 108.306 42.2804 108.38 42.2496C108.454 42.2187 108.515 42.162 108.55 42.0899C109.08 40.6499 110.32 40.9199 110.08 39.7499C109.61 37.4799 110.17 36.3099 110.95 36.5399C111.1 36.5399 111.02 38.5399 111.51 39.0499C112.38 40.0499 110.8 41.5499 110.51 42.6599C110.43 43.0218 110.433 43.3972 110.52 43.7576C110.606 44.118 110.774 44.4539 111.01 44.7399C111.2 45.0299 120.17 59.5199 120.77 60.4599C118.656 62.5387 116.885 64.9382 115.52 67.5699C110.68 60.7399 109.73 52.1499 108.1 44.3099C107.898 43.8856 107.539 43.5559 107.1 43.3899C105.548 42.5848 104.242 41.3756 103.32 39.8899L109.2 39.8299ZM120.83 61.6399C121.28 61.1399 121.33 61.0399 121.5 61.0799C121.909 61.2861 122.292 61.5413 122.64 61.8399C121.46 62.7699 118.23 66.5199 117.38 69.3899C116.954 69.1004 116.462 68.9217 115.95 68.8699C116.87 66.0899 118.89 63.8299 120.83 61.6399ZM120.13 115.32C112.03 115.46 91.6498 116.03 90.3698 115.84C89.9998 115.51 90.0198 114.78 90.0298 114.19C90.0298 114.08 90.3098 87.5699 90.4598 85.8699C90.4598 85.5299 87.9798 85.6799 123.78 84.7999C122 94.4499 121.12 104.93 120.13 115.32ZM123.81 119.4C124.894 119.599 126.006 119.599 127.09 119.4C127.143 119.392 127.192 119.367 127.229 119.329C127.267 119.292 127.292 119.243 127.3 119.19C129.36 107.99 127.44 107.19 129.3 86.8599C130.3 75.4699 131.8 71.7099 131.5 71.3399C129.88 69.3399 130.88 67.1699 132.94 65.6999C131.94 67.4999 132.22 68.9599 133.02 69.8699C132.77 69.9627 132.557 70.1334 132.412 70.3569C132.266 70.5804 132.197 70.8447 132.214 71.1106C132.231 71.3766 132.333 71.63 132.505 71.8334C132.677 72.0368 132.91 72.1793 133.17 72.2399C133.532 72.2633 133.889 72.1482 134.17 71.918C134.45 71.6877 134.632 71.3596 134.68 70.9999C134.99 71.126 135.307 71.2329 135.63 71.3199C134.28 72.1199 134.32 73.8799 135.9 73.8799C136.347 73.9092 136.789 73.7676 137.137 73.4836C137.484 73.1996 137.71 72.7944 137.77 72.3499C137.77 71.2799 136.65 71.7099 139.14 71.6499C138.19 73.5799 140.8 74.0399 141.33 72.1699C141.422 71.9112 141.422 71.6286 141.33 71.3699C145.95 70.3699 143.42 68.5599 141.33 76.4299C139.68 82.5699 140.33 89.8899 141.2 94.9999C140.049 95.9057 138.978 96.9094 138 97.9999C136.86 95.6099 136.37 94.5299 136.12 94.0599C135.87 93.5899 135.86 93.6999 135.72 93.7399C135.19 93.9199 133.77 94.4799 132.41 95.0499C132.98 88.9399 133.31 85.1899 134.41 76.2399C134.416 76.1621 134.394 76.0847 134.346 76.0231C134.298 75.9615 134.228 75.9202 134.151 75.9076C134.074 75.895 133.995 75.9119 133.93 75.955C133.865 75.998 133.818 76.064 133.8 76.1399C132.93 81.4799 131.9 88.3899 131.47 95.4599C130.47 95.8799 129.95 96.0899 129.69 96.2399C129.43 96.3899 129.45 96.4599 129.5 96.5899C129.72 97.1199 130.36 98.5899 131.15 100.4C130.15 108.11 127.71 131.52 127.47 134.91C125.904 134.078 124.454 133.042 123.16 131.83C122.905 127.675 123.123 123.505 123.81 119.4ZM140.09 102.58C140.65 102.1 141.53 101.26 142.09 100.71C143.52 113.24 144.51 107.18 143.38 128.24C143.15 132.5 142.95 136.24 143.08 137.89C140.743 138.046 138.397 137.955 136.08 137.62C136.2 135.07 137.32 112.39 137.52 110C139.032 109.402 140.496 108.69 141.9 107.87C142.1 107.69 142.05 107.91 140.09 102.58ZM150.67 164.58V166.11C143.23 165.01 137.01 164.11 134.19 163.65C134.14 163.05 134.1 162.56 134.07 162.26C135.99 155.89 138.83 147.43 136.23 141.26C135.88 140.42 135.6 141.17 136.84 138.69C138.722 138.901 140.618 138.968 142.51 138.89C144.28 141.32 143.56 141.69 143.4 143.89C142.84 151.28 147.05 157.94 150.67 164.58ZM150.73 167.15C150.79 167.89 150.9 168.66 151.03 169.42L134.36 166.49C134.36 165.85 134.29 165.21 134.25 164.61C137.58 165.17 143.66 166.1 150.73 167.15ZM135.1 137.46C132.755 137.064 130.476 136.343 128.33 135.32C128.43 134.4 131.25 107.14 131.81 101.97C134.56 108.22 135.31 109.97 135.58 110.41C135.71 110.62 135.73 110.57 135.8 110.57C136.069 110.521 136.334 110.448 136.59 110.35C135.94 117.63 135.15 134.81 135.1 137.46ZM135.89 138.53C134.82 140.41 134.72 140.53 135.22 141.39C136.22 143.12 136.28 146.32 136.22 148.31C136.05 151.98 133.34 161.04 133.07 161.93C132.653 162.298 132.138 162.537 131.587 162.617C131.036 162.697 130.474 162.615 129.97 162.38C129.76 162.3 129.83 162.53 129.71 160.94C129.32 155.66 128.3 142 127.71 136.1C130.301 137.311 133.058 138.13 135.89 138.53ZM149.72 121.84C150.18 125.78 151.67 135.98 151.93 137.72L149.85 138.24C149.52 137.24 148.46 133.5 148.05 132.63C148.005 132.549 147.937 132.483 147.855 132.441C147.772 132.399 147.679 132.383 147.587 132.394C147.495 132.406 147.409 132.446 147.34 132.507C147.271 132.569 147.222 132.65 147.2 132.74C146.9 134.36 146.61 135.99 146.32 137.61C145.47 137.69 144.7 137.75 143.99 137.8C143.99 132.74 144.17 127.57 144.47 122.44C146.14 122.31 148.85 122 149.72 121.84ZM145.93 107.59C145.924 107.525 145.944 107.461 145.985 107.41C146.026 107.36 146.085 107.327 146.15 107.32C153.15 106.48 152.87 106.41 152.97 106.69C153.192 107.428 153.266 108.203 153.19 108.97C153.19 109.24 153.48 109.08 146.43 109.97C146.08 110.06 146.14 109.72 145.93 107.59ZM152.85 137.49C151.61 130.96 151.3 128.43 150.48 121.71C151.6 121.612 152.712 121.441 153.81 121.2C155.003 126.341 155.611 131.602 155.62 136.88C154.66 137.07 153.7 137.29 152.85 137.49ZM156.35 107.88C156.25 121.53 156.6 122.51 155.45 124.81C155.22 123.47 154.96 122.12 154.66 120.81C154.975 120.587 155.258 120.321 155.5 120.02C155.79 119.67 154.72 107.02 152.99 97.8699C153.83 97.5499 155.5 96.8699 156.4 96.4099C156.41 100.22 156.38 104.11 156.35 107.88ZM158.28 92.7199C158.057 93.68 157.487 94.524 156.68 95.0899C152.41 97.8499 142.24 99.2099 142.14 99.2199C142.092 99.2291 142.048 99.2506 142.011 99.2821C141.974 99.3137 141.946 99.3543 141.93 99.3999C141.238 100.37 140.429 101.25 139.52 102.02C138.989 102.635 138.296 103.089 137.52 103.33C136.91 103.42 135.43 102.68 137.07 102.53C137.506 102.544 137.934 102.419 138.294 102.172C138.654 101.926 138.925 101.571 139.07 101.16C139.093 101.096 139.092 101.025 139.069 100.961C139.045 100.897 138.999 100.844 138.94 100.81C138.36 100.54 138.84 101.91 136.07 101.81C135.4 101.81 134.54 100.95 135.64 101.03C137.42 101.17 138.64 99.9499 138.2 99.6199C138.153 99.5817 138.095 99.5608 138.035 99.5608C137.975 99.5608 137.916 99.5817 137.87 99.6199C137.1 100.44 135.95 100.24 134.79 100.1C134.22 100.03 133.79 99.4199 134.54 99.2999C135.54 99.1399 137.99 99.1499 138.27 98.8699C141.27 95.5399 145.59 93.3299 149.11 91.5599C152.359 89.9626 155.473 88.1032 158.42 85.9999C158.779 88.23 158.731 90.5066 158.28 92.7199ZM158.05 81.3799C158.603 82.2098 158.901 83.1828 158.91 84.1799C156.277 86.1483 153.528 87.9581 150.68 89.5999C150.6 89.0299 150.46 87.9799 150.44 87.5999C154.23 85.4499 156.91 83.2399 158.05 81.3799ZM37.8398 12.0699C70.7098 12.8299 149.11 15.4399 149.11 15.4399C150.54 15.4399 151.26 15.5099 151.61 15.4899H151.7C154.49 15.8799 156.08 18.4899 156.6 20.5899C156.856 21.8529 156.964 23.1418 156.92 24.4299C139.59 24.1399 80.6998 22.7999 32.9998 20.7499C32.9998 16.3299 33.4198 12.6599 37.8398 12.0699ZM32.9998 130C30.4598 130 22.4698 130 19.9298 130.12C19.9298 127 19.7498 105.44 19.7198 102.31C21.6098 102.38 30.2898 102.16 32.2798 102.11C32.2998 127.29 31.9998 127.33 32.9998 130ZM32.2598 92.9999C29.4898 92.9999 21.0698 92.9999 19.1598 93.0899C19.2198 91.9499 19.2598 89.0899 19.2898 87.7199C21.1498 87.7199 29.4098 87.4899 32.2898 87.3299C32.2498 89.1799 32.2498 91.0799 32.2498 92.9299L32.2598 92.9999ZM32.2598 86.4299C30.8798 86.4299 19.4698 86.7799 18.8898 86.8299C18.3098 86.8799 18.4198 87.4199 18.3898 88.4199C18.2798 91.7299 18.2498 93.0699 18.3098 93.6199C18.3598 93.9899 18.4398 93.9999 18.5798 94.0099C19.8798 94.0999 30.9498 93.9199 32.2698 93.8999V101.21C18.4998 101.37 18.8798 101.35 18.8798 101.9C18.8798 102.16 18.8798 128.51 18.9898 130.8C18.9898 131.27 20.1698 131.15 33.4598 131.04C35.0498 134.04 37.5998 134.28 40.9898 134.52C44.3798 134.76 119.07 132.58 122.52 132.46C123.744 133.82 125.217 134.934 126.86 135.74C127.35 141.37 128.06 151.74 128.5 158.36C122.21 158.78 17.4998 166.53 13.7798 166.8C13.7798 164.31 13.3298 81.8599 13.3298 81.8599C14.9698 81.8599 30.3298 81.6099 32.2398 81.5499V86.3599L32.2598 86.4299ZM8.99984 173.13C7.84984 171.94 8.33984 175.56 8.33984 80.1299C8.33984 77.1299 10.3398 76.3499 12.6698 76.2199C15.6698 76.0499 21.1698 76.3499 32.2398 76.0299V80.5599C29.9398 80.5599 12.8598 80.8399 12.8598 80.8399C12.7938 80.8421 12.7289 80.8574 12.6688 80.8849C12.6088 80.9123 12.5547 80.9514 12.5098 80.9999C12.3098 81.2199 12.8298 167.36 12.8698 167.46C12.8894 167.505 12.9215 167.543 12.9624 167.569C13.0033 167.596 13.0511 167.61 13.0998 167.61C13.0998 167.61 118.43 159.99 128.56 159.16C128.56 159.8 128.84 163.41 128.88 163.9C115.36 165 9.99984 173 8.99984 173.13ZM63.8398 184.64L11.4098 173.76C30.5898 172.51 113.61 166.15 128.65 164.85C128.477 165.413 128.253 165.958 127.98 166.48C118.47 167.21 33.1998 174.37 33.1998 174.37C32.5698 174.43 32.6198 175.37 33.1998 175.37L61.6598 180.55C61.7398 180.55 63.8098 180.38 151.84 172.55C151.84 172.68 151.9 172.77 152 172.84C152.88 173.39 154.28 172.84 154.28 172.43C154.256 171.9 154.317 171.37 154.46 170.86C154.46 170.86 154.75 170.99 155.28 172.56C155.29 172.594 155.308 172.625 155.332 172.651C155.356 172.677 155.386 172.697 155.42 172.71C157.261 173.367 159.154 173.866 161.08 174.2C161.443 174.206 161.802 174.123 162.126 173.959C162.45 173.796 162.729 173.556 162.94 173.26C163.062 172.976 163.098 172.662 163.043 172.358C162.988 172.054 162.844 171.773 162.63 171.55C160.831 170.832 159.234 169.686 157.98 168.21C171.47 170.21 186.18 172.21 191.73 173.02L63.8398 184.64Z" fill="black"/>
</svg>
