<svg width="250" height="66" viewBox="0 0 250 66" fill="none" xmlns="http://www.w3.org/2000/svg">
<path d="M64.392 20.16C63.5173 20.16 62.76 19.984 62.12 19.632C61.48 19.28 60.984 18.7787 60.632 18.128C60.2907 17.4667 60.12 16.6827 60.12 15.776V8.96H61.8V15.616C61.8 16.5973 62.0187 17.344 62.456 17.856C62.904 18.3573 63.5547 18.608 64.408 18.608C65.272 18.608 65.928 18.3573 66.376 17.856C66.824 17.344 67.048 16.5973 67.048 15.616V8.96H68.68V15.776C68.68 16.6827 68.504 17.4667 68.152 18.128C67.8107 18.7787 67.32 19.28 66.68 19.632C66.04 19.984 65.2773 20.16 64.392 20.16ZM77.8409 20V15.056C77.8409 14.2987 77.6489 13.728 77.2649 13.344C76.8809 12.96 76.4222 12.768 75.8889 12.768C75.3555 12.768 74.8969 12.96 74.5129 13.344C74.1289 13.728 73.9369 14.2987 73.9369 15.056H73.4089C73.4089 14.2987 73.5422 13.6427 73.8089 13.088C74.0862 12.5333 74.4595 12.1067 74.9289 11.808C75.3982 11.5093 75.9209 11.36 76.4969 11.36C77.0729 11.36 77.5795 11.4987 78.0169 11.776C78.4649 12.0427 78.8115 12.4267 79.0569 12.928C79.3129 13.4187 79.4409 14.0053 79.4409 14.688V20H77.8409ZM72.3369 20V11.52H73.9369V20H72.3369ZM83.0244 20V11.52H84.6244V20H83.0244ZM83.8244 10.368C83.547 10.368 83.3124 10.2773 83.1204 10.096C82.9284 9.91467 82.8324 9.68 82.8324 9.392C82.8324 9.09333 82.9284 8.85333 83.1204 8.672C83.3124 8.49067 83.547 8.4 83.8244 8.4C84.1017 8.4 84.3364 8.49067 84.5284 8.672C84.7204 8.85333 84.8164 9.09333 84.8164 9.392C84.8164 9.68 84.7204 9.91467 84.5284 10.096C84.3364 10.2773 84.1017 10.368 83.8244 10.368ZM90.0039 20L87.2999 11.52H88.9799L91.6199 20H90.0039ZM90.9799 20L93.5559 11.52H95.1719L92.4679 20H90.9799ZM101.309 20.16C100.53 20.16 99.8475 19.9787 99.2609 19.616C98.6742 19.2533 98.2155 18.7413 97.8849 18.08C97.5649 17.4187 97.4049 16.6453 97.4049 15.76C97.4049 14.832 97.5702 14.0427 97.9009 13.392C98.2315 12.7307 98.6849 12.2293 99.2609 11.888C99.8475 11.536 100.52 11.36 101.277 11.36C102.013 11.36 102.658 11.536 103.213 11.888C103.778 12.2293 104.216 12.7307 104.525 13.392C104.845 14.0427 105.005 14.832 105.005 15.76C105.005 15.8453 105.005 15.9253 105.005 16C105.005 16.0747 105 16.176 104.989 16.304H98.7169V15.04H103.805L103.341 15.76C103.341 14.6933 103.154 13.9253 102.781 13.456C102.408 12.976 101.906 12.736 101.277 12.736C100.616 12.736 100.082 12.976 99.6769 13.456C99.2715 13.9253 99.0689 14.6933 99.0689 15.76C99.0689 16.752 99.2662 17.4827 99.6609 17.952C100.066 18.4213 100.616 18.656 101.309 18.656C101.778 18.656 102.178 18.5547 102.509 18.352C102.85 18.1387 103.122 17.792 103.325 17.312L104.813 17.904C104.536 18.6187 104.088 19.1733 103.469 19.568C102.85 19.9627 102.13 20.16 101.309 20.16ZM108.149 20V11.52H109.749V20H108.149ZM109.253 15.536C109.253 14.6827 109.381 13.9467 109.637 13.328C109.904 12.6987 110.267 12.2133 110.725 11.872C111.195 11.5307 111.739 11.36 112.357 11.36V13.136H111.845C111.216 13.136 110.709 13.3067 110.325 13.648C109.941 13.9893 109.749 14.5493 109.749 15.328L109.253 15.536ZM118.14 20.16C117.18 20.16 116.412 19.968 115.836 19.584C115.26 19.1893 114.855 18.6133 114.62 17.856L116.124 17.376C116.305 17.9093 116.572 18.2933 116.924 18.528C117.276 18.752 117.719 18.864 118.252 18.864C118.732 18.864 119.116 18.7733 119.404 18.592C119.703 18.4 119.852 18.1333 119.852 17.792C119.852 17.4613 119.735 17.2053 119.5 17.024C119.265 16.832 118.961 16.6773 118.588 16.56C118.215 16.432 117.815 16.3093 117.388 16.192C116.972 16.064 116.577 15.9093 116.204 15.728C115.831 15.5467 115.527 15.3013 115.292 14.992C115.057 14.672 114.94 14.256 114.94 13.744C114.94 13.0827 115.212 12.5227 115.756 12.064C116.3 11.5947 117.079 11.36 118.092 11.36C118.967 11.36 119.671 11.552 120.204 11.936C120.737 12.32 121.121 12.88 121.356 13.616L119.9 14.112C119.708 13.5893 119.452 13.216 119.132 12.992C118.823 12.768 118.433 12.656 117.964 12.656C117.505 12.656 117.148 12.7467 116.892 12.928C116.647 13.0987 116.524 13.3227 116.524 13.6C116.524 13.888 116.641 14.1173 116.876 14.288C117.111 14.448 117.415 14.5867 117.788 14.704C118.161 14.8107 118.556 14.928 118.972 15.056C119.399 15.184 119.799 15.3493 120.172 15.552C120.545 15.744 120.849 16.0107 121.084 16.352C121.319 16.6933 121.436 17.136 121.436 17.68C121.436 18.3733 121.148 18.96 120.572 19.44C120.007 19.92 119.196 20.16 118.14 20.16ZM124.587 20V11.52H126.187V20H124.587ZM125.387 10.368C125.11 10.368 124.875 10.2773 124.683 10.096C124.491 9.91467 124.395 9.68 124.395 9.392C124.395 9.09333 124.491 8.85333 124.683 8.672C124.875 8.49067 125.11 8.4 125.387 8.4C125.664 8.4 125.899 8.49067 126.091 8.672C126.283 8.85333 126.379 9.09333 126.379 9.392C126.379 9.68 126.283 9.91467 126.091 10.096C125.899 10.2773 125.664 10.368 125.387 10.368ZM132.718 20.16C132.068 20.16 131.486 19.984 130.974 19.632C130.462 19.28 130.062 18.7787 129.774 18.128C129.486 17.4667 129.342 16.6773 129.342 15.76C129.342 14.8427 129.486 14.0587 129.774 13.408C130.062 12.7467 130.462 12.24 130.974 11.888C131.486 11.536 132.068 11.36 132.718 11.36C133.614 11.36 134.334 11.6853 134.878 12.336C135.422 12.976 135.694 13.8827 135.694 15.056V16.464C135.694 17.6373 135.422 18.5493 134.878 19.2C134.334 19.84 133.614 20.16 132.718 20.16ZM133.166 18.752C133.806 18.752 134.324 18.5173 134.718 18.048C135.124 17.568 135.326 16.8053 135.326 15.76C135.326 14.7147 135.124 13.9573 134.718 13.488C134.324 13.008 133.806 12.768 133.166 12.768C132.526 12.768 132.004 13.008 131.598 13.488C131.204 13.9573 131.006 14.7147 131.006 15.76C131.006 16.8053 131.204 17.568 131.598 18.048C132.004 18.5173 132.526 18.752 133.166 18.752ZM135.246 20V18.032L135.486 15.76L135.246 13.472V8.56H136.846V20H135.246ZM145.551 20C145.487 19.7227 145.433 19.44 145.391 19.152C145.359 18.864 145.343 18.5813 145.343 18.304V14.72C145.343 14.0267 145.161 13.5307 144.799 13.232C144.447 12.9227 144.02 12.768 143.519 12.768C143.06 12.768 142.671 12.896 142.351 13.152C142.041 13.3973 141.817 13.7707 141.679 14.272L140.175 13.776C140.409 12.9973 140.831 12.4 141.439 11.984C142.057 11.568 142.783 11.36 143.615 11.36C144.671 11.36 145.487 11.6427 146.063 12.208C146.649 12.7733 146.943 13.5467 146.943 14.528V18.112C146.943 18.7413 147.023 19.3707 147.183 20H145.551ZM142.447 20.16C141.711 20.16 141.119 19.9467 140.671 19.52C140.233 19.0933 140.015 18.5547 140.015 17.904C140.015 17.264 140.228 16.7147 140.655 16.256C141.092 15.7867 141.764 15.472 142.671 15.312L145.663 14.8V16.032L143.199 16.528C142.633 16.6347 142.228 16.8 141.983 17.024C141.737 17.2373 141.615 17.4933 141.615 17.792C141.615 18.0373 141.716 18.2667 141.919 18.48C142.121 18.6827 142.447 18.784 142.895 18.784C143.289 18.784 143.673 18.6933 144.047 18.512C144.42 18.32 144.729 18.0533 144.975 17.712C145.22 17.36 145.343 16.944 145.343 16.464H145.871C145.871 17.2213 145.711 17.8773 145.391 18.432C145.081 18.9867 144.665 19.4133 144.143 19.712C143.631 20.0107 143.065 20.16 142.447 20.16ZM153.468 20.16C152.818 20.16 152.236 19.984 151.724 19.632C151.212 19.28 150.812 18.7787 150.524 18.128C150.236 17.4667 150.092 16.6773 150.092 15.76C150.092 14.8427 150.236 14.0587 150.524 13.408C150.812 12.7467 151.212 12.24 151.724 11.888C152.236 11.536 152.818 11.36 153.468 11.36C154.364 11.36 155.084 11.6853 155.628 12.336C156.172 12.976 156.444 13.8827 156.444 15.056V16.464C156.444 17.6373 156.172 18.5493 155.628 19.2C155.084 19.84 154.364 20.16 153.468 20.16ZM153.916 18.752C154.556 18.752 155.074 18.5173 155.468 18.048C155.874 17.568 156.076 16.8053 156.076 15.76C156.076 14.7147 155.874 13.9573 155.468 13.488C155.074 13.008 154.556 12.768 153.916 12.768C153.276 12.768 152.754 13.008 152.348 13.488C151.954 13.9573 151.756 14.7147 151.756 15.76C151.756 16.8053 151.954 17.568 152.348 18.048C152.754 18.5173 153.276 18.752 153.916 18.752ZM155.996 20V18.032L156.236 15.76L155.996 13.472V8.56H157.596V20H155.996ZM171.044 20L167.38 8.96H169.012L172.692 20H171.044ZM166.356 20V8.96H167.956V20H166.356ZM171.684 20L174.996 8.96H176.58L173.172 20H171.684ZM176.068 20V8.96H177.748V20H176.068ZM184.965 20.16C184.186 20.16 183.504 19.9787 182.917 19.616C182.33 19.2533 181.872 18.7413 181.541 18.08C181.221 17.4187 181.061 16.6453 181.061 15.76C181.061 14.832 181.226 14.0427 181.557 13.392C181.888 12.7307 182.341 12.2293 182.917 11.888C183.504 11.536 184.176 11.36 184.933 11.36C185.669 11.36 186.314 11.536 186.869 11.888C187.434 12.2293 187.872 12.7307 188.181 13.392C188.501 14.0427 188.661 14.832 188.661 15.76C188.661 15.8453 188.661 15.9253 188.661 16C188.661 16.0747 188.656 16.176 188.645 16.304H182.373V15.04H187.461L186.997 15.76C186.997 14.6933 186.81 13.9253 186.437 13.456C186.064 12.976 185.562 12.736 184.933 12.736C184.272 12.736 183.738 12.976 183.333 13.456C182.928 13.9253 182.725 14.6933 182.725 15.76C182.725 16.752 182.922 17.4827 183.317 17.952C183.722 18.4213 184.272 18.656 184.965 18.656C185.434 18.656 185.834 18.5547 186.165 18.352C186.506 18.1387 186.778 17.792 186.981 17.312L188.469 17.904C188.192 18.6187 187.744 19.1733 187.125 19.568C186.506 19.9627 185.786 20.16 184.965 20.16ZM196.609 20L191.009 11.52H192.865L198.465 20H196.609ZM190.849 20L193.969 15.328L194.529 14.752L196.529 11.52H198.305L195.345 15.952L194.785 16.512L192.625 20H190.849ZM201.243 20V11.52H202.843V20H201.243ZM202.043 10.368C201.766 10.368 201.531 10.2773 201.339 10.096C201.147 9.91467 201.051 9.68 201.051 9.392C201.051 9.09333 201.147 8.85333 201.339 8.672C201.531 8.49067 201.766 8.4 202.043 8.4C202.32 8.4 202.555 8.49067 202.747 8.672C202.939 8.85333 203.035 9.09333 203.035 9.392C203.035 9.68 202.939 9.91467 202.747 10.096C202.555 10.2773 202.32 10.368 202.043 10.368ZM209.823 20.16C209.065 20.16 208.399 19.9787 207.823 19.616C207.247 19.2533 206.799 18.7413 206.479 18.08C206.159 17.4187 205.999 16.6453 205.999 15.76C205.999 14.864 206.159 14.0907 206.479 13.44C206.799 12.7787 207.247 12.2667 207.823 11.904C208.399 11.5413 209.065 11.36 209.823 11.36C210.633 11.36 211.332 11.5733 211.919 12C212.516 12.416 212.932 13.0347 213.167 13.856L211.663 14.352C211.492 13.7973 211.252 13.4027 210.943 13.168C210.633 12.9227 210.233 12.8 209.743 12.8C209.124 12.8 208.623 13.04 208.239 13.52C207.855 13.9893 207.663 14.736 207.663 15.76C207.663 16.784 207.855 17.536 208.239 18.016C208.623 18.4853 209.124 18.72 209.743 18.72C210.233 18.72 210.628 18.5973 210.927 18.352C211.236 18.1067 211.465 17.7067 211.615 17.152L213.167 17.616C212.932 18.4587 212.516 19.0933 211.919 19.52C211.332 19.9467 210.633 20.16 209.823 20.16ZM221.363 20C221.299 19.7227 221.246 19.44 221.203 19.152C221.171 18.864 221.155 18.5813 221.155 18.304V14.72C221.155 14.0267 220.974 13.5307 220.611 13.232C220.259 12.9227 219.832 12.768 219.331 12.768C218.872 12.768 218.483 12.896 218.163 13.152C217.854 13.3973 217.63 13.7707 217.491 14.272L215.987 13.776C216.222 12.9973 216.643 12.4 217.251 11.984C217.87 11.568 218.595 11.36 219.427 11.36C220.483 11.36 221.299 11.6427 221.875 12.208C222.462 12.7733 222.755 13.5467 222.755 14.528V18.112C222.755 18.7413 222.835 19.3707 222.995 20H221.363ZM218.259 20.16C217.523 20.16 216.931 19.9467 216.483 19.52C216.046 19.0933 215.827 18.5547 215.827 17.904C215.827 17.264 216.04 16.7147 216.467 16.256C216.904 15.7867 217.576 15.472 218.483 15.312L221.475 14.8V16.032L219.011 16.528C218.446 16.6347 218.04 16.8 217.795 17.024C217.55 17.2373 217.427 17.4933 217.427 17.792C217.427 18.0373 217.528 18.2667 217.731 18.48C217.934 18.6827 218.259 18.784 218.707 18.784C219.102 18.784 219.486 18.6933 219.859 18.512C220.232 18.32 220.542 18.0533 220.787 17.712C221.032 17.36 221.155 16.944 221.155 16.464H221.683C221.683 17.2213 221.523 17.8773 221.203 18.432C220.894 18.9867 220.478 19.4133 219.955 19.712C219.443 20.0107 218.878 20.16 218.259 20.16ZM231.841 20V15.056C231.841 14.2987 231.649 13.728 231.265 13.344C230.881 12.96 230.422 12.768 229.889 12.768C229.356 12.768 228.897 12.96 228.513 13.344C228.129 13.728 227.937 14.2987 227.937 15.056H227.409C227.409 14.2987 227.542 13.6427 227.809 13.088C228.086 12.5333 228.46 12.1067 228.929 11.808C229.398 11.5093 229.921 11.36 230.497 11.36C231.073 11.36 231.58 11.4987 232.017 11.776C232.465 12.0427 232.812 12.4267 233.057 12.928C233.313 13.4187 233.441 14.0053 233.441 14.688V20H231.841ZM226.337 20V11.52H227.937V20H226.337ZM242.144 20C242.08 19.7227 242.027 19.44 241.984 19.152C241.952 18.864 241.936 18.5813 241.936 18.304V14.72C241.936 14.0267 241.755 13.5307 241.392 13.232C241.04 12.9227 240.614 12.768 240.112 12.768C239.654 12.768 239.264 12.896 238.944 13.152C238.635 13.3973 238.411 13.7707 238.272 14.272L236.768 13.776C237.003 12.9973 237.424 12.4 238.032 11.984C238.651 11.568 239.376 11.36 240.208 11.36C241.264 11.36 242.08 11.6427 242.656 12.208C243.243 12.7733 243.536 13.5467 243.536 14.528V18.112C243.536 18.7413 243.616 19.3707 243.776 20H242.144ZM239.04 20.16C238.304 20.16 237.712 19.9467 237.264 19.52C236.827 19.0933 236.608 18.5547 236.608 17.904C236.608 17.264 236.822 16.7147 237.248 16.256C237.686 15.7867 238.358 15.472 239.264 15.312L242.256 14.8V16.032L239.792 16.528C239.227 16.6347 238.822 16.8 238.576 17.024C238.331 17.2373 238.208 17.4933 238.208 17.792C238.208 18.0373 238.31 18.2667 238.512 18.48C238.715 18.6827 239.04 18.784 239.488 18.784C239.883 18.784 240.267 18.6933 240.64 18.512C241.014 18.32 241.323 18.0533 241.568 17.712C241.814 17.36 241.936 16.944 241.936 16.464H242.464C242.464 17.2213 242.304 17.8773 241.984 18.432C241.675 18.9867 241.259 19.4133 240.736 19.712C240.224 20.0107 239.659 20.16 239.04 20.16Z" fill="#212552"/>
<path d="M64.9766 58.0996L62.0469 58.1875C61.6074 58.1875 61.2607 58.085 61.0068 57.8799C60.7529 57.665 60.626 57.3818 60.626 57.0303C60.626 56.6787 60.7725 56.3906 61.0654 56.166C61.3682 55.9414 61.7783 55.8291 62.2959 55.8291H63.4971V37.7676H62.2959C61.7783 37.7676 61.3682 37.6602 61.0654 37.4453C60.7725 37.2305 60.626 36.9473 60.626 36.5957C60.626 36.2441 60.7529 35.9609 61.0068 35.7461C61.2607 35.5215 61.6074 35.4092 62.0469 35.4092L64.9766 35.5117L67.7158 35.4092C68.4971 35.4092 68.9902 35.6484 69.1953 36.127C69.2539 36.2637 69.2832 36.4053 69.2832 36.5518C69.2832 37.3623 68.6582 37.7676 67.4082 37.7676H66.2217V43.5977H76.7393V37.7676H75.3623C74.8643 37.7676 74.4639 37.6602 74.1611 37.4453C73.8584 37.2305 73.707 36.9473 73.707 36.5957C73.707 36.2441 73.834 35.9609 74.0879 35.7461C74.3418 35.5215 74.6934 35.4092 75.1426 35.4092L78.0576 35.5117L80.7676 35.4092C81.5586 35.4092 82.0469 35.6484 82.2324 36.127C82.291 36.2637 82.3203 36.4053 82.3203 36.5518C82.3203 37.3623 81.7148 37.7676 80.5039 37.7676H79.4492V55.8291H80.5039C81.1777 55.8291 81.6465 55.9512 81.9102 56.1953C82.1836 56.4297 82.3203 56.6689 82.3203 56.9131C82.3203 57.7627 81.8027 58.1875 80.7676 58.1875L78.0576 58.0996L75.1426 58.1875C74.6934 58.1875 74.3418 58.085 74.0879 57.8799C73.834 57.665 73.707 57.3818 73.707 57.0303C73.707 56.6787 73.8584 56.3906 74.1611 56.166C74.4639 55.9414 74.8643 55.8291 75.3623 55.8291H76.7393V45.751H66.2217V55.8291H67.4082C68.0918 55.8291 68.5752 55.9512 68.8584 56.1953C69.1416 56.4297 69.2832 56.6689 69.2832 56.9131C69.2832 57.7627 68.7607 58.1875 67.7158 58.1875L64.9766 58.0996ZM98.2012 58.0996L95.418 58.1875C94.9785 58.1875 94.6318 58.085 94.3779 57.8799C94.124 57.665 93.9971 57.3818 93.9971 57.0303C93.9971 56.6787 94.1436 56.3906 94.4365 56.166C94.7393 55.9414 95.1396 55.8291 95.6377 55.8291H96.8828V37.7676H95.6377C95.1396 37.7676 94.7393 37.6602 94.4365 37.4453C94.1436 37.2305 93.9971 36.9473 93.9971 36.5957C93.9971 36.2441 94.124 35.9609 94.3779 35.7461C94.6318 35.5215 94.9785 35.4092 95.418 35.4092L98.2012 35.5117L100.765 35.4092C101.565 35.4092 102.059 35.6484 102.244 36.127C102.303 36.2637 102.332 36.4053 102.332 36.5518C102.332 37.3623 101.717 37.7676 100.486 37.7676H99.6074V55.8291H100.486C101.17 55.8291 101.648 55.9512 101.922 56.1953C102.195 56.4297 102.332 56.6689 102.332 56.9131C102.332 57.7627 101.81 58.1875 100.765 58.1875L98.2012 58.0996ZM121.553 37.7236C120.957 37.7236 120.483 37.7334 120.132 37.7529V48.4316C121.108 48.4805 121.934 48.5049 122.607 48.5049C124.277 48.5049 125.737 48.3584 126.987 48.0654C128.247 47.7725 129.263 47.1963 130.034 46.3369C130.815 45.4678 131.206 44.2373 131.206 42.6455C131.206 40.3311 129.771 38.8174 126.899 38.1045C125.815 37.8506 124.033 37.7236 121.553 37.7236ZM118.872 58.0996L115.796 58.1875C115.356 58.1875 115.01 58.085 114.756 57.8799C114.502 57.665 114.375 57.3818 114.375 57.0303C114.375 56.6787 114.521 56.3906 114.814 56.166C115.117 55.9414 115.518 55.8291 116.016 55.8291H117.407V37.8701C116.685 37.9092 116.006 37.9287 115.371 37.9287C114.121 37.9287 113.496 37.5137 113.496 36.6836C113.496 36.1562 113.872 35.7754 114.624 35.541C114.888 35.4531 115.21 35.4092 115.591 35.4092H120.483C123.149 35.4092 124.8 35.4434 125.435 35.5117C126.079 35.5801 126.772 35.6777 127.515 35.8047C128.267 35.9219 129.087 36.1953 129.976 36.625C130.864 37.0547 131.611 37.5723 132.217 38.1777C133.467 39.4082 134.092 40.8096 134.092 42.3818C134.092 43.9541 133.857 45.2627 133.389 46.3076C132.92 47.3525 132.188 48.207 131.191 48.8711C129.238 50.1797 126.06 50.834 121.655 50.834C121.401 50.834 121.147 50.834 120.894 50.834C120.64 50.834 120.386 50.8291 120.132 50.8193V55.8291H121.465C122.148 55.8291 122.627 55.9512 122.9 56.1953C123.184 56.4297 123.325 56.6689 123.325 56.9131C123.325 57.7627 122.803 58.1875 121.758 58.1875L118.872 58.0996ZM150.544 49.2373C152.702 50.8975 153.908 51.8545 154.162 52.1084L154.689 52.6504C154.992 52.9336 155.246 53.0752 155.451 53.0752C155.656 53.0752 155.837 53.0264 155.993 52.9287C156.149 52.8213 156.335 52.6553 156.55 52.4307C156.774 52.1963 157.023 51.9668 157.297 51.7422L160.563 49.2227L156.564 40.5947C156.301 40.0186 156.091 39.584 155.935 39.291C155.788 38.998 155.651 38.8516 155.524 38.8516C155.407 38.8516 155.285 38.959 155.158 39.1738C155.041 39.3789 154.885 39.7012 154.689 40.1406L150.544 49.2373ZM145.505 58.0703L143.337 58.1875C142.575 58.1875 142.194 57.8799 142.194 57.2646C142.194 56.8643 142.512 56.4199 143.146 55.9316C144.279 55.0332 145.334 53.6367 146.311 51.7422L151.408 41.4883L153.225 37.6357C153.654 36.6885 154.021 36.0342 154.323 35.6729C154.636 35.3018 155.031 35.1162 155.51 35.1162C155.988 35.1162 156.389 35.2773 156.711 35.5996C157.043 35.9219 157.438 36.5762 157.897 37.5625L161.105 44.418C163.85 49.8672 165.31 52.7529 165.485 53.0752L166.027 54.0566C166.457 54.8086 166.755 55.2627 166.921 55.4189C167.087 55.5752 167.258 55.707 167.434 55.8145C168.205 56.2734 168.591 56.6836 168.591 57.0449C168.591 57.8066 168.21 58.1875 167.448 58.1875L165.236 58.085L162.263 58.1875C161.765 58.1875 161.374 58.0898 161.091 57.8945C160.808 57.6992 160.666 57.4062 160.666 57.0156C160.666 56.2148 161.555 55.8145 163.332 55.8145C163.439 55.8145 163.547 55.8145 163.654 55.8145C163.762 55.8145 163.869 55.8096 163.977 55.7998C163.713 55.4189 163.439 54.9355 163.156 54.3496L161.662 51.3027L158.908 53.4414C158.01 54.1348 157.341 54.75 156.901 55.2871C156.462 55.8145 156.062 56.0781 155.7 56.0781C155.339 56.0781 155.051 55.9902 154.836 55.8145C154.631 55.6387 154.445 55.4531 154.279 55.2578L153.664 54.5547C153.488 54.3496 153.254 54.1299 152.961 53.8955L150.705 52.2109C150.246 51.8789 149.777 51.5225 149.299 51.1416L147.146 55.8877H147.585C148.542 55.8877 149.235 55.9756 149.665 56.1514C150.095 56.3174 150.31 56.6396 150.31 57.1182C150.31 57.8408 149.812 58.2021 148.815 58.2021L145.505 58.0703ZM177.953 35.3652C179.506 35.6387 181.703 35.7754 184.545 35.7754C187.387 35.7754 189.491 35.6387 190.858 35.3652V35.2188C190.858 34.9062 190.966 34.6621 191.181 34.4863C191.405 34.3105 191.664 34.2227 191.957 34.2227C192.26 34.2227 192.494 34.3154 192.66 34.501C192.826 34.6768 192.934 34.877 192.982 35.1016C193.07 35.6094 193.217 36.1562 193.422 36.7422L193.671 37.46C193.769 37.7139 193.881 37.9873 194.008 38.2803C194.135 38.5635 194.198 38.8711 194.198 39.2031C194.198 39.5352 194.096 39.7939 193.891 39.9795C193.695 40.165 193.451 40.2578 193.158 40.2578C192.611 40.2578 192.216 39.9307 191.972 39.2764C191.737 38.6123 191.454 38.1777 191.122 37.9727C190.8 37.7578 190.238 37.6504 189.438 37.6504H189.086L185.746 37.8848V55.8291H187.562C188.236 55.8291 188.705 55.9512 188.969 56.1953C189.242 56.4297 189.379 56.7031 189.379 57.0156C189.379 57.3281 189.262 57.6016 189.027 57.8359C188.793 58.0703 188.393 58.1875 187.826 58.1875H187.504C187.367 58.1875 187.226 58.1875 187.079 58.1875C186.933 58.1777 186.786 58.1729 186.64 58.1729C186.493 58.1631 186.259 58.1484 185.937 58.1289C185.614 58.1094 185.111 58.0996 184.428 58.0996C183.754 58.0996 183.217 58.1094 182.816 58.1289C182.426 58.1484 182.162 58.1582 182.025 58.1582L181.586 58.1875C181.439 58.1875 181.303 58.1875 181.176 58.1875H180.839C180.399 58.1875 180.048 58.085 179.784 57.8799C179.53 57.665 179.403 57.3818 179.403 57.0303C179.403 56.6787 179.555 56.3906 179.857 56.166C180.16 55.9414 180.561 55.8291 181.059 55.8291H183.021V37.8555L181.41 37.7383C181.107 37.7188 180.858 37.7041 180.663 37.6943C180.468 37.6748 180.302 37.665 180.165 37.665C180.028 37.6553 179.901 37.6504 179.784 37.6504C179.667 37.6406 179.369 37.6357 178.891 37.6357C178.412 37.6357 178.007 37.7432 177.675 37.958C177.353 38.1631 177.099 38.5195 176.913 39.0273C176.728 39.5254 176.542 39.8574 176.356 40.0234C176.171 40.1797 175.937 40.2578 175.653 40.2578C175.36 40.2578 175.116 40.165 174.921 39.9795C174.716 39.7939 174.613 39.5352 174.613 39.2031C174.613 38.8711 174.677 38.5635 174.804 38.2803C174.931 37.9873 175.043 37.709 175.141 37.4453L175.39 36.7422C175.517 36.3613 175.609 36.0537 175.668 35.8193L175.829 35.1309C175.946 34.5254 176.264 34.2227 176.781 34.2227C177.299 34.2227 177.655 34.4082 177.851 34.7793C177.919 34.9062 177.953 35.0527 177.953 35.2188V35.3652ZM207.545 58.0996L204.762 58.1875C204.322 58.1875 203.976 58.085 203.722 57.8799C203.468 57.665 203.341 57.3818 203.341 57.0303C203.341 56.6787 203.487 56.3906 203.78 56.166C204.083 55.9414 204.483 55.8291 204.981 55.8291H206.227V37.7676H204.981C204.483 37.7676 204.083 37.6602 203.78 37.4453C203.487 37.2305 203.341 36.9473 203.341 36.5957C203.341 36.2441 203.468 35.9609 203.722 35.7461C203.976 35.5215 204.322 35.4092 204.762 35.4092L207.545 35.5117L210.108 35.4092C210.909 35.4092 211.402 35.6484 211.588 36.127C211.646 36.2637 211.676 36.4053 211.676 36.5518C211.676 37.3623 211.061 37.7676 209.83 37.7676H208.951V55.8291H209.83C210.514 55.8291 210.992 55.9512 211.266 56.1953C211.539 56.4297 211.676 56.6689 211.676 56.9131C211.676 57.7627 211.153 58.1875 210.108 58.1875L207.545 58.0996ZM229.388 49.2373C231.546 50.8975 232.752 51.8545 233.006 52.1084L233.533 52.6504C233.836 52.9336 234.09 53.0752 234.295 53.0752C234.5 53.0752 234.681 53.0264 234.837 52.9287C234.993 52.8213 235.179 52.6553 235.394 52.4307C235.618 52.1963 235.867 51.9668 236.141 51.7422L239.407 49.2227L235.408 40.5947C235.145 40.0186 234.935 39.584 234.778 39.291C234.632 38.998 234.495 38.8516 234.368 38.8516C234.251 38.8516 234.129 38.959 234.002 39.1738C233.885 39.3789 233.729 39.7012 233.533 40.1406L229.388 49.2373ZM224.349 58.0703L222.181 58.1875C221.419 58.1875 221.038 57.8799 221.038 57.2646C221.038 56.8643 221.355 56.4199 221.99 55.9316C223.123 55.0332 224.178 53.6367 225.154 51.7422L230.252 41.4883L232.068 37.6357C232.498 36.6885 232.864 36.0342 233.167 35.6729C233.479 35.3018 233.875 35.1162 234.354 35.1162C234.832 35.1162 235.232 35.2773 235.555 35.5996C235.887 35.9219 236.282 36.5762 236.741 37.5625L239.949 44.418C242.693 49.8672 244.153 52.7529 244.329 53.0752L244.871 54.0566C245.301 54.8086 245.599 55.2627 245.765 55.4189C245.931 55.5752 246.102 55.707 246.277 55.8145C247.049 56.2734 247.435 56.6836 247.435 57.0449C247.435 57.8066 247.054 58.1875 246.292 58.1875L244.08 58.085L241.106 58.1875C240.608 58.1875 240.218 58.0898 239.935 57.8945C239.651 57.6992 239.51 57.4062 239.51 57.0156C239.51 56.2148 240.398 55.8145 242.176 55.8145C242.283 55.8145 242.391 55.8145 242.498 55.8145C242.605 55.8145 242.713 55.8096 242.82 55.7998C242.557 55.4189 242.283 54.9355 242 54.3496L240.506 51.3027L237.752 53.4414C236.854 54.1348 236.185 54.75 235.745 55.2871C235.306 55.8145 234.905 56.0781 234.544 56.0781C234.183 56.0781 233.895 55.9902 233.68 55.8145C233.475 55.6387 233.289 55.4531 233.123 55.2578L232.508 54.5547C232.332 54.3496 232.098 54.1299 231.805 53.8955L229.549 52.2109C229.09 51.8789 228.621 51.5225 228.143 51.1416L225.989 55.8877H226.429C227.386 55.8877 228.079 55.9756 228.509 56.1514C228.938 56.3174 229.153 56.6396 229.153 57.1182C229.153 57.8408 228.655 58.2021 227.659 58.2021L224.349 58.0703Z" fill="#212552"/>
<rect x="0.506902" y="-0.492839" width="4.68591" height="36.9546" transform="matrix(0.999899 0.0142244 0.0139056 -0.999903 35.8173 48.4591)" fill="#212552" stroke="#212552"/>
<rect x="0.506902" y="-0.492839" width="4.68591" height="24.3031" transform="matrix(0.999899 0.0142244 0.0139056 -0.999903 23.8781 48.2892)" fill="#212552" stroke="#212552"/>
<rect x="0.506902" y="-0.492839" width="4.68591" height="11.6515" transform="matrix(0.999899 0.0142244 0.0139056 -0.999903 11.939 48.1193)" fill="#212552" stroke="#212552"/>
<rect width="53.2128" height="5.14963" transform="matrix(0.999901 0.0140641 0.0140641 -0.999901 0 62.2214)" fill="#212552"/>
<rect width="53.2128" height="5.14963" transform="matrix(0.999901 0.0140641 0.0140641 -0.999901 0 62.2214)" fill="#212552"/>
<rect width="42.9136" height="2.8609" transform="matrix(0.999901 0.0140641 0.0140641 -0.999901 5.26172 54.2841)" fill="#212552"/>
<path d="M59 28L249 28" stroke="#B09B1D" stroke-width="2" stroke-linecap="round"/>
</svg>
